<?xml version="1.0" encoding="UTF-8"?>
<!-- Generator: Adobe Illustrator 25.2.1, SVG Export Plug-In . SVG Version: 6.00 Build 0)  -->
<svg xmlns="http://www.w3.org/2000/svg" xmlns:xlink="http://www.w3.org/1999/xlink" version="1.1" id="Capa_1" x="0px" y="0px" viewBox="0 0 512 512" style="enable-background:new 0 0 512 512;" xml:space="preserve" width="512" height="512">
<g>
	<g>
		<g>
			<g>
				<path style="fill:#DB5E43;" d="M502.893,248.501c0.871,7.333,1.28,14.213-6.082,17.998      c-10.647,5.474-126.827,13.53-215.236-41.557c-3.346-2.085-5.844-7.093-4.963-11.499c1.17-5.852,8.457-19.254,20.709-29.489      C351.436,138.747,493.287,167.652,502.893,248.501z"/>
				<path style="fill:#DB5E43;" d="M257.87,374.183c-3.809-3.029-6.103-7.012-7.639-11.514c-3.713-10.881-1.29-20.072-0.658-23.441      c0.061-0.327,0.129-0.663,0.263-0.964c2.033-4.552,1.839,0.459,12.433,0.849c18.404,0.678,15.073,7.615,19.831,17.256      c3.419,6.927,9.86,11.719,18.207,11.281c6.206-0.325,10.464-2.559,15.461-5.323c8.158-4.512,16.527-2.035,20.069,3.261      c3.932,5.879,7.685,11.422,13.262,15.84c2.603,2.062,8.616,5.465,11.332,5.61c9.808,0.525,16.264-2.627,24.051-7.17      c4.447-2.594,6.686-5.593,12.58-5.384c10.429,0.369,12.004,7.803,19.177,13.878c7.921,6.708,17.517,7.687,26.598,0.235      c7.816-6.414,7.188-15.066,24.93-8.4c8.715,3.275,11.576,0.217,11.819,2.429c0.091,0.829,0.117,1.654-0.01,2.493      c-1.546,10.146-6.519,20.12-14.534,25.99C441.255,428.528,315.328,419.87,257.87,374.183z"/>
			</g>
			<g>
				<path style="fill:#91D728;" d="M312.507,362.902c-9.676,5.408-20.622,5.491-27.46-3.65      c-8.106-10.836-0.397-20.499-23.968-21.353c-5.161-0.187-9.533-2.29-13.246-5.73c-9.84-9.118-8.312-24.201,2.166-31.993      c11.662-8.671-2.063,7.785,12.167,17.175c55.364,36.531,142.102,55.397,213.881,42.884c14.559-2.538,12.165-19.363,16.13-14.155      c11.535,15.151,2.157,34.599-16.11,34.698c-8.186,0.044-20.314-9.567-28.164,0.799c-11.853,15.652-25.873,13.659-35.688,1.132      c-8.611-10.99-17.5-11.46-25.439-5.795c-11.336,8.09-23.899,13.011-35.28,5.009c-12.454-8.757-12.043-18.073-20.918-21.754      C326.239,358.369,318.402,359.607,312.507,362.902z"/>
				<path style="fill:#91D728;" d="M502.303,291.054c-10.188,2.876-14.131-3.87-22.206-5.603c-3.735-0.802-8.115-0.208-10.669,2.654      c-6.802,7.623-16.15,9.45-24.402,3.568c-8.009-5.709-8.112-12.752-17.539-11.489c-4.908,0.658-9.235,7.442-19.257,8.469      c-7.805,0.799-12.662-3.068-16.605-9.686c-4.471-7.504-12.463-9.635-20.082-3.967c-4.637,3.45-9.294,5.685-15.368,4.009      c-8.08-2.23-11.609-8.679-15.976-14.757c-2.427-3.377-8.709-4.872-13.194-2.143c-6.769,4.12-14.244,6.241-21.381,2.865      c-4.296-2.032-7.888-7.058-9.099-10.872c-2.002-6.305-9.238-8.17-15.882-7.329c-6.589,0.834-12.7,0.486-17.19-4.455      c-7.066-7.776,0.533-19.38,11.346-22.201c2.719-0.709,0.588,2.081,6.952,6.148c48.871,31.233,142.091,49.878,199.206,43.962      c13.459-1.394,15.909-2.146,18.777-4.348c1.32-1.014,1.496-1.065,2.779,0.054c4.024,3.508,6.903,7.689,7.457,13.169      C510.535,284.692,507.752,289.516,502.303,291.054z"/>
			</g>
			<g>
				<path style="fill:#FF8EDE;" d="M343.203,218.785c6.63-4.945,18.042-2.951,23.987,2.275c5.885,5.174,3.772,13.637-6.957,14.552      C345.536,236.864,334.602,225.2,343.203,218.785z"/>
				<path style="fill:#FF8EDE;" d="M439.499,238.044c-4.218-7.115-15.519-9.664-23.017-7.126      c-7.422,2.512-8.727,11.137,0.825,16.108C430.392,253.836,444.971,247.274,439.499,238.044z"/>
				<path style="fill:#FF8EDE;" d="M262.664,316.472c-12.318-8.003-5.155-27.675,3.581-39.485c3.198-4.323,1.694-1.441,10.326,2.889      c4.657,2.336,0.171,1.372-5.958,12.047c-1.445,2.517-2.091,5.279-2.38,8.112c-0.438,4.301,1.863,7.538,5.931,9.077      c9.432,3.57,28.365,0.999,38.4-0.817c28.273-5.117,24.739-8.206,29.737-5.267c1.609,0.945,3.875,25.468,18.764,37.931      c14.543,12.173,34.124-7.903,45.311-23.344c0.491-0.677,0.841-1.513,1.82-1.537c2.158-0.053,2.461-0.513,4.595,1.323      c11.219,9.655,39.615,29.421,55.471,30.514c4.644,0.32,7.925-1.823,9.301-6.6c0.89-3.087,1.062-6.229,0.572-9.42      c-1.638-10.663-5.754-11.437-0.605-11.842c8.228-0.649,9.338-3.132,10.11-0.306c2.581,9.443,3.609,21.1-0.464,30.285      c-5.748,12.96-24.927,11.485-36.607,12.34c-49.207,3.604-107.85-5.86-157.925-29.334      C282.299,328.187,272.246,322.697,262.664,316.472z"/>
			</g>
			<g>
				<path style="fill:#FFCF00;" d="M360.858,339.424c-8.661-8.12-13.387-20.907-16.204-32.452c-0.138-0.566-0.269-1.14-0.329-1.718      c-0.091-0.888,0.559-1.375,1.454-1.12c0.239,0.068,0.455,0.21,0.692,0.288c23.266,7.671,29.115,9.244,57.873,11.497      c0.928,0.073,1.232,0.758,0.752,1.622c-0.802,1.444-7.149,9.833-12.447,14.669c-5.651,5.159-12.941,10.711-20.663,11.429      C370.73,343.756,363.896,342.272,360.858,339.424z"/>
				<path style="fill:#FFCF00;" d="M275.384,308.388c-5.336-1.56-6.481-4.958-6.026-9.234c0.661-6.217,5.212-12.121,9.833-16.382      c0.954-0.879,2.027-1.107,3.233-0.602c2.798,1.171,5.803,1.494,8.725,2.163c2.616,0.599,5.288,0.696,7.939,0.901      c13.129,1.016,14.804-1.287,15.781,1.464c0.644,1.814,2.004,3.007,3.568,4.056c12.036,8.076,17.832,8.754,17.841,10.245      c0.004,0.623-0.552,0.797-1.022,0.93C320.987,305.977,290.72,312.872,275.384,308.388z"/>
				<path style="fill:#FFCF00;" d="M432.016,330.379c-5.64-3.726-11.079-7.73-16.409-11.884c-5.113-3.985,3.422-1.368,18.728-4.451      c2.016-0.406,3.877-1,5.295-2.565c2.407-2.656,5.558,4.225,28.755,8.264c2.061,0.359,4.373-0.657,5.763,2.375      c2.632,5.743,3.41,10.595,3.186,14.52c-0.29,5.083-2.162,9.639-7.219,10.232C465.032,347.467,440.151,335.753,432.016,330.379z"/>
			</g>
			<g>
				<path style="fill:#FD8A02;" d="M434.629,199.989c-8.123,4.84-16.943-8.044-11.561-19.158c0.774-1.597,1.583-1.804,2.41-1.693      C433.524,180.221,444.38,194.18,434.629,199.989z"/>
				<path style="fill:#FD8A02;" d="M462.517,218.351c-8.124,4.84-16.943-8.044-11.561-19.157c0.774-1.598,1.583-1.804,2.41-1.693      C461.412,198.582,472.268,212.542,462.517,218.351z"/>
				<path style="fill:#FD8A02;" d="M485.86,241.651c-8.123,4.84-16.943-8.044-11.561-19.157c0.774-1.598,1.583-1.804,2.41-1.693      C484.755,221.882,495.611,235.842,485.86,241.651z"/>
				<path style="fill:#FD8A02;" d="M464.569,254.76c-8.124,4.84-16.943-8.044-11.561-19.158c0.774-1.598,1.583-1.804,2.411-1.693      C463.465,234.992,474.32,248.951,464.569,254.76z"/>
				<path style="fill:#FD8A02;" d="M329.531,191.753c5.637,7.592,18.734-0.909,18.04-13.237c-0.1-1.772-0.767-2.274-1.574-2.49      C338.154,173.93,322.764,182.64,329.531,191.753z"/>
				<path style="fill:#FD8A02;" d="M299.021,204.283c5.637,7.592,18.734-0.909,18.04-13.237c-0.1-1.772-0.767-2.274-1.574-2.49      C307.645,186.46,292.255,195.17,299.021,204.283z"/>
				<path style="fill:#FD8A02;" d="M313.632,224.573c5.637,7.592,18.733-0.909,18.04-13.237c-0.1-1.772-0.767-2.274-1.574-2.49      C322.255,206.75,306.866,215.46,313.632,224.573z"/>
				<path style="fill:#FD8A02;" d="M363.88,185.839c5.637,7.592,18.734-0.909,18.04-13.237c-0.1-1.772-0.767-2.274-1.574-2.49      C372.503,168.016,357.113,176.726,363.88,185.839z"/>
				<path style="fill:#FD8A02;" d="M399.946,194.336c-9.437-0.603-9.424-16.216,1.3-22.338c1.542-0.88,2.326-0.593,2.945-0.033      C410.215,177.408,411.273,195.06,399.946,194.336z"/>
			</g>
			<g>
				<path style="fill:#FC09B2;" d="M441.796,303.705c-0.375,1.714-0.603,3.277-1.342,4.725c-1.3,2.547-3.191,4.077-6.111,4.613      c-16.101,2.956-32.398,1.75-48.525-0.244c-23.719-2.934-46.052-10.76-66.662-22.763c-7.532-4.387-2.982-16.758,2.309-23.626      c0.613-0.796,1.354-0.744,6.292-3.551c3.841-2.183,9.773-1.22,12.217,2.837c6.04,10.021,15.043,17.949,25.843,13.806      c6.865-2.633,5.722-4.655,11.582-6.277c3.464-0.958,6.607-0.333,9.45,1.844c1.887,1.445,3.197,3.326,4.418,5.362      c3.759,6.269,9.124,9.864,16.707,9.333c1.912-0.134,3.797-0.535,5.608-1.221c2.82-1.069,5.499-2.409,8.012-4.079      c0.904-0.601,1.845-1.154,2.703-1.815c3.894-2.998,9.864-1.369,12.564,2.102c1.126,1.447,2.301,2.858,3.483,4.261      c0.382,0.453,0.733,0.888,0.876,1.484C442.279,294.92,442.832,299.363,441.796,303.705z"/>
				<path style="fill:#FC09B2;" d="M442.687,310.255c-2.011-1.004-0.805-1.88,0.093-5.056c1.66-5.866-1.001-13.378,1.029-12.913      c1.909,0.437,9.134,7.758,20.186,1.463c8.388-4.778,8.214-12.491,24.222-3.582c2.482,1.382,5.213,2.207,8.069,2.512      c2.298,0.245,2.745,0.082,2.867,1.548C501.609,323.829,469.69,323.737,442.687,310.255z"/>
				<path style="fill:#FC09B2;" d="M270.551,247.605c9.204,1.917,8.525-0.955,16.452,0.288c3.936,0.617,7.028,2.589,8.519,6.494      c2.429,6.361,6.776,11.284,13.5,13.013c3.127,0.804,6.616-0.001,8.946-0.246c3.21-0.339-3.737,6.508-3.802,14      c-0.025,2.888-0.146,2.978-2.896,3.141c-29.312,1.737-58.085-10.521-44.846-36.529c0.422-0.83,0.838-1.313,2.009-0.795      C269.114,247.271,269.868,247.406,270.551,247.605z"/>
			</g>
			<path style="opacity:0.5;fill:#FC09B2;" d="M263.002,316.668c-2.692-1.762-3.672-2.966-4.585-4.512     c-0.439-0.744,0.384-1.227,1.191-1.54c14.504-5.629,32.269,8.224,44.601,14.081c25.615,12.167,52.266,20.544,80.735,21.959     c7.927,0.394,16.143-0.396,23.55-3.396c8.264-3.347,11.006-8.424,15.935-15.3c0.908-1.267,0.423-1.127,8.54,4.247     c8.982,5.946,24.532,14.972,35.319,15.708c11.295,0.771,11.912-14.086,7.624-24.241c-2.296-5.437-0.015-2.249,8.787-4.892     c1.252-0.376,2.184-0.687,2.69,0.299c0.873,1.703,3.415,12.396,2.031,22.249c-1.178,8.383-4.487,16.208-12.84,17.75     C406.641,371.992,318.46,352.956,263.002,316.668z"/>
			<g style="opacity:0.5;">
				<path style="fill:#FD8A02;" d="M270.346,295.122c0.452-1.176,1.212-1.93,2.452-2.277c11.522-3.224,22.954,5.52,34.551,1.548      c2.802-0.96,5.308-2.406,7.283-4.688c2.083-2.407,0.231,0.967,20.122,10.004c0.705,0.32,1.641,0.635,1.516,1.414      c-0.487,2.968-19.249,5.368-21.526,5.784C294.514,310.606,263.021,314.178,270.346,295.122z"/>
				<path style="fill:#FD8A02;" d="M431.879,330.285c-5.57-3.686-10.948-7.638-16.207-11.751c-0.624-0.488-1.721-0.903-1.443-1.824      c0.341-1.132,1.53-0.654,2.398-0.699c23.007-1.178,20.772-4.518,22.002-1.281c6.215,16.35,27.861,10.366,37.691,19.094      c0.659,0.585,0.975,1.303,0.985,2.206c0.058,5.125-1.962,10.18-7.087,10.831C460.523,348.09,440.113,335.734,431.879,330.285z"/>
				<path style="fill:#FD8A02;" d="M361.874,340.271c-3.688-3.077-6.689-6.73-8.822-11.059c-0.477-0.969-0.407-1.226,0.455-1.89      c2.247-1.733,4.851-2.094,7.78-2.358c23.926-2.16,17.173-12.348,23.912-10.956c5.964,1.232,19.019,1.884,19.369,1.944      c0.629,0.108,0.944,0.74,0.642,1.338c-0.842,1.664-7.179,10.04-12.708,15.065C383.257,340.758,371.425,348.24,361.874,340.271z"/>
			</g>
			<g style="opacity:0.25;">
				<path style="fill:#000E3F;" d="M473.922,206.646c-0.781-4.906-2.691-9.758-2.721-9.876c-0.143-0.562,0.15-1.084,0.743-0.622      c6.025,4.696,11.618,10.508,16.135,16.333c13.076,16.863,16.742,38.333,14.818,46.315c-1.132,4.694-4.133,7.591-8.79,8.545      c-50.109,10.265-156.393-6.58-212.578-42.447c-1.419-0.906-3.707-2.847-2.23-3.631c1.48-0.786,3.008-1.602,4.673-1.757      c20.421-1.896,39.357,8.484,57.706,15.86c26.876,10.804,69.564,22.752,96.299,19.352      C466.669,251.071,479.232,240.028,473.922,206.646z"/>
				<path style="fill:#000E3F;" d="M285.534,391.309c-8.862-4.244-17.483-9.137-25.287-15.133c-2.772-2.13-5.467-4.404-7.265-7.508      c-0.495-0.855-1.101-1.692-0.153-2.132c0.994-0.461,2.053-0.72,3.135-0.818c28.061-2.544,75.14,29.333,124.198,33.635      c12.358,1.084,26.176,2.534,34.885-8.195c1.969-2.426,1.779-2.15,4.168-0.622c11.129,7.117,21.861,2.083,29.649-8.52      c4.467-6.082,11.852-4.491,18.837-1.845c8.745,3.313,11.752,0.115,11.901,2.629c0.35,5.874-3.423,17.395-11.086,25.324      c-5.346,5.531-11.883,7.107-19.571,8.622c-27.521,5.424-56.048,3.787-83.5-1.215c-27-4.919-54.935-12.294-79.767-24.155      C285.63,391.355,285.582,391.332,285.534,391.309z"/>
				<path style="fill:#000E3F;" d="M472.024,380.489c-6.448-2.185-8.504-3.242-13.468-3.682      c-10.189-0.903-10.288,7.654-19.242,13.116c-9.886,6.031-20.098,1.725-27.118-7.237c-4.768-6.087-10.008-10.359-17.956-9.061      c-6.877,1.123-9.54,6.322-19.673,10.151c-9.749,3.684-15.945,2.461-21.179-0.673c-15.564-9.323-13.595-22.125-26.677-24.001      c-10.605-1.521-15.076,7.617-27.571,7.492c-9.663-0.097-15.673-8.252-13.823-8.154c0.66,0.035,1.324,0.112,1.971,0.246      c10.225,2.108,18.645-1.798,28.592-4.424c9.563-2.524,19.418-1.328,26.721,5.468c5.31,4.942,8.522,11.089,15.604,14.633      c6.562,3.283,16.283,3.723,25.123-1.661c7.525-4.583,11.798-7.089,18.808-6.132c7.343,1.003,21.317,12.242,26.232,12.614      c8.583,0.649,15.155-3.077,20.74-8.219c11.631-10.709,3.399-6.605,26.982-10.736c14.116-2.472,12.298-17.937,15.41-14.826      c12.256,12.252,4.035,36.069-15.472,35.317C474.706,380.669,473.352,380.812,472.024,380.489z"/>
				<path style="fill:#000E3F;" d="M347.595,289.421c21.13,5.88,55.872,16.086,69.145-1.454c1.637-2.163,3.794-2.429,7.29-5.164      c4.362-3.412,10.728-1.258,13.083,2.303c2.536,3.837,3.854,2.637,4.867,8.995c1.057,6.637,0.018,17.458-7.071,18.798      c-34.617,6.543-86.268-3.199-116.847-23.672c-0.671-0.449-1.589-0.92-1.508-1.846c0.09-1.031,1.214-1.007,1.943-1.283      c2.867-1.083,5.887-1.294,8.881-1.002C336.008,285.94,330.846,284.76,347.595,289.421z"/>
				<path style="fill:#000E3F;" d="M393.71,282.197c-1.962-2.632-2.418-4.489-5.176-7.036c-5.392-4.98-11.948-3.983-17.115-0.058      c-8.08,6.139-14.323,5.286-20.796,1.28c-0.453-0.281-1.285-0.564-0.955-1.231c0.251-0.508,0.886,0.082,1.354,0.141      c12.365,1.569,12.904-9.188,30.318-8.752c7.893,0.198,13.777,4.501,18.419,10.927c2.749,3.805,6.676,5.497,10.814,3.362      c6.021-3.107,6.808-5.12,13.917-7.28c18.479-5.617,23.115,17.787,36.726,11.659c4.839-2.179,6.934-5.837,11.062-12.88      c1.427-2.435,0.954-0.695,21.732-3.913c5.966-0.924,6.03-4.523,8.046-2.846c11.711,9.746,9.233,22.799,0.816,25.337      c-12.912,3.895-17.749-8.163-28.892-5.418c-4.821,1.188-4.393,3.832-10.057,7.173c-9.856,5.813-19.096,0.987-26.039-8.182      c-2.659-3.512-6.224-4.916-10.556-4.262c-5.224,0.789-9.885,8.445-21.01,8.54C405.307,288.765,396.977,286.579,393.71,282.197z"/>
				<path style="fill:#000E3F;" d="M442.582,310.206c-1.049-0.524-1.227-1.224-0.693-2.261c1.378-2.678,5.507-4.173,8.8-4.571      c13.19-1.594,34.386,7.075,41.734-8.671c1.062-2.275,0.813-2.384,3.242-2.096c2.701,0.321,3.376-0.103,3.504,1.743      C501.225,324.027,469.567,323.678,442.582,310.206z"/>
				<path style="fill:#000E3F;" d="M302.015,266.602c0.764-0.574,1.205-1.483,2.347-1.012c3.683,1.52,4.718,2.755,12.615,1.738      c0.564-0.073,1.202-0.457,1.653,0.057c0.57,0.65-0.022,1.268-0.321,1.822c-7.54,13.991-1.403,14.7-6.784,15.062      c-13.204,0.89-31.291-1.26-41.381-9.84c-2.751-2.339-5.133-6.087-5.687-7.822c-0.289-0.904-0.021-1.408,0.956-1.659      C277.3,261.893,288.279,276.918,302.015,266.602z"/>
			</g>
			<path style="opacity:0.5;fill:#FFFFFF;" d="M351.215,178.109c-22.883,7.927-38.656,14.846-55.346,33.924     c-1.37,1.566-2.736,3.207-4.559,4.211c-1.822,1.003-4.248,1.223-5.891-0.053c-1.299-1.009-1.853-2.76-1.769-4.402     c0.084-1.643,0.722-3.204,1.439-4.684c3.59-7.411,9.456-13.226,16.02-18.065C335.81,163.459,364.713,173.433,351.215,178.109z"/>
			<path style="fill:#FFFFFF;" d="M406.492,215.919c3.05,1.403,4.106,3.842,3.633,6.571c-2.539,14.632-25.199,15.203-31.949,3.529     c-2.416-4.178-4.056-13.404,2.538-14.793C384.191,210.493,396.551,211.346,406.492,215.919z"/>
		</g>
		<g>
			<path style="fill:#000E3F;" d="M257.797,376.671c-11.591-9.083-13.9-26.491-9.416-39.877c0.629-1.878-0.76-1.609-3.717-5.191     c-11.034-13.364-3.511-31.221,9.336-35.846c2.857-1.029,0.567-6.101,11.35-20.831c0.712-0.973,1.225-1.542,0.376-2.407     c-2.889-2.941-4.328-8.016-4.441-12.021c-0.127-4.512,1.241-8.928,3.097-12.993c0.551-1.208,0.56-1.251-0.432-2.093     c-4.163-3.534-6.112-8.847-4.497-14.155c1.799-5.914,8.318-11.098,14.143-12.744c1.013-0.286,1.103-0.52,0.997-1.669     c-0.306-3.343,0.483-6.392,2.01-9.391c2.588-5.081,5.572-9.874,9.13-14.332c50.573-63.35,213.224-29.007,219.468,59.015     c0.18,2.543,0.61,6.314-1.644,10.449c-1.399,2.566,0.677,0.199,5.872,8.882c2.216,3.704,3.127,7.7,2.23,12.008     c-0.866,4.157-3.373,6.991-7.13,8.792c-0.749,0.359-1.565,0.576-2.346,0.867c-1.05,0.391-1.066,0.395-1.031,1.657     c0.078,2.84,0.018,5.655-0.582,8.462c-1.265,5.921-4.659,10.958-9.998,14.018c-1.73,0.992-1.148,0.495,0.266,8.102     c0.966,5.199,1.241,10.438,0.626,15.694c-0.149,1.27,0.412,2.01,1.173,2.832c12.645,13.662,5.719,33.525-9.477,37.794     c-1.042,0.293-1.548,0.853-1.605,1.92c-0.721,13.63-10.017,29.215-23.936,32.982     C403.763,431.169,302.108,411.396,257.797,376.671z M384.731,261.16c-0.005,0.026-0.01,0.052-0.016,0.078     c35.618,7.124,71.879,11.309,107.814,5.554c0.904-0.145,1.809-0.342,2.681-0.62c4.805-1.534,7.298-6.102,7.271-10.068     c-0.62-93.307-188.339-129.725-224.18-45.42c-2.442,5.744-0.344,11.022,4.345,13.907c8.009,4.927,17.166,10.018,29.076,15.071     C339.44,251.42,360.285,256.271,384.731,261.16z M461.205,412.303c7.301-3.305,15.505-12.983,17.535-28.47     c0.302-2.306-0.904-0.284-7.464-1.572c-5.006-0.982-10.127-4.088-15.344-3.525c-3.91,0.422-5.989,3.394-8.293,6.19     c-10.939,13.276-25.963,13.535-38.123-2.451c-5.766-7.58-14.424-9.807-22.489-3.372c-2.639,2.105-5.637,3.57-8.637,5.023     c-19.277,9.338-30.598,1.01-42.632-17.154c-4.606-6.953-12.928-7.583-20.009-3.627c-19.574,10.937-33.019,3.362-37.264-14.482     c-2.822-11.862-18.398-6.622-26.454-11.378c-0.639-0.377-0.917-0.238-1.081,0.481c-0.888,3.903-1.886,7.78-1.865,11.84     c0.084,16.001,6.067,22.4,18.138,30.262C321.726,415.564,427.804,427.422,461.205,412.303z M487.035,347.96     c2.94-8.02,2.167-17.129,0.457-25.331c-0.117-0.562-0.241-1.123-0.37-1.683c-0.718-3.112-1.255-0.31-9.99-0.036     c-0.166,0.005-0.33,0.049-0.496,0.068c-0.484,0.056-0.79,0.243-0.573,0.798c1.168,2.979,2.725,6.04,3.183,12.296     c0.539,7.368-2.218,14.462-9.775,14.751c-14.266,0.545-41.11-18.047-52.352-26.812c-5.265-4.105-7.725-7.336-10.384-3.433     c-7.153,10.501-19.71,23.732-32.147,26.601c-17.168,3.96-27.276-20.378-31.739-37.354c-0.758-2.884-0.321-4.075-2.463-4.773     c-1.119-0.365-2.139-0.065-3.183,0.242c-16.516,4.843-38.11,9.508-55.195,8.273c-6.739-0.487-13.461-2.343-14.528-8.907     c-1.101-6.775,3.498-14.367,7.848-18.762c4.15-4.192,2.09-0.99-5.89-7.485c-0.734-0.597-1.208-0.811-2.357,0.844     c-8.651,12.468-16.15,31.167-3.206,38.942c4.648,2.792,9.198,5.737,13.954,8.358c13.915,7.665,28.57,13.968,43.571,19.175     c15.926,5.528,32.282,9.821,48.852,12.918c16.742,3.129,33.727,5.039,50.754,5.531c16.466,0.475,33.006-0.37,49.279-2.986     C479.025,357.787,483.706,357.041,487.035,347.96z M473.041,379.615c17.998,2.712,30.819-16.824,18.639-32.722     c-0.188-0.245-0.502-0.493-0.789-0.538c-0.427-0.066-0.444,0.399-0.552,0.69c-0.037,0.099-0.82,2.625-2.081,5.084     c-2.619,5.105-6.781,8.051-12.453,9.058c-7.402,1.313-14.825,2.454-22.321,3.02c-65.696,4.962-134.192-12.055-181.893-39.938     c-11.52-6.733-18.471-10.232-17.37-23.73c0.043-0.529,0.477-1.23-0.216-1.565c-0.454-0.219-0.944,0.198-1.362,0.467     c-16.772,10.786-12.386,31.959,4.473,36.925c5.189,1.529,12-0.034,18.01,3.521c5.43,3.212,5.755,7.712,6.855,11.127     c5.122,15.906,18.308,18.057,30.664,10.855c7.281-4.244,14.686-5.565,21.579-0.595c3.596,2.592,4.695,5.448,7.43,9.349     c4.146,5.913,11.633,13.175,18.647,14.291c12.328,1.962,23.945-7.527,28.06-10.029c5.862-3.563,13.371-3.022,18.746,1.267     c6.318,5.042,6.51,9.303,14.789,13.68c6.875,3.635,13.906,2.177,19.348-2.342c2.332-1.937,4.221-4.26,6.065-6.642     c4.265-5.509,10.623-5.839,17.319-3.811C467.257,377.834,469.792,378.937,473.041,379.615z M503.874,289.552     c8.63-4.372,5.806-17.155-2.009-22.926c-1.923-1.42-0.725,1.569-9.899,3.088c-26.57,4.4-66.865,2.39-87.903-1.969     c-22.023-4.563-77.419-12.238-122.52-40.534c-6.359-3.989-4.728-6.536-6.877-6.065c-4.726,1.036-10.555,5.185-12.497,11.214     c-1.825,5.667,1.6,11.672,8.968,13.335c6.245,1.41,7.656-0.223,14.934,0.182c4.245,0.236,9.29,2.682,10.909,7.095     c4.586,12.502,14.953,16.782,29.48,8.496c4.766-2.718,10.37-2.377,14.308,2.135c1.727,1.978,2.679,3.863,4.188,5.923     c4.392,5.997,11.367,10.61,18.569,8.663c4.668-1.262,7.889-4.827,12.364-6.428c3.536-1.265,7.613-1.039,10.869,0.894     c3.487,2.07,4.997,5.562,7.357,8.632c5.014,6.522,11.723,7.93,19.182,5.296c6.039-2.132,8.116-5.15,12.015-6.644     c3.881-1.487,8.168-0.794,11.33,1.918c1.495,1.282,9.948,14.606,21.721,12.091c6.334-1.353,10.785-7.042,12.266-7.995     c5.323-3.42,12.094-1.414,17.458,1.892C492.599,290.626,499.2,291.92,503.874,289.552z M435.356,311.861     c5.078-1.163,6.327-9.009,6.077-14.195c-0.371-7.672-1.792-8.406-5.255-12.337c-3.309-3.757-8.282-4.319-11.888-1.66     c-15.523,11.447-27.943,7.735-33.806-2.908c-4.458-8.093-12.191-8.953-18.429-3.777c-5.463,4.533-12.989,5.33-17.134,3.755     c-6.803-2.585-12.193-8.522-15.34-14.118c-2.317-4.119-8.554-6.062-16.432-0.295c-1.802,1.319-3.078,3.4-4.103,5.342     c-2.155,4.085-4.495,10.467-2.109,14.928c0.423,0.79,1.007,1.477,1.748,1.985C348.7,309.153,404.656,318.889,435.356,311.861z      M473.24,318.129c8.989,0.487,18.358-2.056,22.511-9.919c2.154-4.078,2.726-8.515,2.616-13.062     c-0.028-1.16-0.483-1.59-1.772-1.574c-1.187,0.015-2.343-0.092-3.444-0.491c-8.761-3.179-7.809-4.587-14.27-5.847     c-3.395-0.662-6.254,0.185-8.598,2.759c-2.051,2.252-4.571,3.923-7.251,5.265c-10.346,5.178-18.113-1.92-18.948-1.624     c-0.718,0.255,1.468,5.79-1.229,14.241c-0.413,1.294-0.408,1.334,0.776,1.89C453.105,314.209,462.789,317.563,473.24,318.129z      M297.311,283.151c4.836,0.374,9.66,0.437,14.496,0.237c1.23-0.051,1.277-0.108,1.371-1.259c0.329-4.049,1.486-7.85,3.3-11.477     c0.387-0.774,1.203-1.394,1.021-2.416c-0.822,0.077-1.644,0.152-2.466,0.232c-7.198,0.698-12.884-1.907-17.057-7.811     c-1.402-1.983-2.615-4.059-3.482-6.349c-1.648-4.355-5.829-5.594-10.487-5.751c-3.911-0.132-9.987,1.618-15.085-0.552     c-1.098-0.467-1.613-0.172-2.158,1.001c-5.571,12-2.336,22.635,10.081,28.845C280.899,279.876,291,282.663,297.311,283.151z      M398.412,324.896c1.608-1.874,5.181-6.599,5.242-6.694c1.373-2.124-0.954-1.21-9.648-2.226     c-41.254-4.819-49.747-13.798-48.598-9.462c1.645,6.213,3.413,13.612,8.904,23.266c1.912,3.361,5.522,8.029,9.491,10.79     C374.468,347.987,389.917,334.797,398.412,324.896z M279.535,283.625c-6.536,5.896-8.734,11.197-9.342,16.877     c-0.684,6.384,7.107,8.123,11.946,8.255c18.81,0.514,32.521-2.229,51.364-7.308c3.543-0.955-3.246-1.669-15.547-9.968     c-4.711-3.178-3.124-5.393-5.502-5.299C284.647,287.275,282.528,280.924,279.535,283.625z M476.239,336.792     c0.632-5.16-1.005-10.301-3.221-14.906c-0.26-0.54-0.651-0.91-1.34-0.963c-2.703-0.209-12.231-1.748-19.466-4.463     c-9.831-3.689-10.858-5.742-12.749-3.689c-0.833,0.904-1.989,1.51-3.258,1.769c-14.906,3.049-19.823,1.636-20.217,2.623     c-0.15,0.376,0.466,0.799,1.236,1.407c11.686,9.225,27.289,19.752,41.381,25.059C469.548,347.75,474.918,347.579,476.239,336.792     z"/>
			<g>
				<path style="fill:#000E3F;" d="M361.793,197.881c4.035-0.117,8.164,2.701,9.023,7.405c1.513,8.279-9.01,12.353-14.543,6.279      C351.823,206.679,354.893,198.081,361.793,197.881z"/>
			</g>
			<g>
				<path style="fill:#000E3F;" d="M430.354,211.594c-3.68-1.66-8.575-0.647-11.177,3.365c-4.581,7.061,3.566,14.868,11.009,11.389      C436.173,223.549,436.646,214.432,430.354,211.594z"/>
			</g>
		</g>
	</g>
	<g>
		<g>
			<path style="fill:#FF8EDE;" d="M86.212,352.302c-1.968-1.044-1.253-0.384-9.841-23.253     c-44.542-118.62-42.864-113.069-42.65-114.253c0.822-4.552,18.097,28.262,71.608,27.074c14.08-0.312,33.636-4.49,50.258-12.871     c17.778-8.964,30.429-21.514,39.094-36.872c4.241-7.516,4.832-10.855,6.19-13.937c0.39-0.883,1.27-0.513,1.347,0.23     c1.005,9.783,9.606,133.348,10.433,143.122c0.152,1.797-0.447,3.117-1.742,4.168c-9.148,7.423-18.424,0.797-47.129,4.177     c-5.984,0.705-7.743,1.431-11.595,1.839c-0.497,0.053-1.045-0.01-1.481,0.183c-2.015,0.888-4.256,0.805-6.285,1.422     c-20.494,6.239-16.011,3.379-44.856,18.032C97.598,352.362,89.614,354.107,86.212,352.302z"/>
			<path style="fill:#FFFFFF;" d="M72.382,259.793c-12.592-2.408-22.956-6.157-23.432-6.303c-1.617-0.497-1.078-0.307-7.892-18.342     c-6.967-18.44-8.131-20.457-6.984-20.743c0.51-0.127,1.001,0.288,2.156,1.493c43.501,45.349,135.969,28.64,161.737-30.347     c2.944-6.74,2.598-7.861,3.515-7.845c1.454,0.026,0.54,0.365,3.649,39.454c0.093,1.164-0.385,1.924-1.144,2.616     c-2.468,2.247-4.903,4.533-7.44,6.701C161.901,256.091,119.322,268.768,72.382,259.793z"/>
			<g>
				<path style="fill:#FC09B2;" d="M157.985,301.396c-3.91-2.668-2.233-7.618,1.675-10.065c6.057-3.792,12.946-3.393,16.27-1.09      C184.85,296.423,167.471,307.871,157.985,301.396z"/>
				<path style="fill:#FC09B2;" d="M125.336,308.555c2.435-4.06-1.16-7.853-5.733-8.44c-7.088-0.91-13.178,2.335-15.234,5.818      C98.854,315.279,119.429,318.405,125.336,308.555z"/>
				<path style="fill:#FC09B2;" d="M60.2,231.899c-15.828-7.564-23.465-17.237-27.324-21.132c-3.352-3.383-3.414-7.891-3.651-13.158      c-3.04-67.643,93.225-94.156,142.648-66.363c22.768,12.804,31.394,34.444,29.492,41.436      c-5.931,21.805-18.867,38.307-36.622,49.876C136.92,240.687,93.98,248.042,60.2,231.899z"/>
			</g>
			<path style="opacity:0.5;fill:#FC09B2;" d="M153.993,331.227c-18.135,3.374-35.634,10.066-51.819,18.914     c-5.805,3.173-15.959,5.335-18.117-0.604c-3.727-10.259-33.305-87.661-32.854-88.237c0.169-0.215,0.452-0.219,0.663-0.09     c13.247,8.156,23.489,21.418,28.467,34.835c4.713,12.703,6.637,20.802,14.44,27.565c13.978,12.116,28.219-7.63,59.579-15.767     c18.913-4.908,44.868-3.6,57.576,13.76c0.911,1.244,0.948,1.693,0.066,2.904c-1.383,1.9-3.402,2.906-5.514,3.731     c-7.301,2.851-16.432,0.721-24.021,0.576C172.865,328.63,163.345,329.487,153.993,331.227z"/>
			<g>
				<path style="fill:#FFCF00;" d="M55.031,127.792l26.2,52.528l22.67,34.592l-34.81-78.158l-4.026-9.039      c-0.729-1.638-0.482-3.522,0.645-4.916c1.125-1.392,2.907-2.026,4.655-1.66l1.37,0.286L60.277,98.73      c-0.348-0.686-1.016-1.098-1.789-1.101c-0.157-0.001-0.31,0.016-0.456,0.048c-0.568,0.125-1.045,0.487-1.321,1.022      l-7.785,15.013c-0.298,0.568-0.301,1.228-0.012,1.815L55.031,127.792z"/>
				<path style="fill:#FFCF00;" d="M79.645,110.072l6.383,14.331l0.887,0.185c1.467,0.31,2.717,1.311,3.347,2.677l38.024,84.264      l-7.665-29.733l-14.528-56.358L89.658,89.013c-0.264-0.574-0.794-1.001-1.414-1.133l-16.549-3.449      c-0.289-0.061-0.575-0.059-0.846,0.001c-0.431,0.094-0.82,0.334-1.116,0.699c-0.483,0.599-0.585,1.375-0.271,2.078      L79.645,110.072z"/>
				<path style="fill:#FFCF00;" d="M162.935,83.994l7.762,48.717l-1.548,30.322l-0.894,17.649l-0.927,18.09l-11.543-89.661      l-1.854-14.383c-0.23-1.779-1.422-3.266-3.112-3.873c-1.599-0.564-3.335-0.216-4.625,0.854l-2.273-14.758      c-0.118-0.76,0.173-1.481,0.813-1.927c0.218-0.176,0.483-0.282,0.744-0.339c0.428-0.094,0.906-0.038,1.321,0.175l15.061,7.671      C162.422,82.823,162.832,83.375,162.935,83.994z"/>
				<path style="fill:#FFCF00;" d="M192.564,82.746c-0.444-0.253-0.938-0.327-1.404-0.225c-0.232,0.051-0.458,0.146-0.668,0.283      l-14.157,9.251c-0.539,0.35-0.866,0.923-0.903,1.577l-0.697,13.686l-5.053,99.209l3.417,9.897      c2.155-1.766,4.22-3.619,6.185-5.565c3.273-3.242,6.268-6.738,8.973-10.485l5.326-115.791      C193.617,83.815,193.236,83.128,192.564,82.746z"/>
				<path style="fill:#FFCF00;" d="M42.12,175.402l-29.719-44.955c-0.424-0.641-1.137-0.972-1.906-0.884      c-0.073,0.008-0.146,0.02-0.216,0.036c-0.659,0.145-1.182,0.594-1.423,1.233l-5.986,15.817c-0.23,0.599-0.157,1.255,0.198,1.804      l7.503,11.471l45.782,69.998c1.232,0.67,2.499,1.333,3.847,1.978c3.537,1.69,7.18,3.108,10.89,4.298      c0.211,0.067,0.423,0.133,0.633,0.199l-29.231-57.73C41.981,177.644,41.858,176.483,42.12,175.402z"/>
				<path style="fill:#FFCF00;" d="M49.399,136.751c-0.35-0.525-0.941-0.864-1.574-0.897l-16.885-0.832      c-0.187-0.01-0.37,0.005-0.543,0.043c-0.537,0.118-0.996,0.453-1.284,0.953c-0.384,0.666-0.364,1.449,0.055,2.094l13.616,20.999      l4.203,6.482l2.563-5.016l0.646-1.263c0.802-1.584,2.416-2.572,4.205-2.577c1.796-0.005,3.423,0.984,4.244,2.579l21.202,41.368      l20.565,40.125c2.673,0.031,5.345-0.037,8.01-0.195c2.23-0.132,4.455-0.325,6.667-0.582l-4.234-9.508L49.399,136.751z"/>
				<path style="fill:#FFCF00;" d="M54.408,159.479c-0.153,0.001-0.302,0.018-0.444,0.049c-0.572,0.126-1.051,0.492-1.326,1.032      l-7.695,15.061c-0.293,0.57-0.294,1.23-0.002,1.813l6.192,12.229l24.194,47.78c3.338,0.894,6.723,1.603,10.139,2.133      c3.914,0.607,7.864,0.998,11.826,1.157l-41.086-80.164C55.854,159.886,55.181,159.477,54.408,159.479z"/>
				<path style="fill:#FFCF00;" d="M137.835,126.043c-0.249-0.035-0.493-0.025-0.723,0.025c-0.472,0.104-0.89,0.378-1.182,0.795      l-9.737,13.826c-0.372,0.524-0.464,1.177-0.258,1.797l4.408,12.977l24.683,72.665c2.37-1.199,4.674-2.462,6.886-3.799      c0.959-0.579,1.905-1.169,2.831-1.772c2.099-1.367,4.123-2.809,6.083-4.314l-31.365-90.869      C139.208,126.648,138.601,126.15,137.835,126.043z"/>
				<path style="fill:#FFCF00;" d="M86.352,127.271l-16.548-3.45c-0.289-0.061-0.577-0.059-0.847,0      c-0.429,0.094-0.818,0.334-1.114,0.699c-0.483,0.599-0.585,1.375-0.271,2.078l10.183,22.862l40.176,90.207      c3.468-0.488,6.904-1.126,10.286-1.903c2.687-0.617,5.335-1.331,7.943-2.119L87.767,128.402      C87.504,127.829,86.973,127.402,86.352,127.271z"/>
				<path style="fill:#FFCF00;" d="M151.217,95.082l11.892,92.423l-8.608-24.918l-4.458-12.946l-7.998-23.159      c-0.581-1.701-2.048-2.903-3.836-3.154c-0.431-0.065-0.88-0.063-1.3-0.003l-0.328-2.591l-0.111-0.874l-1.572-12.729      c-0.076-0.641,0.155-1.269,0.62-1.708l12.336-11.56c0.281-0.254,0.597-0.419,0.934-0.493c0.352-0.077,0.743-0.051,1.108,0.077      C150.627,93.704,151.114,94.318,151.217,95.082z"/>
				<path style="fill:#FFCF00;" d="M123.336,143.361c-0.164-0.489-0.216-0.992-0.219-1.494c-0.005-0.981,0.261-1.952,0.837-2.761      l5.07-7.199l-9.329-35.465c-0.197-0.742-0.766-1.285-1.521-1.449c-0.296-0.064-0.59-0.063-0.867-0.003      c-0.421,0.092-0.803,0.324-1.094,0.678l-10.749,13.056c-0.41,0.494-0.551,1.138-0.39,1.77l3.192,12.416l0.22,0.855      l26.398,102.385l3.913,8.671c3.474-1.137,6.858-2.423,10.135-3.839c1.22-0.527,2.424-1.072,3.612-1.636l-27.566-81.153      L123.336,143.361z"/>
			</g>
			<g style="opacity:0.5;">
				<path style="fill:#FD8A02;" d="M55.031,127.792l26.2,52.528l22.67,34.592l-34.81-78.158      C63.905,130.546,58.847,128.383,55.031,127.792z"/>
				<path style="fill:#FD8A02;" d="M100.794,133.398c-7.215-18.158-15.854-22.539-21.149-23.326l6.383,14.331l0.887,0.185      c1.467,0.31,2.717,1.311,3.347,2.677l38.024,84.264l-7.665-29.733C112.042,164.494,105.434,145.067,100.794,133.398z"/>
				<path style="fill:#FD8A02;" d="M164.304,131.354c1.813,9.805,3.362,18.625,4.845,31.679l-0.894,17.649l-0.927,18.09      l-11.543-89.661C160.782,112.877,162.508,121.626,164.304,131.354z"/>
				<path style="fill:#FD8A02;" d="M182.981,138.162c1.821-18.829-3.584-27.171-8.246-30.844l-5.053,99.209l3.417,9.897      c2.155-1.766,4.22-3.619,6.185-5.565C176.292,186.501,181.327,155.282,182.981,138.162z"/>
				<path style="fill:#FD8A02;" d="M154.502,162.587l-4.458-12.946l-7.998-23.159c-0.581-1.701-2.048-2.903-3.836-3.154      c-0.431-0.065-0.88-0.063-1.3-0.003l-0.328-2.591C143.013,121.682,156.971,131.197,154.502,162.587z"/>
				<path style="fill:#FD8A02;" d="M10.57,159.923l45.782,69.998c1.232,0.67,2.499,1.333,3.847,1.978      c3.537,1.69,7.18,3.108,10.89,4.298c-14.968-17.844-27.667-42.647-35.684-56.213C25.783,163.699,16.501,160.143,10.57,159.923z"/>
				<path style="fill:#FD8A02;" d="M79.847,200.684l20.565,40.125c2.673,0.031,5.345-0.037,8.01-0.195      C97.796,229.917,87.935,214.475,79.847,200.684z"/>
				<path style="fill:#FD8A02;" d="M49.55,160.578c-2.627-1.14-4.925-1.482-6.766-1.466l4.203,6.482L49.55,160.578z"/>
				<path style="fill:#FD8A02;" d="M125.573,150.743c-0.187-0.89-0.392-1.716-0.595-2.55l-1.641-4.832      c-0.164-0.489-0.216-0.992-0.219-1.494c-4.143-11.775-10.088-16.374-14.63-18.102l26.398,102.385l3.913,8.671      c3.474-1.137,6.858-2.423,10.135-3.839C135.053,209.034,129.658,170.211,125.573,150.743z"/>
				<path style="fill:#FD8A02;" d="M73.606,212.341c-7.769-17.248-16.602-21.805-22.473-22.678l24.194,47.78      c3.338,0.894,6.723,1.603,10.139,2.133C80.732,229.137,76.763,219.347,73.606,212.341z"/>
				<path style="fill:#FD8A02;" d="M149.398,181.08c-5.263-18.171-13.367-23.926-19.056-25.617l24.683,72.665      c2.37-1.199,4.674-2.462,6.886-3.799C156.39,208.176,152.468,191.675,149.398,181.08z"/>
				<path style="fill:#FD8A02;" d="M98.903,172.788c-7.215-18.159-15.853-22.539-21.149-23.327l40.176,90.207      c3.468-0.488,6.904-1.126,10.286-1.903C114.895,218.05,105.129,188.442,98.903,172.788z"/>
			</g>
			<g style="opacity:0.75;">
				<path style="fill:#FFFFFF;" d="M189.093,98.197c0.207,4.54,0.189,10.509-0.064,14.465c-0.193,2.992-4.654,2.877-4.7-0.121      c-0.063-4.983,0.402-14.14,1.34-19.254c0.152-0.828,0.947-1.377,1.775-1.225C188.887,92.326,188.795,93.571,189.093,98.197z"/>
				<path style="fill:#FFFFFF;" d="M149.763,105.083c0.746,4.287,1.445,9.988,1.667,13.808c0.173,2.977-4.255,3.438-4.679,0.46      c-0.658-4.741-1.292-13.55-0.973-18.535c0.054-0.841,0.779-1.479,1.62-1.426C148.844,99.484,148.921,100.733,149.763,105.083z"/>
				<path style="fill:#FFFFFF;" d="M86.682,91.783c2.999,4.652,7.094,13.255,8.982,17.906c1.129,2.775-2.946,4.619-4.286,1.928      c-2.244-4.528-5.952-13.269-7.444-18.597c-0.226-0.811,0.246-1.651,1.057-1.878C85.649,90.957,86.329,91.237,86.682,91.783z"/>
				<path style="fill:#FFFFFF;" d="M118.159,110.23c1.699,4.545,3.704,10.732,4.806,14.938c0.761,2.902-3.528,4.201-4.502,1.351      c-1.73-5.099-4.375-14.7-5.206-20.279c-0.124-0.831,0.449-1.606,1.28-1.73C116.155,104.27,116.527,106.076,118.159,110.23z"/>
				<path style="fill:#FFFFFF;" d="M139.063,142.677c1.626,3.585,3.531,8.482,4.566,11.824c0.882,2.848-3.288,4.345-4.426,1.586      c-1.583-3.872-4.121-11.536-4.906-16.189c-0.14-0.833,0.421-1.623,1.254-1.763C137.03,137.886,137.487,139.387,139.063,142.677z      "/>
				<path style="fill:#FFFFFF;" d="M85.904,136.026c1.901,3.772,4.157,8.885,5.432,12.386c1.022,2.805-3.085,4.507-4.346,1.79      c-1.894-4.111-4.968-12.103-6.084-16.992c-0.187-0.822,0.327-1.641,1.149-1.829C83.564,131.035,84.109,132.634,85.904,136.026z"/>
				<path style="fill:#FFFFFF;" d="M63.931,117.348c1.044,2.765-2.956,4.524-4.297,1.907c-1.234-2.404-2.75-6.157-3.7-9.093      c-0.611-2.08-1.689-4.617,0.388-5.018C58.531,104.717,63.109,115.172,63.931,117.348z"/>
				<path style="fill:#FFFFFF;" d="M48.372,142.852c1.994,2.7,4.36,6.389,5.725,8.968c1.382,2.609-2.372,4.869-4.034,2.413      c-1.319-1.964-2.474-4.027-3.592-6.112c-1.043-1.874-2.333-4.645-2.963-6.488c-0.275-0.805,0.155-1.68,0.96-1.956      C45.83,139.21,46.637,140.621,48.372,142.852z"/>
				<path style="fill:#FFFFFF;" d="M55.038,170.234c2.701,3.533,6.521,10.485,8.306,14.402c1.233,2.705-2.701,4.731-4.187,2.139      c-2.046-3.601-5.46-10.71-6.801-15.171c-0.244-0.81,0.215-1.663,1.025-1.907C54.007,169.508,54.662,169.744,55.038,170.234z"/>
				<path style="fill:#FFFFFF;" d="M15.263,143.812c2.896,3.223,6.481,7.642,8.683,10.745c1.731,2.441-1.792,5.16-3.721,2.873      c-2.955-3.526-8.146-10.574-10.583-15.094c-0.4-0.742-0.123-1.668,0.619-2.068C11.531,139.584,12.247,140.585,15.263,143.812z"/>
				<path style="fill:#FFFFFF;" d="M160.766,91.176c0.899,4.099,1.792,9.523,2.144,13.147c0.288,2.974-4.11,3.59-4.656,0.65      c-0.823-4.518-1.76-12.894-1.617-17.703c0.026-0.844,0.73-1.507,1.573-1.481C159.764,85.835,159.902,87.589,160.766,91.176z"/>
			</g>
		</g>
		<g>
			<path style="fill:#000E3F;" d="M111.161,280.242c-3.817,0.883-6.069,4.469-5.282,8.292c0.728,3.538,4.63,6.1,8.419,5.194     c3.75-0.897,6.077-4.405,5.194-8.382C118.67,281.556,115.056,279.341,111.161,280.242z"/>
			<path style="fill:#000E3F;" d="M158.868,269.777c-4.555,1.104-5.92,5.233-5.376,8.304c0.603,3.408,4.738,6.142,8.136,5.303     C171.095,281.048,167.547,267.673,158.868,269.777z"/>
			<path style="fill:#000E3F;" d="M144.884,279.434c-0.774,0.276-1.178,1.128-0.902,1.902c1.626,4.55,1.126,8.815-1.336,11.408     c-1.731,1.824-4.133,2.507-6.427,1.818c-3.356-1.008-5.836-4.712-6.808-10.164c-0.145-0.809-0.918-1.348-1.726-1.204     c-0.828,0.163-1.348,0.917-1.205,1.726c1.176,6.598,4.413,11.151,8.883,12.493c1.501,0.452,3.06,0.496,4.548,0.17     c1.816-0.398,3.527-1.35,4.894-2.788c3.252-3.424,3.994-8.829,1.982-14.46C146.51,279.561,145.642,279.163,144.884,279.434z"/>
			<path style="fill:#000E3F;" d="M193.917,80.361c-1.556-0.878-3.451-0.815-4.925,0.149l-14.158,9.248     c-1.248,0.82-2.053,2.199-2.135,3.725l-1.336,26.024l-5.731-35.945c-0.246-1.486-1.189-2.787-2.526-3.472l-15.061-7.67     c-1.592-0.822-3.467-0.668-4.923,0.374c-1.453,1.056-2.192,2.806-1.916,4.575l2.559,16.572l-10.112,9.484     c-1.109,1.013-1.644,2.526-1.474,4.029l1.289,10.417c-1.801-0.167-3.592-0.287-5.385-0.343l-5.738-21.778     c-0.462-1.743-1.826-3.064-3.592-3.431c-1.753-0.386-3.527,0.228-4.651,1.613l-10.76,13.043     c-0.785,0.958-1.125,2.188-1.031,3.419L92.158,87.867c-0.633-1.352-1.882-2.363-3.344-2.667l-16.56-3.46     c-1.745-0.355-3.532,0.277-4.656,1.663c-1.121,1.401-1.365,3.284-0.637,4.921l15.747,35.384l-7.532-1.573L62.731,97.496     c-0.816-1.601-2.433-2.611-4.231-2.618c-1.795,0.009-3.413,0.973-4.22,2.562l-7.794,15.008c-0.688,1.322-0.706,2.93-0.037,4.291     l11.678,23.411c-0.713,0.557-1.421,1.13-2.114,1.699l-4.321-6.608c-0.838-1.26-2.229-2.045-3.721-2.119l-16.898-0.835     c-1.77-0.094-3.446,0.82-4.343,2.364c-0.897,1.544-0.846,3.458,0.141,4.958l12.724,19.621c-0.875,1.202-1.701,2.41-2.475,3.638     l-22.44-33.932c-0.987-1.501-2.716-2.293-4.501-2.093c-1.8,0.202-3.263,1.357-3.894,3.019l-5.982,15.813     c-0.527,1.4-0.369,3.001,0.457,4.279l26.4,40.363c-0.565,6.059,0.017,12.076,1.894,17.857     c4.433,13.706,18.733,50.755,23.033,62.1c10.205,26.862,20.395,53.728,30.366,80.689c1.656,4.481,8.663,4.758,13.343,3.716     c10.175-2.247,19.049-12.839,50.458-19.358c6.365-1.332,12.649-3.11,19.17-3.658c28.162-2.374,29.585,1.116,38.446-0.682     c5.298-1.082,12.059-4.778,10.674-9.993c-0.037-0.169-0.043-0.344-0.061-0.5c-1.637-22.901-3.255-45.791-4.876-68.696     c-1.114-15.909-2.232-31.834-3.38-47.753c-2.439-34.244-1.687-42.735-12.795-56.742l2.88-62.585     C196.401,82.913,195.477,81.254,193.917,80.361z M143.921,76.95c-0.118-0.76,0.173-1.481,0.813-1.927     c0.218-0.176,0.483-0.282,0.744-0.339c0.428-0.094,0.906-0.038,1.321,0.175l15.061,7.671c0.562,0.294,0.972,0.845,1.076,1.465     l7.056,44.252l0.504,3.178l0.201,1.287l-2.442,47.971l-0.927,18.09l-9.39-72.968l-0.372-2.87l-1.78-13.823l-1.854-14.383     c-0.23-1.779-1.422-3.266-3.112-3.873c-1.599-0.564-3.335-0.216-4.625,0.854L143.921,76.95z M154.756,227.324l-24.418-71.855     l-4.405-12.99c-0.199-0.614-0.115-1.259,0.265-1.791l9.737-13.83c0.278-0.413,0.7-0.683,1.175-0.787     c0.229-0.05,0.484-0.058,0.731-0.032c0.761,0.106,1.37,0.614,1.623,1.329l31.088,90.059     C165.701,221.203,160.408,224.497,154.756,227.324z M134.898,107.13c-0.076-0.641,0.155-1.269,0.62-1.708l12.336-11.56     c0.281-0.254,0.597-0.419,0.934-0.493c0.352-0.077,0.743-0.051,1.108,0.077c0.73,0.257,1.217,0.872,1.321,1.636l3.464,26.913     l0.366,2.839l8.063,62.672l-13.066-37.864l-7.998-23.159c-0.581-1.701-2.048-2.903-3.836-3.154     c-0.431-0.065-0.88-0.063-1.3-0.003l-0.309-2.435l-0.019-0.156l-0.111-0.874l-0.213-1.702L134.898,107.13z M133.81,120.603     l0.489,3.983c-0.227,0.21-0.431,0.448-0.617,0.697l-2.59,3.697l-2.297-8.72C130.461,120.327,132.141,120.456,133.81,120.603z      M105.458,108.725l10.756-13.059c0.292-0.352,0.675-0.58,1.088-0.671c0.276-0.06,0.58-0.063,0.867,0.002     c0.756,0.155,1.325,0.704,1.52,1.447l5.521,21.007l0.723,2.713l3.087,11.74l-5.061,7.205c-0.578,0.8-0.846,1.774-0.84,2.751     c0.001,0.513,0.062,1.013,0.215,1.493l1.638,4.839l27.285,80.322c-4.406,2.073-9.048,3.877-13.864,5.398l-3.515-7.763     l-26.395-102.382l-0.218-0.85l-0.417-1.609l-0.642-2.49l-2.13-8.324C104.905,109.857,105.052,109.215,105.458,108.725z      M79.637,110.072L69.46,87.214c-0.314-0.701-0.212-1.478,0.281-2.083c0.288-0.368,0.671-0.596,1.115-0.693     c0.26-0.057,0.546-0.072,0.833-0.006l16.556,3.444c0.623,0.136,1.15,0.566,1.404,1.136l13.761,30.494l1.064,2.366l1.618,3.575     l14.521,56.347l7.676,29.743l-38.032-84.27c-0.221-0.498-0.546-0.955-0.919-1.339c-0.661-0.674-1.503-1.146-2.428-1.344     l-0.722-0.147l-0.015,0.003l-0.152-0.031L79.637,110.072z M81.621,126.288l4.388,0.915l0.336,0.071     c0.623,0.136,1.163,0.547,1.42,1.133l47.987,106.326c-5.231,1.532-10.67,2.773-16.299,3.734     c-0.633,0.108-1.283,0.218-1.921,0.309l-39.779-89.309l-6.634-14.892l-1.081-2.442l-2.465-5.539     c-0.314-0.701-0.212-1.478,0.269-2.064c0.304-0.371,0.684-0.615,1.112-0.709c0.276-0.061,0.565-0.06,0.852,0.005L81.621,126.288z      M55.032,127.787l-6.122-12.261c-0.287-0.578-0.287-1.236,0.019-1.817l7.779-15.004c0.282-0.544,0.748-0.902,1.331-1.03     c0.137-0.03,0.293-0.049,0.453-0.052c0.772,0.008,1.441,0.422,1.782,1.101l11.459,22.705l-1.364-0.295     c-1.75-0.371-3.532,0.277-4.656,1.662c-1.123,1.385-1.381,3.286-0.653,4.924l2.591,5.816l0.015-0.003l1.106,2.485l0.321,0.732     l34.816,78.157l-22.679-34.586l-19.613-39.333l-1.261-2.531L55.032,127.787z M59.41,142.708l8.991,18.033l-10.823-16.508     C58.172,143.718,58.799,143.211,59.41,142.708z M29.173,138.108c-0.429-0.644-0.441-1.427-0.057-2.089     c0.292-0.496,0.747-0.837,1.283-0.955c0.168-0.037,0.359-0.047,0.538-0.037l16.895,0.819c0.618,0.041,1.221,0.374,1.562,0.909     l4.507,6.872l1.588,2.411l55.371,84.478l3.851,8.636c-4.881,0.637-9.794,0.912-14.716,0.853l-20.157-39.326l-21.197-41.36     c-0.816-1.601-2.445-2.592-4.24-2.583c-1.795,0.009-3.408,0.989-4.2,2.574l-0.652,1.266l-2.557,5.021l-3.897-5.995l-0.316-0.492     l-1.433-2.22L29.173,138.108z M74.815,236.447L51.13,189.665l-6.194-12.229c-0.288-0.579-0.29-1.252,0.003-1.814l7.701-15.067     c0.267-0.54,0.749-0.902,1.331-1.03c0.138-0.03,0.278-0.045,0.438-0.048c0.772,0.008,1.452,0.404,1.797,1.098l40.674,79.343     C89.399,239.601,81.98,238.469,74.815,236.447z M41.396,162.026l4.144,6.391l-2.061,4.061l-4.461-6.738     C39.769,164.484,40.558,163.252,41.396,162.026z M10.57,159.93l-7.506-11.476c-0.345-0.55-0.425-1.206-0.186-1.805l5.98-15.813     c0.244-0.646,0.755-1.095,1.413-1.24c0.076-0.017,0.153-0.034,0.218-0.032c0.782-0.091,1.479,0.237,1.909,0.881l23.142,35.014     l1.969,2.985l4.607,6.962c-0.26,1.084-0.134,2.243,0.377,3.254l28.693,56.672c-5.495-1.795-10.834-4.121-15.904-7.052     l-0.018-0.012L30.48,190.375l-2.774-4.237L10.57,159.93z M30.537,202.779c-0.322-2.641-0.429-5.247-0.357-7.846l19.499,29.813     C41.698,219.148,31.362,209.544,30.537,202.779z M211.77,321.051c0.703,6.423-9.41,7.935-15.697,7.501     c-17.763-1.19-36.063-0.739-58.2,5.558c-20.186,5.758-26.367,10.707-37.837,16.045c-3.828,1.786-13.074,4.76-15.179-0.891     c-7.208-19.338-49.599-131.463-49.474-132.646c3.447,2.116,6.305,5.42,9.496,7.896c31.216,24.212,76.748,22.41,110.028,5.84     c38.213-19.015,44.594-48.807,46.422-50.123C201.763,181.035,211.117,315.291,211.77,321.051z M200.321,173.363     c-2.303,7.563-5.325,14.418-9.022,20.602l1.933-42.324C199.467,160.685,201.57,169.255,200.321,173.363z M193.577,84.591     l-2.744,59.619l-0.173,3.969l-2.312,50.397c-4.435,6.475-9.642,12.14-15.529,17.04l-3.13-9.083l3.735-73.392l0.146-2.919     l1.169-22.907l0.691-13.675c0.031-0.664,0.371-1.236,0.906-1.578l14.155-9.263c0.213-0.128,0.433-0.223,0.677-0.277     c0.46-0.101,0.955-0.033,1.397,0.223C193.239,83.124,193.615,83.813,193.577,84.591z"/>
		</g>
	</g>
	<g>
		<path style="fill:#FD8A02;" d="M266.801,176.4l-10.642-1.588c-0.679-0.101-1.365,0.138-1.834,0.64l-7.341,7.866    c-1.18,1.265-3.298,0.627-3.584-1.079l-1.778-10.612c-0.113-0.677-0.553-1.256-1.175-1.546l-9.75-4.551    c-1.567-0.732-1.615-2.943-0.081-3.742l9.543-4.97c0.609-0.317,1.023-0.914,1.107-1.596l1.315-10.679    c0.212-1.717,2.3-2.446,3.534-1.234l7.676,7.54c0.49,0.481,1.185,0.691,1.86,0.56l10.563-2.049    c1.698-0.329,3.037,1.431,2.265,2.979l-4.799,9.63c-0.306,0.615-0.291,1.341,0.042,1.942l5.213,9.413    C269.772,174.838,268.511,176.655,266.801,176.4z"/>
		<path style="fill:#FD8A02;" d="M342.462,138.616l-9.056-2.891c-0.578-0.184-1.21-0.073-1.69,0.299l-7.515,5.821    c-1.208,0.936-2.965,0.08-2.973-1.448l-0.049-9.506c-0.003-0.607-0.305-1.173-0.806-1.515l-7.858-5.349    c-1.263-0.86-0.992-2.795,0.459-3.274l9.026-2.984c0.576-0.191,1.021-0.652,1.191-1.235l2.659-9.127    c0.427-1.467,2.352-1.807,3.256-0.576l5.627,7.662c0.359,0.489,0.936,0.77,1.543,0.751l9.501-0.292    c1.527-0.047,2.445,1.678,1.554,2.919l-5.548,7.719c-0.354,0.493-0.443,1.128-0.238,1.699l3.214,8.946    C345.274,137.674,343.918,139.08,342.462,138.616z"/>
		<path style="fill:#FD8A02;" d="M284.486,110.617l-8.168-1.094c-0.521-0.07-1.044,0.121-1.397,0.511l-5.532,6.109    c-0.889,0.982-2.518,0.518-2.757-0.785l-1.484-8.106c-0.095-0.517-0.438-0.955-0.918-1.17l-7.519-3.373    c-1.209-0.542-1.271-2.235-0.105-2.865l7.251-3.916c0.463-0.25,0.773-0.712,0.829-1.235l0.885-8.193    c0.142-1.317,1.733-1.899,2.692-0.985l5.965,5.686c0.381,0.363,0.916,0.515,1.431,0.408l8.066-1.691    c1.297-0.272,2.342,1.061,1.769,2.256l-3.564,7.43c-0.227,0.474-0.207,1.03,0.055,1.487l4.1,7.149    C286.744,109.387,285.799,110.793,284.486,110.617z"/>
		<path style="fill:#FD8A02;" d="M223.28,439.493l7.618-7.599c0.486-0.485,1.18-0.7,1.855-0.574l10.578,1.968    c1.701,0.316,3.025-1.455,2.242-2.997l-4.873-9.593c-0.311-0.612-0.301-1.339,0.027-1.942l5.14-9.453    c0.826-1.519-0.449-3.327-2.157-3.058l-10.63,1.67c-0.679,0.107-1.366-0.127-1.838-0.626l-7.402-7.81    c-1.19-1.255-3.302-0.601-3.575,1.106l-1.696,10.625c-0.108,0.678-0.543,1.26-1.163,1.555l-9.715,4.626    c-1.561,0.744-1.593,2.955-0.052,3.742l9.581,4.897c0.611,0.312,1.03,0.906,1.119,1.587l1.398,10.669    C219.962,440.002,222.055,440.715,223.28,439.493z"/>
		<path style="fill:#FD8A02;" d="M119.12,422.75l4.907-8.142c0.313-0.52,0.862-0.852,1.468-0.889l9.489-0.574    c1.525-0.092,2.283-1.893,1.282-3.048l-6.227-7.182c-0.398-0.459-0.544-1.083-0.392-1.671l2.387-9.202    c0.384-1.479-1.095-2.756-2.503-2.161l-8.755,3.703c-0.559,0.236-1.198,0.183-1.71-0.144l-8.014-5.113    c-1.288-0.822-2.96,0.19-2.828,1.712l0.816,9.471c0.052,0.604-0.197,1.196-0.665,1.582l-7.339,6.041    c-1.18,0.971-0.734,2.873,0.755,3.219l9.259,2.151c0.591,0.137,1.077,0.556,1.299,1.121l3.478,8.847    C116.384,423.895,118.332,424.058,119.12,422.75z"/>
		<path style="fill:#FD8A02;" d="M176.959,387.737l5.419-6.209c0.346-0.396,0.865-0.597,1.387-0.537l8.187,0.944    c1.316,0.152,2.235-1.271,1.555-2.408l-4.23-7.072c-0.27-0.451-0.301-1.007-0.082-1.485l3.428-7.494    c0.551-1.205-0.518-2.518-1.81-2.223l-8.034,1.838c-0.513,0.117-1.05-0.025-1.438-0.381l-6.068-5.576    c-0.976-0.896-2.555-0.285-2.673,1.035l-0.735,8.208c-0.047,0.524-0.349,0.991-0.807,1.25l-7.178,4.048    c-1.154,0.651-1.061,2.342,0.158,2.862l7.579,3.235c0.484,0.206,0.835,0.638,0.939,1.153l1.632,8.078    C174.451,388.301,176.088,388.736,176.959,387.737z"/>
	</g>
</g>















</svg>
