<?xml version="1.0" encoding="UTF-8"?>
<!-- Generator: Adobe Illustrator 25.2.1, SVG Export Plug-In . SVG Version: 6.00 Build 0)  -->
<svg xmlns="http://www.w3.org/2000/svg" xmlns:xlink="http://www.w3.org/1999/xlink" version="1.1" id="Capa_1" x="0px" y="0px" viewBox="0 0 512 512" style="enable-background:new 0 0 512 512;" xml:space="preserve" width="512" height="512">
<g>
	<g>
		<g>
			<path style="fill:#DB5E43;" d="M215.097,56.678c111.329-15.879,220.135,64.562,232.383,182.535     c2.251,21.679,0.685,42.751-1.628,53.674c-0.615,2.903-0.416,5.97-1.242,8.868c-4.122,14.458-8.166,40.17-32.713,76.273     c-21.025,30.923-53.412,57.847-92.48,73.672c-12.586,5.098-26.15,8.599-27.895,8.874c-1.941,0.306-2.006-0.279-3.772-7.658     c-4.712-19.689-44.307-184.482-44.984-186.419c-0.372-1.062-1.306-1.188-2.112-0.299     c-1.384,1.527-115.133,155.796-118.151,159.397c-1.22,1.457-2.536,0.287-4.037-0.847     C-25.181,316.166,30.364,83.026,215.097,56.678z"/>
			<path style="fill:#FFCF00;" d="M384.341,371.564c-46.39,54.791-95.225,57.618-99.136,63.192     c-0.523,0.746-1.501,0.421-1.797-0.482c-0.824-2.514-40.111-168.136-41.407-168.454c-1.885-0.464-2.561,1.845-3.509,3.111     c-30.834,41.181-78.507,106.429-91.197,122.964c-10.968,14.291-8.933,15.583-13.802,12.02     c-64.1-46.899-87.945-126.979-64.813-197.402c55.119-167.807,300.239-171.293,350.882,3.361     c5.879,20.274,8.253,46.388,4.871,70.79C420.844,306.558,404.342,347.941,384.341,371.564z"/>
			<g>
				<g>
					<path style="fill:#FC09B2;" d="M210.606,155.669c-6.121-4.365-6.406-10.233-2.568-13.601       c11.278-9.896,38.207,1.043,30.589,12.931C234.923,160.78,220.365,162.628,210.606,155.669z"/>
				</g>
				<g>
					<path style="fill:#FC09B2;" d="M313.272,176.486c7.338-1.636,9.886-6.93,7.663-11.526c-6.533-13.507-35.596-13.921-33.21-0.005       C288.884,171.721,301.573,179.094,313.272,176.486z"/>
				</g>
				<path style="fill:#FC09B2;" d="M162.983,228.788c-2.24,11.05-9.567,19.833-19.261,24.649c-7.43,3.675-16.222,4.993-25.132,3.187      c-20.563-4.169-34.007-23.388-30.046-42.928c3.688-18.192,21.149-30.247,40.136-28.456c1.429,0.12,2.839,0.333,4.258,0.621      C153.478,190.025,166.945,209.249,162.983,228.788z"/>
				<path style="fill:#FC09B2;" d="M363.037,366.012c-2.24,11.049-9.568,19.833-19.262,24.648      c-7.43,3.675-16.222,4.993-25.132,3.187c-20.563-4.169-34.008-23.388-30.046-42.928c3.689-18.192,21.149-30.247,40.135-28.456      c1.429,0.12,2.839,0.333,4.258,0.621C353.532,327.249,366.999,346.472,363.037,366.012z"/>
				<path style="fill:#FC09B2;" d="M394.922,217.269c-2.24,11.049-9.567,19.833-19.261,24.648      c-7.43,3.675-16.222,4.993-25.132,3.187c-20.563-4.169-34.007-23.388-30.046-42.928c3.688-18.192,21.148-30.247,40.135-28.456      c1.429,0.12,2.839,0.333,4.258,0.621C385.417,178.506,398.883,197.729,394.922,217.269z"/>
			</g>
			<g>
				<g>
					<path style="fill-rule:evenodd;clip-rule:evenodd;fill:#DB5E43;" d="M264.603,226.214c2.743,7.624,8.125,13.456-7.137,18.246       c-23.304,7.274-18.665-5.07-22.846-11.857c-0.755-1.247-11.377,0.351-16.782-10.244c-1.889-3.7-2.314-8.024-1.689-12.394       c0.326-2.209,0.896-4.42,1.693-6.551c1.143-3.154,2.757-6.144,4.669-8.725c0.165-0.21,0.312-0.423,0.492-0.63       c13.343-17.074,42.689-17.063,52.124,4.143c4.257,9.581,1.417,19.477-4.834,24.617c-0.395,0.32-0.783,0.605-1.147,0.861       c-0.789,0.552-1.611,1.01-2.49,1.405c-0.077,0.036-0.154,0.073-0.231,0.109c-0.077,0.037-0.15,0.056-0.223,0.077       c-0.114,0.046-0.227,0.092-0.341,0.138c-0.133,0.06-0.264,0.103-0.375,0.133c-0.043,0.043-0.1,0.067-0.153,0.073       c-0.037,0.009-0.057,0.023-0.094,0.033c-0.074,0.02-0.147,0.04-0.203,0.063c-0.054,0.007-0.128,0.027-0.17,0.07       c-0.038,0.01-0.098,0.05-0.141,0.092c-0.016-0.003-0.04,0.027-0.06,0.04C264.58,225.984,264.56,226.084,264.603,226.214z"/>
				</g>
				<path style="fill-rule:evenodd;clip-rule:evenodd;fill:#DB5E43;" d="M128.065,346.137c-4.501,6.738-5.991,14.533-18.915,5.106      c-19.702-14.415-7.019-18.023-4.046-25.419c0.554-1.348-7.045-8.94-1.738-19.585c1.853-3.718,5.076-6.63,8.962-8.726      c1.97-1.05,4.087-1.907,6.274-2.533c3.216-0.956,6.579-1.436,9.792-1.432c0.267,0.008,0.525,0,0.799,0.021      c21.662,0.581,39.097,24.184,27.654,44.378c-5.174,9.119-14.819,12.718-22.669,10.746c-0.492-0.128-0.952-0.269-1.374-0.411      c-0.913-0.307-1.771-0.695-2.611-1.167c-0.075-0.04-0.15-0.08-0.225-0.12c-0.075-0.04-0.134-0.087-0.194-0.134      c-0.105-0.064-0.209-0.128-0.314-0.192c-0.128-0.072-0.24-0.151-0.329-0.222c-0.06-0.009-0.113-0.041-0.15-0.079      c-0.03-0.025-0.053-0.032-0.082-0.056c-0.06-0.047-0.12-0.095-0.172-0.126c-0.037-0.039-0.097-0.087-0.157-0.095      c-0.031-0.024-0.098-0.049-0.158-0.058c-0.007-0.015-0.046-0.016-0.068-0.024C128.237,345.981,128.144,346.024,128.065,346.137z      "/>
				<g>
					<path style="fill-rule:evenodd;clip-rule:evenodd;fill:#DB5E43;" d="M356.711,298.321c-7.943-1.602-15.719-0.018-11.912-15.555       c5.846-23.702,14.003-13.341,21.974-13.403c1.457,0,5.592-9.914,17.455-9.051c4.143,0.301,8.062,2.176,11.477,4.974       c1.72,1.423,3.317,3.056,4.728,4.841c2.106,2.611,3.828,5.54,5.046,8.513c0.094,0.25,0.2,0.486,0.283,0.747       c7.695,20.257-7.512,45.355-30.539,42.444c-10.401-1.32-17.396-8.874-18.555-16.884c-0.069-0.503-0.113-0.983-0.143-1.427       c-0.064-0.961-0.03-1.902,0.088-2.858c0.009-0.084,0.017-0.169,0.026-0.254c0.008-0.085,0.03-0.157,0.05-0.231       c0.019-0.121,0.039-0.242,0.058-0.363c0.018-0.145,0.049-0.28,0.08-0.389c-0.014-0.06-0.005-0.12,0.017-0.169       c0.012-0.037,0.01-0.061,0.021-0.097c0.021-0.073,0.042-0.147,0.052-0.207c0.022-0.05,0.043-0.123,0.028-0.182       c0.011-0.037,0.008-0.109-0.006-0.168c0.011-0.012-0.003-0.048-0.004-0.072C356.92,298.421,356.844,298.351,356.711,298.321z"/>
				</g>
			</g>
			<g>
				<path style="fill:#FF8EDE;" d="M136.739,211.903c-0.673,3.319,1.819,6.625,5.566,7.385c3.747,0.76,7.33-1.315,8.003-4.634      s-1.819-6.625-5.566-7.385C140.995,206.509,137.412,208.584,136.739,211.903z"/>
				<path style="fill:#FF8EDE;" d="M99.256,227.376c-0.673,3.319,1.819,6.625,5.566,7.385c3.747,0.76,7.33-1.315,8.003-4.634      c0.673-3.319-1.819-6.625-5.566-7.385C103.512,221.983,99.929,224.057,99.256,227.376z"/>
				<path style="fill:#FF8EDE;" d="M118.698,240.123c-0.673,3.319,1.819,6.625,5.567,7.385c3.747,0.76,7.33-1.315,8.003-4.634      c0.673-3.319-1.819-6.625-5.566-7.385C122.954,234.73,119.371,236.804,118.698,240.123z"/>
				<path style="fill:#FF8EDE;" d="M118.98,198.162c-0.673,3.319,1.819,6.625,5.566,7.385c3.747,0.76,7.33-1.315,8.003-4.634      c0.673-3.319-1.819-6.625-5.566-7.385C123.236,192.768,119.653,194.843,118.98,198.162z"/>
				<path style="fill:#FF8EDE;" d="M120.032,219.606c-0.618,3.05,1.484,6.05,4.696,6.701c3.212,0.651,6.317-1.293,6.935-4.343      c0.618-3.049-1.484-6.049-4.696-6.701C123.756,214.612,120.651,216.557,120.032,219.606z"/>
				<path style="fill:#FF8EDE;" d="M138.811,233.358c-0.618,3.05,1.484,6.05,4.696,6.701c3.212,0.651,6.317-1.293,6.935-4.343      c0.618-3.049-1.484-6.049-4.696-6.701C142.534,228.364,139.43,230.309,138.811,233.358z"/>
				<path style="fill:#FF8EDE;" d="M96.894,209.166c-0.618,3.049,1.484,6.049,4.696,6.701c3.212,0.651,6.317-1.293,6.935-4.342      c0.618-3.049-1.484-6.05-4.696-6.701C100.617,204.173,97.512,206.117,96.894,209.166z"/>
				<path style="fill:#FF8EDE;" d="M336.794,349.127c-0.673,3.319,1.819,6.625,5.567,7.385c3.747,0.76,7.33-1.315,8.003-4.634      s-1.819-6.625-5.566-7.385C341.05,343.733,337.467,345.808,336.794,349.127z"/>
				<path style="fill:#FF8EDE;" d="M299.31,364.6c-0.673,3.319,1.819,6.625,5.566,7.385c3.747,0.76,7.33-1.315,8.003-4.634      c0.673-3.319-1.819-6.625-5.566-7.385C303.567,359.207,299.984,361.281,299.31,364.6z"/>
				<path style="fill:#FF8EDE;" d="M318.752,377.347c-0.673,3.319,1.819,6.625,5.566,7.385c3.747,0.76,7.331-1.315,8.003-4.634      c0.673-3.319-1.819-6.625-5.566-7.385C323.008,371.953,319.425,374.028,318.752,377.347z"/>
				<path style="fill:#FF8EDE;" d="M319.034,335.385c-0.673,3.319,1.819,6.625,5.566,7.385c3.747,0.76,7.33-1.315,8.003-4.634      c0.673-3.319-1.819-6.625-5.566-7.385C323.291,329.992,319.707,332.067,319.034,335.385z"/>
				<path style="fill:#FF8EDE;" d="M320.087,356.83c-0.618,3.049,1.484,6.049,4.696,6.701c3.212,0.651,6.317-1.293,6.935-4.342      c0.618-3.049-1.484-6.05-4.696-6.701C323.81,351.836,320.705,353.78,320.087,356.83z"/>
				<path style="fill:#FF8EDE;" d="M338.865,370.582c-0.618,3.049,1.484,6.049,4.696,6.701c3.212,0.651,6.317-1.293,6.935-4.342      c0.618-3.05-1.484-6.05-4.696-6.701C342.589,365.588,339.484,367.532,338.865,370.582z"/>
				<path style="fill:#FF8EDE;" d="M296.948,346.39c-0.618,3.05,1.484,6.049,4.696,6.701c3.212,0.651,6.317-1.293,6.935-4.342      c0.618-3.05-1.484-6.049-4.696-6.701C300.671,341.396,297.566,343.34,296.948,346.39z"/>
				<path style="fill:#FF8EDE;" d="M368.678,200.383c-0.673,3.319,1.82,6.625,5.566,7.385c3.747,0.76,7.33-1.315,8.003-4.634      c0.673-3.319-1.819-6.625-5.566-7.385C372.934,194.99,369.351,197.065,368.678,200.383z"/>
				<path style="fill:#FF8EDE;" d="M331.195,215.857c-0.673,3.319,1.819,6.625,5.566,7.385c3.747,0.76,7.33-1.315,8.003-4.634      c0.673-3.319-1.819-6.625-5.566-7.385C335.451,210.463,331.868,212.538,331.195,215.857z"/>
				<path style="fill:#FF8EDE;" d="M350.637,228.604c-0.673,3.319,1.819,6.625,5.566,7.385c3.747,0.76,7.33-1.315,8.003-4.634      c0.673-3.319-1.819-6.625-5.566-7.385C354.893,223.21,351.31,225.285,350.637,228.604z"/>
				<path style="fill:#FF8EDE;" d="M350.919,186.642c-0.673,3.319,1.819,6.625,5.566,7.385c3.747,0.76,7.33-1.315,8.003-4.634      c0.673-3.319-1.819-6.625-5.566-7.385C355.175,181.249,351.592,183.324,350.919,186.642z"/>
				<path style="fill:#FF8EDE;" d="M351.971,208.087c-0.618,3.049,1.484,6.049,4.696,6.701c3.212,0.651,6.317-1.293,6.935-4.342      c0.618-3.049-1.484-6.049-4.696-6.701C355.695,203.093,352.59,205.037,351.971,208.087z"/>
				<path style="fill:#FF8EDE;" d="M370.75,221.839c-0.618,3.049,1.484,6.049,4.696,6.701c3.212,0.651,6.317-1.293,6.935-4.342      c0.618-3.05-1.484-6.05-4.696-6.701C374.473,216.845,371.369,218.789,370.75,221.839z"/>
				<path style="fill:#FF8EDE;" d="M328.833,197.647c-0.618,3.049,1.484,6.049,4.696,6.701c3.212,0.651,6.317-1.293,6.935-4.342      c0.618-3.05-1.484-6.049-4.696-6.701C332.556,192.653,329.451,194.597,328.833,197.647z"/>
			</g>
			<g>
				<path style="fill:#FD8A02;" d="M285.822,232.08c-1.225,6.041,3.337,12.064,10.189,13.453c6.852,1.389,13.399-2.382,14.624-8.422      c1.225-6.041-3.337-12.064-10.189-13.453C293.594,222.269,287.046,226.039,285.822,232.08z"/>
				<path style="fill:#FD8A02;" d="M267.623,315.26c-1.225,6.041,3.337,12.064,10.189,13.453c6.852,1.389,13.4-2.382,14.624-8.422      c1.225-6.041-3.337-12.064-10.189-13.453C275.395,305.448,268.847,309.219,267.623,315.26z"/>
				<path style="fill:#FD8A02;" d="M346.943,144.161c-0.999,4.925,2.613,9.813,8.066,10.919c5.453,1.105,10.684-1.99,11.682-6.915      c0.999-4.925-2.613-9.813-8.066-10.919C353.172,136.141,347.942,139.237,346.943,144.161z"/>
				
					<ellipse transform="matrix(0.1987 -0.9801 0.9801 0.1987 -208.3512 309.9807)" style="fill:#FD8A02;" cx="85.394" cy="282.408" rx="9.098" ry="10.075"/>
				<path style="fill:#FD8A02;" d="M178.421,198.917c-0.999,4.925,2.613,9.813,8.066,10.919c5.453,1.105,10.684-1.99,11.682-6.915      c0.999-4.925-2.613-9.813-8.066-10.919C184.65,190.896,179.419,193.992,178.421,198.917z"/>
			</g>
			<g>
				<path style="fill:#91D728;" d="M326.671,276.113c-23.025,30.886-55.211,20.594-52.884,0.783      c1.448-12.228,17.54-22.364,37.092-14.191C316.208,264.932,330.137,271.554,326.671,276.113z"/>
				<path style="fill:#91D728;" d="M172.409,290.851c-6.453-37.297,21.6-53.124,34.74-40.098c0.374,0.376,0.73,0.765,1.082,1.186      c3.72,4.471,5.206,11.259,2.537,18.854c-2.91,8.319-9.855,14.332-17.763,17.826c-2.672,1.18-15.896,6.793-19.637,3.837      C172.862,292.089,172.527,291.573,172.409,290.851z"/>
				<path style="fill:#91D728;" d="M169.943,173.625c-31.419-21.108-23.474-52.323-4.979-52.82c0.53-0.01,1.058,0,1.604,0.038      c5.803,0.4,11.736,4.017,15.382,11.194c4.003,7.852,3.55,17.028,0.61,25.158c-0.993,2.747-6.074,16.184-10.796,16.846      C171.15,174.154,170.547,174.039,169.943,173.625z"/>
			</g>
			<g style="opacity:0.25;">
				<path style="fill:#000E3F;" d="M264.129,226.801c-2.28-2.38-6.073-3.649-8.982-3.115c-12.832,2.354-10.421-10.37-14.462-15.345      c-3.753-4.615-10.285-6.235-16.001-5.015c-3.52,0.744-6.565,3.514-8.536,6.639c-0.625,4.371-0.2,8.694,1.69,12.394      c5.406,10.595,16.027,8.998,16.782,10.245c4.181,6.786-0.458,19.13,22.846,11.856c3.684-1.15,9.466-3.038,10.255-7.501      c0.266-1.506-0.117-3.041-0.599-4.463C266.382,230.316,265.658,228.397,264.129,226.801z"/>
				<path style="fill:#000E3F;" d="M127.311,346.104c0.559-3.248-0.675-7.052-2.834-9.074c-9.521-8.919,2.144-14.545,3.743-20.752      c1.48-5.761-1.1-11.976-5.48-15.848c-2.691-2.388-6.728-3.19-10.413-2.918c-3.886,2.096-7.109,5.008-8.962,8.727      c-5.307,10.645,2.292,18.237,1.738,19.585c-2.972,7.396-15.654,11.003,4.047,25.419c3.115,2.279,8.07,5.806,12.128,3.787      c1.369-0.681,2.376-1.902,3.233-3.135C125.824,350.006,126.937,348.283,127.311,346.104z"/>
				<path style="fill:#000E3F;" d="M356.454,297.611c3.217-0.718,6.267-3.305,7.317-6.069c4.631-12.196,14.268-3.544,20.617-4.425      c5.892-0.821,10.66-5.569,12.577-11.091c1.186-3.397,0.394-7.436-1.259-10.741c-3.415-2.798-7.334-4.673-11.477-4.973      c-11.863-0.863-15.998,9.051-17.455,9.05c-7.971,0.062-16.127-10.298-21.974,13.403c-0.924,3.747-2.303,9.671,1.106,12.657      c1.15,1.007,2.662,1.475,4.128,1.799C352.28,297.718,354.297,298.093,356.454,297.611z"/>
				<path style="fill:#000E3F;" d="M143.721,253.437c-7.43,3.675-16.222,4.993-25.132,3.187      c-20.563-4.169-34.007-23.388-30.046-42.928c3.688-18.192,21.149-30.247,40.136-28.456c2.507,4.479,2.609,9.949-4.411,15.428      C109.02,212.567,107.441,240.898,143.721,253.437z"/>
				<path style="fill:#000E3F;" d="M343.775,390.66c-7.43,3.675-16.222,4.993-25.132,3.187      c-20.563-4.169-34.008-23.388-30.046-42.928c3.689-18.192,21.149-30.247,40.135-28.456c2.507,4.479,2.609,9.949-4.411,15.428      C309.074,349.791,307.495,378.121,343.775,390.66z"/>
				<path style="fill:#000E3F;" d="M375.66,241.917c-7.43,3.675-16.222,4.993-25.132,3.187      c-20.563-4.169-34.007-23.388-30.046-42.928c3.688-18.192,21.148-30.247,40.135-28.456c2.507,4.479,2.609,9.949-4.411,15.428      C340.959,201.048,339.38,229.378,375.66,241.917z"/>
				<path style="fill:#000E3F;" d="M172.409,290.851c-6.453-37.297,21.6-53.124,34.74-40.098c0.374,0.376,0.73,0.765,1.082,1.186      c-8.86,14.881-27.212,33.175-34.863,40.516C172.862,292.089,172.527,291.573,172.409,290.851z"/>
				<path style="fill:#000E3F;" d="M326.671,276.113c-22.623,30.347-53.411,20.881-53,2.383c0.016-0.53,0.052-1.056,0.116-1.601      c16.895-3.811,42.797-3.083,53.388-2.582C327.258,274.932,327.114,275.53,326.671,276.113z"/>
				<path style="fill:#000E3F;" d="M169.943,173.625c-31.419-21.108-23.474-52.323-4.979-52.82c0.53-0.01,1.058,0,1.604,0.038      c4.635,16.687,5.177,42.594,5.196,53.197C171.15,174.154,170.547,174.039,169.943,173.625z"/>
			</g>
			<g style="opacity:0.5;">
				<path style="fill:#FFFFFF;" d="M238.148,188.951c19.586-5.811,32.689,10.109,28.687,12.242      c-1.155,0.616-2.211-0.421-2.053-0.346c-1.874-1.57-3.485-3.186-5.49-4.324c-9.559-5.797-20.72-4.273-20.536-4.288      C236.753,192.391,236.231,189.518,238.148,188.951z"/>
				<path style="fill:#FFFFFF;" d="M142.303,302.712c16.316,12.295,11.303,32.296,7.209,30.346      c-1.182-0.562-0.976-2.029-0.942-1.856c0.148-2.44,0.49-4.697,0.214-6.985c-1.02-11.132-8.881-19.202-8.76-19.063      C138.708,303.635,140.708,301.508,142.303,302.712z"/>
				<path style="fill:#FFFFFF;" d="M402.288,294.988c-5.172,19.764-25.577,22.729-25.329,18.201      c0.071-1.307,1.506-1.674,1.359-1.577c2.313-0.79,4.53-1.331,6.542-2.457c9.91-5.175,14.386-15.512,14.303-15.347      C400.068,292.013,402.796,293.054,402.288,294.988z"/>
				<path style="fill:#FFFFFF;" d="M131.74,143.608c3.53-2.172,7.023-1.623,6.353,1.977c-2.158,11.589-38.021,45.049-37.201,100.887      c0.516,35.17,24.122,60.966,14.563,72.777c-11.294,13.953-23.09-15.906-25.723-23.37      C65.766,227.933,91.857,168.147,131.74,143.608z"/>
			</g>
		</g>
		<g>
			<path style="opacity:0.25;fill:#000E3F;" d="M439.338,321.461c-21.322,69.432-77.207,121.166-145.655,138.602     c-1.742,0.444-3.753,1.18-4.139-0.474c-9.682-41.463,26.636-80.823,48.205-112.329c17.143-25.041,29.999-51.171,38.626-80.342     c22.823-77.174-27.404-169.511-89.851-204.711c-3.397-1.914-3.769-1.994-3.527-2.616c0.112-0.289,0.583-0.58,1.341-0.412     C408.684,86.742,473.976,208.672,439.338,321.461z"/>
			<path style="fill:#000E3F;" d="M276.749,197.474c-4.359-9.797-13.153-16.109-24.146-17.321     c-12.103-1.34-24.463,3.953-31.527,13.467c-5.671,7.666-9.614,20.187-4.826,29.537c4.294,8.45,10.743,9.492,17.092,10.779     c2.398,4.447,1.407,12.588,9.561,14.242c6.013,1.219,22.96-2.527,26.022-9.134c1.816-3.942-0.472-7.943-2.128-12.08     C276.746,222.927,282.279,209.856,276.749,197.474z M265.695,237.542c-2.094,4.453-19.123,9.157-23.916,6.509     c-2.081-1.149-2.727-3.706-3.294-5.83c-1.87-7.013-2.055-4.599,0.618-9.463c8.047-14.635-2.423-23.548-10.01-18.181     c-5.278,3.7-2.494,10.272,1.783,10.437c4.66,0.194,4.398-4.728,1.539-4.242c-4.624,0.83-0.236-5.884,3.518-3.015     c4.493,3.428,1.121,13.405-1.46,15.624c-2.128,1.83-5.832-0.021-7.965-0.984c-11.996-5.416-10.694-21.674-2.569-32.645     c6.306-8.531,17.411-13.254,28.263-12.07c9.73,1.101,17.471,6.643,21.297,15.24c2.411,5.43,2.527,11.193,0.311,16.266     c-3.135,7.177-9.592,12.212-15.339,5.206c-2.485-3.029-5.969-10.267-0.771-12.59c1.622-0.713,5.6,0.336,5.073,2.457     c-0.104,0.39-0.398,0.767-0.827,0.971c-1.567,0.819-2.596-1.417-4.119-0.23c-2.406,1.837,2.433,6.039,6.131,3.446     c1.628-1.099,2.429-3.019,2.145-5.086c-0.707-5.471-8.242-7.726-12.471-3.594c-7.14,6.966,1.011,19.821,7.837,21.689     c1.142,0.313,2.133,1.034,2.592,2.126C265.411,232.799,266.634,235.517,265.695,237.542z"/>
			<path style="fill:#000E3F;" d="M158.396,338.819c5.286-9.329,5.135-20.153-0.425-29.712     c-6.117-10.529-17.72-17.322-29.571-17.346c-9.535-0.003-21.948,4.269-26.621,13.677c-4.243,8.476-1.247,14.281,1.492,20.152     c-2.15,4.572-9.287,8.614-5.769,16.154c2.594,5.56,15.681,16.96,22.814,15.495c4.25-0.883,6.107-5.101,8.45-8.893     C137.927,353.948,151.726,350.626,158.396,338.819z M119.605,353.748c-4.825,0.963-18.73-9.934-19.451-15.362     c-0.313-2.357,1.359-4.396,2.731-6.114c4.528-5.673,2.476-4.387,7.976-5.128c16.552-2.229,17.496-15.946,8.67-18.857     c-6.113-2.045-9.743,4.101-7.333,7.638c2.614,3.863,6.416,0.727,4.326-1.284c-3.417-3.225,4.591-3.687,4.516,1.037     c-0.086,5.65-10.113,8.869-13.432,8.113c-2.736-0.623-3.45-4.702-3.943-6.99c-2.776-12.866,11.072-21.483,24.723-21.472     c10.608,0,21.008,6.122,26.507,15.553c4.898,8.479,5.044,17.998,0.405,26.185c-2.932,5.167-7.498,8.686-12.895,9.919     c-7.634,1.745-15.521-0.454-13.305-9.24c0.958-3.798,4.708-10.902,9.666-8.103c1.537,0.88,3.059,4.703,1.04,5.54     c-0.376,0.148-0.854,0.136-1.273-0.088c-1.59-0.774-0.404-2.929-2.264-3.449c-2.908-0.843-3.41,5.547,0.874,6.979     c1.851,0.656,3.871,0.158,5.365-1.298c3.979-3.821,1.313-11.22-4.523-12.165c-9.846-1.601-15.338,12.596-12.783,19.195     c0.428,1.104,0.437,2.33-0.169,3.348C123.25,350.701,121.791,353.3,119.605,353.748z"/>
			<path style="fill:#000E3F;" d="M375.006,323.595c10.638,1.345,20.592-2.909,27.321-11.685c7.415-9.66,9.288-22.974,4.807-33.944     c-3.621-8.821-12.29-18.679-22.768-19.426c-9.452-0.703-13.684,4.274-18.073,9.039c-5.046-0.251-11.497-5.316-17.135,0.803     c-4.157,4.513-9.729,20.95-5.662,26.991c2.432,3.595,7.039,3.71,11.436,4.436C353.234,310.411,361.549,321.912,375.006,323.595z      M346.455,293.388c-2.725-4.097,2.07-21.101,6.817-23.83c2.061-1.185,4.583-0.414,6.694,0.202     c6.968,2.032,4.999,0.624,7.775,5.429c8.352,14.464,21.399,10.123,20.736,0.853c-0.432-6.432-7.495-7.453-9.851-3.88     c-2.579,3.886,1.766,6.211,2.832,3.513c1.685-4.386,5.155,2.846,0.757,4.571c-5.259,2.068-12.047-5.983-12.609-9.341     c-0.463-2.767,3.038-4.978,4.966-6.304c10.846-7.457,24.079,2.077,29.257,14.708c4.032,9.812,2.321,21.758-4.312,30.429     c-5.981,7.753-14.731,11.505-24.067,10.326c-5.893-0.749-10.884-3.635-14.076-8.158c-4.516-6.398-5.479-14.529,3.491-15.818     c3.878-0.557,11.874,0.211,11.169,5.861c-0.23,1.756-3.188,4.616-4.729,3.067c-0.28-0.291-0.45-0.738-0.402-1.21     c0.112-1.765,2.556-1.486,2.33-3.405c-0.325-3.01-6.426-1.046-6.124,3.461c0.097,1.961,1.325,3.641,3.24,4.469     c5.046,2.228,10.877-3.049,9.533-8.807c-2.262-9.716-17.48-9.401-22.613-4.529c-0.859,0.815-1.989,1.289-3.161,1.116     C350.659,295.601,347.7,295.24,346.455,293.388z"/>
			<g>
				<path style="fill:#000E3F;" d="M288.186,296.924c-1.075-0.218-2.097-0.497-3.063-0.829c-8.339-2.869-13.409-9.628-13.232-17.638      c0.017-0.596,0.056-1.175,0.128-1.773c0.829-6.992,5.559-12.906,12.975-16.227c7.807-3.508,17.245-3.293,26.572,0.607      c6.286,2.626,16.905,7.819,17.383,13.091c0.139,1.029-0.154,2.101-0.853,3.027C314.68,295.174,298.906,299.098,288.186,296.924z       M303.201,262.177c-5.993-1.215-11.769-0.711-16.75,1.527c-6.248,2.796-10.22,7.68-10.897,13.4      c-0.057,0.492-0.09,0.966-0.104,1.443c-0.142,6.394,4.008,11.833,10.831,14.181c9.455,3.257,25.347,0.582,38.962-17.68      l0.009-0.012c0.175-0.231,0.175-0.363,0.158-0.488c-0.215-2.346-6.61-6.605-15.218-10.201      C307.853,263.37,305.512,262.646,303.201,262.177z"/>
			</g>
			<g>
				<path style="fill:#000E3F;" d="M118.226,258.371c-21.486-4.356-35.587-24.555-31.437-45.025      c4.15-20.471,25.006-33.581,46.491-29.225c21.486,4.356,35.588,24.554,31.437,45.025      C160.567,249.617,139.712,262.728,118.226,258.371z M132.573,187.611c-19.561-3.966-38.534,7.896-42.294,26.443      c-3.76,18.547,9.093,36.862,28.655,40.829c19.562,3.966,38.534-7.896,42.295-26.443      C164.989,209.892,152.135,191.577,132.573,187.611z"/>
			</g>
			<g>
				<path style="fill:#000E3F;" d="M318.281,395.596c-21.486-4.356-35.587-24.555-31.437-45.026      c4.151-20.471,25.006-33.581,46.491-29.225c21.486,4.356,35.587,24.555,31.437,45.025      C360.622,386.842,339.767,399.952,318.281,395.596z M332.629,324.835c-19.562-3.966-38.534,7.896-42.295,26.443      c-3.76,18.547,9.093,36.862,28.655,40.828c19.561,3.966,38.534-7.896,42.294-26.443      C365.044,347.116,352.19,328.801,332.629,324.835z"/>
			</g>
			<g>
				<path style="fill:#000E3F;" d="M350.167,246.852c-21.486-4.356-35.587-24.554-31.437-45.025      c4.151-20.471,25.006-33.581,46.492-29.225c21.486,4.356,35.587,24.555,31.437,45.025      C392.507,238.099,371.652,251.209,350.167,246.852z M364.514,176.092c-19.561-3.966-38.534,7.896-42.295,26.443      c-3.76,18.547,9.094,36.862,28.655,40.828c19.562,3.966,38.534-7.896,42.295-26.443      C396.929,198.374,384.075,180.058,364.514,176.092z"/>
			</g>
			<path style="fill:#000E3F;" d="M131.326,84.099c138.348-87.436,318.798,12.16,320.197,173.43     c0.258,29.733-4.816,58.447-18.004,88.183c-7.572,17.073-17.551,33.026-29.375,47.474     c-27.102,33.117-66.944,59.461-110.992,70.195c-4.188,1.021-5.982-0.089-6.98-4.356c-0.041-0.175-42.728-179.121-45.402-187.475     c-1.197,0.422-21.209,28.17-115.66,155.546c-1.951,2.631-3.912,3.058-6.641,1.369c-4.165-2.579-22.242-17.151-36.436-34.613     C-1.032,291.66,28.468,149.106,131.326,84.099z M135.352,86.557C13.975,161.172,3.96,336.186,119.867,424.148     c1.443,1.095,2.393-0.42,4.528-3.289c33.481-44.967,113.477-153.937,115.476-156.024c1.257-1.312,3.062-1.104,3.919,0.499     c0.997,1.866,0.981,2.918,5.725,22.688c44.084,183.727,40.521,171.496,42.847,171.025c11.147-2.254,34.941-10.601,55.042-22.708     c99.203-59.748,127.975-185.695,70.376-281.532C359.745,58.249,232.491,26.842,135.352,86.557z"/>
			<g>
				<path style="fill:#000E3F;" d="M263.643,156.322c-4.1-0.831-7.58-3.126-10.14-6.705c-3.589-5.02-4.899-12.09-3.42-18.451      c0.282-1.215,1.423-2,2.707-1.686c1.213,0.282,1.968,1.494,1.684,2.707c-1.175,5.06-0.116,10.872,2.697,14.808      c1.487,2.078,4.171,4.647,8.628,5.098c8.57,0.867,14.767-6.752,16.244-14.362c0.238-1.223,1.422-2.021,2.644-1.784      c0.007,0.001,0.011,0.002,0.018,0.004c1.213,0.246,2.001,1.423,1.766,2.64c-1.86,9.568-9.895,19.126-21.128,17.989      C264.766,156.52,264.199,156.435,263.643,156.322z"/>
			</g>
			<path style="fill:#000E3F;" d="M218.684,121.888c0.425-5.347,7.133-9.828,12.741-8.508c5.703,1.343,9.763,6.578,8.515,12.967     c-1.017,5.205-6.715,9.821-13.226,8.29C221.404,133.388,217.092,127.563,218.684,121.888z"/>
			<path style="fill:#000E3F;" d="M306.405,150.726c-5.972-0.75-9.829-7.18-8.791-12.443c1.227-6.224,7.019-10.004,12.898-8.83     c5.712,1.141,9.638,6.851,8.605,12.642C318.052,148.068,311.296,152.212,306.405,150.726z"/>
			<g>
				<path style="fill:#000E3F;" d="M174.613,294.866c-0.918-0.186-1.715-0.514-2.349-1.015c-0.842-0.607-1.42-1.557-1.611-2.704      c-4.208-24.331,5.905-39.013,15.845-44.194c7.823-4.077,16.213-3.104,21.905,2.535c0.418,0.422,0.812,0.849,1.196,1.311      c4.505,5.415,5.543,12.917,2.849,20.583c-2.825,8.077-9.474,14.778-18.722,18.863      C188.445,292.578,179.688,295.896,174.613,294.866z M199.01,248.32c-3.421-0.693-7.209-0.115-10.866,1.79      c-8.875,4.627-17.863,17.993-13.979,40.437l0.002,0.016c0.046,0.285,0.14,0.372,0.245,0.449      c1.844,1.46,9.339-0.255,17.875-4.023c8.338-3.682,14.303-9.644,16.801-16.785c2.272-6.457,1.459-12.699-2.225-17.127      c-0.316-0.379-0.64-0.73-0.977-1.07C203.939,250.078,201.577,248.841,199.01,248.32z"/>
			</g>
			<g>
				<path style="fill:#000E3F;" d="M170.546,175.788c-0.55-0.111-1.094-0.342-1.601-0.688      c-20.494-13.771-24.119-31.226-20.998-41.991c2.458-8.471,8.959-13.868,16.968-14.083c0.598-0.011,1.178,0.001,1.775,0.042      c7.013,0.475,13.17,4.917,16.847,12.164c3.887,7.624,4.135,17.061,0.698,26.569c-2.314,6.408-6.98,17.268-12.224,18.003      C171.53,175.893,171.035,175.887,170.546,175.788z M168.354,122.877c-0.627-0.127-1.262-0.213-1.906-0.257      c-0.494-0.035-0.97-0.044-1.45-0.034c-6.392,0.172-11.62,4.584-13.63,11.515c-2.789,9.613,0.663,25.346,19.567,38.046      l0.015,0.01c0.239,0.165,0.368,0.154,0.493,0.133c2.335-0.329,6.276-6.926,9.444-15.7c3.1-8.572,2.915-17.004-0.521-23.744      C177.613,127.426,173.306,123.881,168.354,122.877z"/>
			</g>
		</g>
	</g>
	<g>
		<g>
			<path style="fill:#DB5E43;" d="M117.485,472.803c-2.84-1.948-2.82-1.989-0.75-4.789     c118.825-160.668,115.118-157.097,116.207-154.528c0.453,1.069,0.824,2.186,1.096,3.315     c47.593,197.393,46.256,186.99,42.746,187.698C219.683,516.013,163.562,504.416,117.485,472.803z"/>
			<path style="fill:#FFCF00;" d="M131.118,453.247c-2.869-1.979-2.273-1.734,5.059-11.672     c0.107-0.145,93.622-126.769,94.854-128.047c0.765-0.793,1.841-0.614,2.175,0.391c0.84,2.531,39.604,162.804,39.711,165.185     c0.03,0.675-0.707,1.367-1.292,1.046c-3.345-1.836-14.865,3.696-41.856,3.178C189.856,482.563,154.774,469.566,131.118,453.247z"/>
			<path style="fill:#91D728;" d="M222.387,403.28c-30.329-22.647-20.839-53.427-2.341-53.002c0.53,0.016,1.056,0.053,1.601,0.117     c5.775,0.689,11.522,4.597,14.805,11.946c3.606,8.042,2.697,17.184-0.644,25.157c-1.128,2.694-6.872,15.862-11.622,16.287     C223.567,403.868,222.97,403.724,222.387,403.28z"/>
			<path style="fill:#FD8A02;" d="M236.353,461.247c-0.998,4.925,2.613,9.813,8.067,10.919c5.454,1.106,10.684-1.99,11.682-6.915     c0.998-4.924-2.613-9.813-8.067-10.919C242.582,453.227,237.352,456.322,236.353,461.247z"/>
			<path style="fill:#FC09B2;" d="M233.536,446.619c-2.24,11.049-9.567,19.833-19.261,24.648c-7.43,3.675-16.222,4.993-25.132,3.187     c-20.563-4.169-34.007-23.388-30.045-42.928c3.688-18.192,21.149-30.247,40.136-28.456c1.429,0.119,2.839,0.333,4.258,0.621     C224.031,407.855,237.498,427.079,233.536,446.619z"/>
			<g>
				<path style="fill:#FF8EDE;" d="M207.292,429.733c-0.673,3.319,1.819,6.625,5.566,7.385c3.747,0.76,7.33-1.315,8.003-4.634      c0.673-3.319-1.819-6.625-5.566-7.385C211.549,424.34,207.965,426.414,207.292,429.733z"/>
				<path style="fill:#FF8EDE;" d="M169.809,445.206c-0.673,3.319,1.819,6.625,5.566,7.385c3.747,0.76,7.33-1.315,8.003-4.634      c0.673-3.319-1.819-6.625-5.566-7.385C174.065,439.813,170.482,441.888,169.809,445.206z"/>
				<path style="fill:#FF8EDE;" d="M189.251,457.953c-0.673,3.319,1.819,6.625,5.566,7.385c3.747,0.76,7.33-1.315,8.003-4.634      s-1.819-6.625-5.566-7.385C193.507,452.56,189.924,454.634,189.251,457.953z"/>
				<path style="fill:#FF8EDE;" d="M189.533,415.992c-0.673,3.319,1.819,6.625,5.566,7.385c3.747,0.76,7.33-1.315,8.003-4.634      c0.673-3.319-1.819-6.626-5.566-7.385C193.789,410.599,190.206,412.673,189.533,415.992z"/>
				<path style="fill:#FF8EDE;" d="M190.585,437.436c-0.618,3.05,1.484,6.049,4.696,6.701c3.212,0.651,6.317-1.293,6.935-4.342      c0.618-3.05-1.484-6.049-4.696-6.701C194.309,432.443,191.204,434.387,190.585,437.436z"/>
				<path style="fill:#FF8EDE;" d="M209.364,451.188c-0.618,3.05,1.484,6.049,4.696,6.701c3.212,0.651,6.317-1.293,6.935-4.342      c0.618-3.049-1.484-6.049-4.696-6.701C213.088,446.194,209.983,448.139,209.364,451.188z"/>
				<path style="fill:#FF8EDE;" d="M167.447,426.996c-0.618,3.049,1.484,6.05,4.696,6.701c3.212,0.651,6.317-1.293,6.935-4.343      c0.618-3.049-1.484-6.049-4.696-6.701C171.17,422.003,168.065,423.947,167.447,426.996z"/>
			</g>
			<g style="opacity:0.25;">
				<path style="fill:#000E3F;" d="M172.515,499.491c-6.758-2.041-17.376-6.119-18.329-6.659c-0.529-0.3-1.274-0.53-1.188-1.333      c0.061-0.569,0.612-0.814,1.081-1.028c15.258-6.958,53.368-0.504,68.956-6.455c28.022-10.698,28.202-46.32,19.121-71.895      c-9.472-26.675-25.664-53.31-8.826-80.846c3.936-6.435,3.224-3.96,8.834,19.462c37.916,158.302,38.17,152.867,35.16,153.625      c-17.65,4.449-47.593,6.599-72.934,2.388C200.682,506.134,195.175,506.336,172.515,499.491z"/>
				<path style="fill:#000E3F;" d="M214.274,471.267c-7.43,3.675-16.222,4.993-25.132,3.187      c-20.563-4.169-34.007-23.388-30.045-42.928c3.688-18.192,21.149-30.247,40.136-28.456c2.507,4.479,2.609,9.949-4.411,15.428      C179.573,430.397,177.994,458.728,214.274,471.267z"/>
				<path style="fill:#000E3F;" d="M222.387,403.28c-30.329-22.647-20.839-53.427-2.341-53.002c0.53,0.016,1.056,0.053,1.601,0.117      c3.798,16.898,3.049,42.799,2.54,53.39C223.567,403.868,222.97,403.724,222.387,403.28z"/>
			</g>
		</g>
		<g>
			<path style="fill:#000E3F;" d="M203.835,401.952c-21.486-4.356-42.341,8.755-46.491,29.225     c-4.151,20.471,9.951,40.669,31.437,45.025c21.486,4.356,42.341-8.754,46.492-29.225     C239.423,426.507,225.321,406.308,203.835,401.952z M189.488,472.713c-19.562-3.967-32.415-22.281-28.655-40.829     c3.76-18.546,22.733-30.409,42.295-26.443c19.562,3.966,32.415,22.283,28.655,40.829     C228.022,464.817,209.05,476.679,189.488,472.713z"/>
			<path style="fill:#000E3F;" d="M221.316,404.701c0.547,0.416,1.147,0.689,1.76,0.813c0.42,0.085,0.847,0.101,1.268,0.044     c5.258-0.471,10.469-11.085,13.106-17.372c3.908-9.322,4.128-18.76,0.627-26.57c-3.315-7.421-9.225-12.163-16.223-12.988     c-0.593-0.071-1.169-0.111-1.767-0.129c-8.011-0.185-14.773,4.881-17.649,13.219     C198.783,372.313,201.534,389.927,221.316,404.701z M205.802,362.879c2.355-6.822,7.796-10.968,14.188-10.822     c0.48,0.014,0.958,0.047,1.445,0.106c0.4,0.048,0.791,0.111,1.182,0.19c5.207,1.056,9.614,4.901,12.211,10.717     c3.096,6.905,2.86,15.336-0.66,23.74c-3.611,8.605-7.876,14.999-10.215,15.211c-0.124,0.017-0.257,0.019-0.486-0.158l-0.015-0.01     C205.204,388.228,202.54,372.342,205.802,362.879z"/>
			<path style="fill:#000E3F;" d="M281.99,503.681c-0.65-3.742-46.322-193.888-47.299-195.051c-0.928-1.103-2.451-1.339-3.443-0.331     c-1.942,1.973-105.637,142.65-105.757,142.812c-14.682,19.879-16.406,19.559-11.091,23.225     c49.494,34.15,105.985,44.375,161.349,33.516C281.221,506.781,282.445,506.306,281.99,503.681z M275.004,503.558     c-28.13,6.511-67.65,4.81-94.359-2.957c-30.95-9-44.804-17.724-61.75-28.451c-1.214-0.769-2.174-1.535-1.53-2.706     c0.083-0.151,106.663-144.676,114.315-154.35c1.053,1.609,45.271,185.546,45.295,185.717     C277.217,502.476,276.757,503.153,275.004,503.558z"/>
		</g>
	</g>
	<g>
		<g>
			<path style="fill:#FC09B2;" d="M121.017,60.114c-9.676-8.711-27.683-29.232-33.24-42.643c-2.67-6.446,0.39-13.836,6.836-16.507     c5.902-2.445,12.596-0.082,15.733,5.282c7.381,12.589,12.863,39.527,13.948,52.238C124.446,60.263,122.343,61.299,121.017,60.114     z"/>
			<path style="fill:#FC09B2;" d="M144.904,52.256c-3.127-9.882-7.207-31.232-5.61-42.679c0.768-5.501,5.849-9.339,11.351-8.571     c5.037,0.703,8.679,5.025,8.668,9.972c-0.013,11.618-7.118,32.319-11.501,41.481C147.198,53.741,145.336,53.604,144.904,52.256z"/>
			<path style="fill:#FC09B2;" d="M99.942,73.601c-6.07-8.402-20.779-24.405-30.921-29.947c-4.874-2.663-10.985-0.871-13.648,4.004     c-2.438,4.464-1.139,9.964,2.84,12.904c9.336,6.916,30.191,13.553,40.16,15.495C99.767,76.328,100.767,74.752,99.942,73.601z"/>
		</g>
		<g>
			<path style="fill:#FC09B2;" d="M410.854,427.537c11.194,6.649,32.869,23.249,40.942,35.314c3.88,5.799,2.325,13.645-3.474,17.525     c-5.31,3.553-12.337,2.546-16.463-2.101c-9.702-10.902-20.349-36.246-23.901-48.498     C407.462,428.062,409.322,426.635,410.854,427.537z"/>
			<path style="fill:#FC09B2;" d="M388.978,445.863c5,9.079,13.18,29.218,13.853,40.756c0.324,5.545-3.909,10.303-9.454,10.627     c-5.078,0.296-9.494-3.23-10.452-8.084c-2.261-11.396,0.656-33.087,3.161-42.929     C386.438,444.856,388.291,444.626,388.978,445.863z"/>
			<path style="fill:#FC09B2;" d="M428.882,410.187c7.597,7.052,25.153,19.867,36.183,23.317c5.302,1.658,10.943-1.296,12.601-6.597     c1.518-4.854-0.832-9.994-5.309-12.099c-10.509-4.955-32.26-7.382-42.415-7.337C428.52,407.478,427.848,409.22,428.882,410.187z"/>
		</g>
	</g>
</g>















</svg>
