<?xml version="1.0" encoding="UTF-8"?>
<!-- Generator: Adobe Illustrator 25.2.1, SVG Export Plug-In . SVG Version: 6.00 Build 0)  -->
<svg xmlns="http://www.w3.org/2000/svg" xmlns:xlink="http://www.w3.org/1999/xlink" version="1.1" id="Capa_1" x="0px" y="0px" viewBox="0 0 512 512" style="enable-background:new 0 0 512 512;" xml:space="preserve" width="512" height="512">
<g>
	<g>
		<g>
			<g>
				<path style="fill:#FFFFFF;" d="M394.05,425.369c-3.16,8.725-8.176,16.716-14.399,23.457c0,0.022-0.022,0.045-0.044,0.089      c-61.59,61.59-195.453,67.302-273.851,26.973C81.187,463.269,63.449,446.8,55.77,428.24c-0.4-0.957-0.778-1.937-1.134-2.916      c0.868,0.578,1.758,1.135,2.671,1.714C149.617,484.873,314.069,480.06,394.05,425.369z"/>
				<path style="fill:#FFFFFF;" d="M394.073,425.369c-0.023,0-0.023,0-0.023,0c-79.558,54.402-244.087,59.721-336.744,1.669      c-0.913-0.579-1.803-1.136-2.671-1.714c-0.824-0.534-1.625-1.091-2.448-1.624c-116.195-78.289-11.242-193.644,172.189-193.644      C407.133,230.056,514.976,345.803,394.073,425.369z"/>
			</g>
			<g style="opacity:0.25;">
				<ellipse style="fill:#000E3F;" cx="224.384" cy="347.408" rx="177.634" ry="96.386"/>
				<path style="fill:#000E3F;" d="M394.073,425.369c-0.178,0.489-0.357,0.979-0.557,1.468c-0.178,0.467-0.356,0.957-0.579,1.448      c-0.266,0.645-0.556,1.313-0.845,1.958c-1.157,2.582-2.536,5.141-4.139,7.656c-0.401,0.646-0.801,1.268-1.224,1.892      c-1.647,2.47-3.495,4.918-5.542,7.299c-0.512,0.579-1.001,1.157-1.536,1.736c0,0.022-0.022,0.045-0.044,0.089      c-0.557,0.556-1.068,1.134-1.603,1.691c-0.556,0.601-1.134,1.179-1.691,1.736c-0.578,0.579-1.157,1.158-1.758,1.715      c-0.601,0.578-1.202,1.134-1.824,1.691c-0.601,0.557-1.225,1.113-1.87,1.669c-2.536,2.225-5.252,4.384-8.123,6.432      c-4.296,3.137-8.924,6.098-13.909,8.902c-0.623,0.355-1.268,0.712-1.914,1.09c-0.69,0.356-1.402,0.734-2.115,1.113      c-0.912,0.49-1.847,0.979-2.782,1.448c-7.255,3.672-15.111,7.01-23.479,9.969c-0.734,0.267-1.469,0.535-2.204,0.779      c-2.292,0.779-4.629,1.536-7.01,2.27c-0.912,0.289-1.847,0.556-2.759,0.824c-2.248,0.667-4.518,1.313-6.833,1.914      c-1.09,0.29-2.181,0.579-3.271,0.846c-1.091,0.266-2.204,0.534-3.316,0.801c-1.09,0.266-2.203,0.512-3.338,0.779      c-2.158,0.467-4.339,0.935-6.543,1.379c-2.47,0.468-4.963,0.936-7.477,1.358c-2.225,0.378-4.496,0.733-6.766,1.068      c-2.359,0.333-4.763,0.645-7.188,0.934c-1.202,0.155-2.404,0.289-3.627,0.423c-1.136,0.134-2.293,0.245-3.45,0.356      c-0.934,0.088-1.891,0.177-2.848,0.266c-1.068,0.089-2.115,0.178-3.183,0.246c-1.336,0.111-2.648,0.2-3.984,0.289      c-1.334,0.089-2.693,0.155-4.028,0.223c-1.335,0.066-2.693,0.134-4.05,0.177c-1.357,0.067-2.714,0.112-4.073,0.135      c-2.714,0.066-5.453,0.111-8.212,0.111c-45.935,0-87.685-9.748-118.62-25.661c95.297,16.959,135.868,3.383,152.782-8.879      c52.833-4.429,99.503-19.029,132.931-39.97c0.868-0.556,1.735-1.091,2.581-1.669C394.05,425.369,394.05,425.369,394.073,425.369      z"/>
			</g>
		</g>
		<path style="fill:#000E3F;" d="M224.385,226.303C100.667,226.303,0,281.453,0,349.252c0,30.561,20.441,58.551,54.24,80.085    c18.072,42.42,87.491,74.093,170.145,74.093c82.675,0,152.113-31.694,170.145-74.114c33.778-21.534,54.219-49.503,54.219-80.064    C448.749,281.453,348.103,226.303,224.385,226.303z M396.574,423.69c-0.83,0.566-1.66,1.132-2.51,1.68c-0.02,0-0.02,0-0.02,0    c-0.85,0.566-1.7,1.113-2.57,1.659c-40.498,25.359-100.383,41.429-167.089,41.429c-66.706,0-126.612-16.07-167.089-41.429    c-0.89-0.566-1.781-1.133-2.651-1.701c-0.83-0.546-1.64-1.092-2.449-1.638C21.899,403.29,3.744,377.405,3.744,349.252    c0-65.735,98.987-119.205,220.64-119.205s220.62,53.47,220.62,119.205C445.005,377.405,426.851,403.29,396.574,423.69z     M224.385,499.686c-77.98,0-143.916-28.294-164.377-66.828c41.003,24.185,99.533,39.344,164.377,39.344    c64.864,0,123.394-15.158,164.397-39.363C368.321,471.392,302.365,499.686,224.385,499.686z"/>
	</g>
	<g>
		<g>
			<g>
				<path style="fill:#FD8A02;" d="M81.825,83.82c-11.605-8.768-33.616-29.883-41.086-44.278c-3.59-6.919-0.892-15.437,6.026-19.028      c6.335-3.287,14.013-1.299,18.019,4.371C74.205,38.19,82.89,67.647,85.316,81.691C85.656,83.656,83.414,85.011,81.825,83.82z"/>
				<path style="fill:#FD8A02;" d="M108.382,66.18c-4.428-10.7-11.016-34.072-10.336-46.966c0.327-6.197,5.615-10.955,11.812-10.628      c5.674,0.299,10.141,4.761,10.604,10.269c1.099,12.933-4.824,36.655-8.824,47.273C111.078,67.613,108.993,67.639,108.382,66.18z      "/>
				<path style="fill:#FD8A02;" d="M59.661,100.852c-7.562-8.77-25.468-25.173-37.288-30.369      c-5.681-2.497-12.311,0.084-14.808,5.765c-2.287,5.202-0.313,11.199,4.397,14.09c11.054,6.803,34.904,12.19,46.186,13.396      C59.728,103.904,60.689,102.053,59.661,100.852z"/>
			</g>
		</g>
		<g>
			<g>
				<path style="fill:#FD8A02;" d="M438.162,277.044c13.472-5.484,40.177-20.218,51.103-32.204      c5.251-5.761,4.837-14.687-0.923-19.938c-5.275-4.808-13.205-4.864-18.537-0.417c-12.531,10.43-28.508,36.657-34.469,49.602      C434.501,275.899,436.319,277.786,438.162,277.044z"/>
				<path style="fill:#FD8A02;" d="M417.042,253.16c7.034-9.199,19.419-30.086,22.082-42.72c1.28-6.072-2.605-12.032-8.677-13.312      c-5.56-1.172-11.026,1.989-12.89,7.192c-4.393,12.214-4.778,36.661-3.647,47.951      C414.069,253.851,416.077,254.413,417.042,253.16z"/>
				<path style="fill:#FD8A02;" d="M455.192,299.209c9.565-6.527,31.091-17.765,43.85-19.742c6.132-0.95,11.874,3.251,12.824,9.384      c0.87,5.615-2.582,10.902-7.878,12.483c-12.433,3.727-36.866,2.79-48.078,1.051      C454.341,302.141,453.889,300.105,455.192,299.209z"/>
			</g>
		</g>
	</g>
	<g>
		<g>
			<g>
				<path style="fill:#DB5E43;" d="M223.11,426.562c-4.186,0.326-9.662-0.347-15.117-0.762      c-68.865-5.23-149.184-44.47-144.869-112.892c0.217-3.442,2.43-16.935,4.567-14.23c0.25,0.316,0.48,0.655,0.668,1.011      c16.451,31.077,52.124,51.106,85.554,61.45c9.756,3.019,22.565,5.652,23.087,5.7c4.764,0.435,1.795,3.299,11.673,10.594      c4.632,3.42,10.205,4.407,15.803,4.926c3.637,0.337,12.092-1.319,17.812-6.121c1.557-1.307,3.238-2.482,4.419-4.176      c0.65-0.932,1.52-1.266,2.615-1.254c15.092,0.156,15.154-1.818,16.024,1.37c10.035,36.774,35.845,41.719,44.346,26.689      c4.154-7.343,0.548-15.525-4.596-22.17c-1.212-1.566,0.275,0.639-9.812-8.643c-0.657-0.605-0.96-1.299-0.531-2.177      c0.281-0.576,0.177-1.069-0.542-0.949c-1.949,0.326-3.213-0.643-4.531-1.914c-8.85-8.534-10.943-17.416-19.452-17.105      c-1.564,0.057-2.729,0.703-3.592,1.955c-0.936,1.357-1.641,2.853-1.9,4.464c-2.561,15.912,2.969,16.988-3.719,16.923      c-23.696-0.23-2.21,4.15,0.881-43.924c0.247-3.848,0.809-7.684,0.576-11.557c-0.024-0.401,0.042-0.813,0.113-1.212      c0.186-1.048,0.525-1.463,1.56-1.544c1.822-0.143,3.609-0.513,5.449-0.588c7.424-0.304,14.343-1.596,18.462-2.054      c1.875-0.209,1.627,0.369,2.949,3.184c5.766,12.274,25.586,11.996,39.336-6.638c5.362-7.267,3.719-9.501,7.557-11.073      c22.935-9.396,46.32-27.614,61.266-52.12c1.486-2.436,2.352-1.236,3.546,1.586c5.514,13.037,4.546,20.169,4.736,25.254      c0.719,19.257-11.274,39.46-25.09,53.178c-22.704,22.543-53.147,35.266-84.443,42.54c-0.663,0.154-1.344,0.158-1.032,0.69      c0.778,1.324,7.869-0.989,14.136-2.684c18.943-5.125,40.281-14.616,56.889-26.68c24.404-17.728,31.938-35.169,33.016-36.58      c0.576-0.753,1.549-0.63,1.955,0.275c0.29,0.646,0.53,1.326,0.693,2.014c2.848,11.986,4.113,23.941-0.4,38.493      c-16.32,52.633-83.86,81.128-139.287,85.706c-3.245,0.268-6.511,0.225-9.721,0.617      C230.909,426.529,227.674,426.437,223.11,426.562z"/>
				<path style="fill:#DB5E43;" d="M137.594,308.945c9.52-15.759-6.187-10.343,35.819-1.923c5.25,1.052,6.234,0.718,5.466,3.236      c-0.925,3.029-4.36,11.797-5.358,23.096c-0.881,9.976-0.515,18.612,3.501,29.051c0.312,0.81,1.058,1.644,0.251,2.522      c-0.671,0.73-1.516,0.28-2.298,0.135c-5.999-1.118-11.9-2.635-17.773-4.285c-69.168-19.44-112.452-71.766-90.337-118.934      c0.129-0.276,0.267-0.55,0.424-0.81c2.578-4.247,3.612,10.198,29.675,32.074c1.804,1.514,0.477,2.777-0.41,9.327      c-0.823,6.075-1.077,12.197,0.352,18.184C102.206,322.839,125.45,329.047,137.594,308.945z"/>
				<path style="fill:#DB5E43;" d="M321.582,290.85c-1.093,0.521-2.261,0.908-3.426,1.244c-0.548,0.158-0.941-0.256-1.066-0.823      c-0.456-2.073,3.936-10.582,0.209-28.39c-3.023-14.447-7.922-22.977-11.987-30.859c-6.98-13.53-12.908-35.794-1.714-45.791      c8.19-7.314,14.727,4.508,13.253,14.388c-0.994,6.667-0.49,18.717,3.967,28.343c14.555,31.435,57.295,17.266,54.082-30.631      c-1.767-26.342-11.997-44.983-14.727-55.457c-3.474-13.329-1.352-31.174,2.722-26.706c5.771,6.329,10.999,13.072,15.278,20.503      C409.985,191.925,388.118,259.129,321.582,290.85z"/>
				<path style="fill:#DB5E43;" d="M94.484,107.748c0.957-0.883,1.669-1.524,2.861-0.384c4.057,3.879,6.409,8.515,6.797,14.209      c0.908,13.341-7.562,19.562-16.114,32.537c-8.164,12.387-16.158,28.825-17.661,43.412c-1.257,12.195,0.636,23.77,11.213,30.151      c13.154,7.937,25.471-5.243,30.59-19.87c2.948-8.424,9.123-20.292,16.86-24.752c1.78-1.026,3.694-1.055,5.63-0.855      c3.424,0.355,9.338,7.054,4.988,19.001c-4.602,12.642-13.386,18.171-25.717,38.039c-17.793,28.667-12.732,35.841-18.102,31.285      c-4.041-3.428-7.856-7.087-11.394-11.016C45.679,216.464,45.019,153.378,94.484,107.748z"/>
				<path style="fill:#DB5E43;" d="M203.015,246.081c0.55,16.48-7.745,33.691-16.246,47.725c-2.027,3.346-5.932,11.504-6.01,11.646      c-0.928,1.7-0.457,1.529-9.962-0.318c-12.031-2.338-25.111-6.644-26.986-7.504c-2.828-1.298,0.297-1.532-0.251-15.817      c-0.005-0.127-1.452-12.291-0.426-24.654c1.184-14.255,6.511-31.694,18.223-39.821      C180.284,204.206,204.732,221.039,203.015,246.081z"/>
				<path style="fill:#DB5E43;" d="M249.85,245.674c13.505-25.599,35.477,7.212,23.464,34.582c-1.844,4.2-3.367,8.511-4.078,13.065      c-1.338,8.578-0.677,6.775-0.385,10.571c0.207,2.7,0.009,3.049-2.6,3.424c-4.508,0.649-16.07,1.997-20.295,2.077      c-3.147,0.059-3.331-0.103-3.37-3.157C242.351,287.975,241.272,261.934,249.85,245.674z"/>
			</g>
			<g style="opacity:0.5;">
				<path style="fill:#FFFFFF;" d="M208.016,425.801c-52.678-4.009-117.019-28.774-138.362-75.767      c-4.9-10.787-6.693-21.468-6.651-25.515c0.036-3.561,4.366,4.536,14.704,14.114c35.788,33.156,80.287,51.295,129.645,57.724      c15.547,2.024,30.647,0.59,46.059-1.696c3.871-0.574,2.934,2.683,10.3,7.841c13.792,9.656,30.195,1.47,27.36-14.414      c-0.83-4.65-2.832,0.058,25.408-12.853c18.302-8.368,39.724-21.87,53.834-35.861c5.878-5.828-2.954,4.137,12.436-12.954      c1.821-2.023,1.999-2.51,2.661-2.248c0.917,0.362,0.416,1.18,0.366,1.855c-1.126,15.097-8.159,29.882-17.623,41.839      C333.826,411.236,264.669,430.113,208.016,425.801z"/>
				<path style="fill:#FFFFFF;" d="M362.314,321.784c-22.824,22.647-58.087,37.896-88.055,43.091      c-1.626,0.282-2.887-0.218-4.113-1.392c-9.345-8.954-11.443-17.83-19.862-17.577c-3.268,0.098-5.161,3.724-5.605,6.664      c-2.361,15.665,2.892,16.753-3.602,16.682c-20.562-0.226-7.168,3.262-1.595-26.672c0.435-2.337,0.552-4.275,2.612-4.117      c3.367,0.259,6.686-0.392,10.031-0.556c47.706-2.342,100.076-35.793,131.708-74.848c0.704-0.869,1.454-1.7,2.192-2.541      c0.21-0.24,0.518-0.411,0.792-0.215c0.639,0.456,0.604,1.408,0.621,2.839C387.695,284.709,381.143,303.102,362.314,321.784z"/>
				<path style="fill:#FFFFFF;" d="M177.457,363.434c0.406,1.258-0.204,2.077-1.488,1.833      c-54.85-10.409-116.887-46.327-114.712-101.95c0.039-1.004,0.323-2.002,0.527-2.995c0.553-2.682,5.078,6.644,20.358,21.167      c13.393,12.729,13.743,11.343,13.974,14.42c0.91,12.102,9.698,24.971,22.732,25.342c3.437,0.098,7.759-1.761,8.436-2.326      c2.058-1.718,3.936-1.166,6.094-0.001c18.836,10.169,36.999,14.44,38.87,15.054c0.641,0.211,0.96,0.636,0.941,1.369      C172.766,351.917,174.725,354.968,177.457,363.434z"/>
				<path style="fill:#FFFFFF;" d="M392.33,190.667c0.271,32.256-17.227,62.644-43.398,83.252      c-11.074,8.721-25.006,16.235-30.263,18.086c-1.069,0.376-1.755-0.258-1.62-1.424c0.096-0.829,2.257-8.504,1.705-16.306      c-1.633-23.094-7.796-18.62,2.071-23.68c11.038-5.66,11.558-8.163,14.767-6.65c4.534,2.139,10.795,2.133,13.124,1.466      c14.421-4.131,22.137-14.723,25.009-29.381c2.633-13.434-1.399-5.527,8.618-19.487c7.923-11.042,8.536-14.962,9.49-14.74      c0.697,0.162,0.496,0.464,0.498,4.286C392.33,187.616,392.33,189.142,392.33,190.667z"/>
				<path style="fill:#FFFFFF;" d="M178.814,306.69c-7.673-1.485-23.825-4.533-34.472-8.856c-1.71-0.694-1.834-0.93-1.59-2.71      c2.024-14.774,0.007-7.638,0.176-33.423c0.01-1.506,0.062-3.459,1.505-3.016c7.411,2.276,10.048,6.273,51.162,14.499      c3.499,0.7-1.37,5.949-15.012,32.583C180.215,306.487,179.622,306.782,178.814,306.69z"/>
				<path style="fill:#FFFFFF;" d="M56.381,183.551c0.007-0.388,0.186-0.778,0.322-1.155c0.134-0.373,0.754-0.472,1-0.154      c0.309,0.399,0.619,0.806,0.862,1.247c8.784,15.932,11.542,15.423,11.379,20.516c-0.139,4.316,0.751,8.489,2.26,12.519      c1.857,4.956,5.225,8.659,9.717,11.368c3.794,2.288,7.883,2.559,12.063,1.427c1.534-0.416,2.663-0.258,3.901,0.797      c7.019,5.981,11.54,8.78,12.372,9.415c4.932,3.767,0.448-1.24-10.827,30.103c-0.828,2.302-1.208,2.896-3.285,1.137      c-21.881-18.524-36.971-43.9-39.406-73.525C56.467,193.94,56.244,190.969,56.381,183.551z"/>
				<path style="fill:#FFFFFF;" d="M242.858,276.265c0.173-1.292,0.877-1.9,2.213-2.038c29.411-3.042,31.835-8.506,30.944-3.22      c-0.698,4.142-2.179,8.032-3.765,11.892c-2.319,5.646-4.515,15.668-3.439,20.49c0.152,0.683,0.1,1.418,0.092,2.129      c-0.008,0.663-0.307,1.181-0.982,1.373c-0.684,0.194-1.373,0.445-2.072,0.496c-4.358,0.318-8.643,1.271-13.021,1.431      c-11.447,0.418-10.254,3.227-10.368-8.173C242.434,297.9,242.458,279.264,242.858,276.265z"/>
			</g>
			<g>
				<path style="fill:#FF8EDE;" d="M252.994,64.068c0.465,0.165,0.662,0.835,0.451,1.286c-1.123,2.405-8.276,3.56-10.949,13.664      c-3.947,14.921,2.941,33.378,11.632,46.313c10.572,15.735,39.876,14.094,57.466,6.836c10.978-4.53,20.083-11.302,20.726-23.1      c0.695-12.758-3.489-17.1-1.798-18.189c0.814-0.524,1.552,0.199,2.208,0.614c12.403,7.848,15.307,10.804,25.051,19.371      c1.642,1.444,2.564,2.411,1.713,4.365c-2.186,5.017-3.372,12.854-1.861,21.27c3.119,17.37,5.906,15.596,11.494,36.262      c7.877,29.129,7.787,64.148-21.509,71.642c-1.999,0.511-4.076,0.319-6.071-0.01c-12.929-2.135-19.96-12.595-22.617-25.321      c-3.556-17.039,2.748-22.796-4.05-32.729c-7.864-11.49-28.453,5.337-13.109,40.956c3.725,8.648,11.355,19.264,14.548,37.349      c0.564,3.195,1.022,6.419,0.921,9.7c-0.125,4.059,0.143,8.121-0.618,12.164c-2.477,13.154-9.311,23.715-21.723,29.91      c-4.148,2.07-8.584,2.56-13.084,2.024c-3.342-0.398-6.121-2.109-8.162-4.871c-5.745-7.776-4.074-20.008-0.715-29.051      c1.526-4.108,5.9-12.245,4.866-25.172c-1.278-15.985-12.065-28.435-21.165-22.891c-6.606,4.025-9.398,10.995-11.62,18.375      c-4.239,14.076-3.565,29.349-3.641,34.736c-0.078,5.511-0.951,6.711-0.392,10.023c1.527,9.048,0.044,37.886-6.046,55.107      c-4.505,12.738-12.398,24.291-25.916,25.951c-31.517,3.869-41.321-32.684-29.806-67.594      c6.337-19.212,13.549-22.672,21.078-44.234c13.183-37.754-7.086-58.922-27.18-57.166c-23.75,2.075-32.746,35.145-31.729,58.96      c0.264,6.171,1.209,13.329,1.048,16.096c-3.309,56.822-71.338,37.675-34.093-35.147c13.283-25.971,25.229-33.686,31.268-47.201      c3.189-7.137,4.508-14.687-0.493-20.744c-5.037-6.1-12.489-1.824-16.947,3.654c-9.884,12.144-10.419,20.679-15.078,28.775      c-4.103,7.131-10.941,13.576-19.266,12.612c-5.189-0.601-11.559-5.274-14.154-11.796c-9.114-22.911,8.652-54.138,23.749-73.579      c11.128-14.332,9.899-26.124,2.486-34.985c-2.621-3.133-2.584-3.1,0.55-5.62c30.908-24.857,71.826-37.77,111.25-40.337      C216.578,62.028,247.107,61.987,252.994,64.068z"/>
				<path style="fill:#FF8EDE;" d="M275.05,405.913c-5.389,0.023-9.502-1.574-12.873-5.086      c-21.903-22.816-20.685-58.963-9.132-53.716c3.787,1.72,4.378,2.814,8.483,8.477c7.471,10.308,12.167,10.675,16.784,15.304      c5.796,5.81,12.433,12.822,12.021,21.086c-0.29,5.829-3.308,9.928-8.46,12.415C279.585,405.498,277.093,406.143,275.05,405.913z      "/>
			</g>
			<path style="fill:#FFCF00;" d="M288.155,58.079c9.271-0.323,18.455,1.567,25.043,8.194c9.543,9.6,15.354,21.088,17.509,34.452     c1.253,7.773,0.312,15.113-4.958,20.836c-6.685,7.258-19.034,11.833-27.893,13.33c-7.928,1.34-8.251,1.084-16.382,1.09     c-5.554,0.005-10.893-1.1-16.051-3.125c-4.296-1.687-7.683-4.523-10.293-8.293c-11.035-15.939-19.102-44.353-5.089-54.864     c8.445-6.335,19.752-10.116,30.199-11.317C282.854,58.083,285.514,58.167,288.155,58.079z"/>
			<g style="opacity:0.5;">
				<path style="fill:#FC09B2;" d="M203.831,350.778c10.516,21.592,24.946,16.184,22.415,19.835      c-8.843,12.756-32.419,15.308-44.185-1.572c-9.542-13.689-8.951-35.529-4.342-51.212c8.442-28.729,22.344-34.213,26.461-66.053      c1.297-10.031-1.256-17.369-1.702-19.872c-0.482-2.711,7.813,6.304,10.794,20.546      C222.537,296.712,191.945,326.372,203.831,350.778z"/>
				<path style="fill:#FC09B2;" d="M325.689,234.745c-0.786-1.062-1.511-2.17-2.279-3.245c-1.082-1.514-0.929-2.956,0.003-4.522      c5.255-8.826,14.996-7.147,20.817-10.769c4.295-2.672,7.357-6.344,9.08-11.124c6.145-17.047-6.627-36.704-2.369-59.702      c0.658-3.555,1.686-8.225,3.7-11.548c0.464-0.765,0.794-2.011,1.783-1.849c1.317,0.216,0.871,1.606,0.994,2.546      c2.211,16.989,5.958,17.109,11.74,38.381c7.91,29.101,7.644,63.813-21.397,71.456c-0.488,0.129-1.001,0.193-1.506,0.225      C338.873,245.059,330.98,241.895,325.689,234.745z"/>
				<path style="fill:#FC09B2;" d="M131.309,217.381c7.393-9.049,9.046-15.117,9.758-16.451c0.379-0.712,1.077-0.251,1.142,0.052      c0.594,2.787,1.12,5.589,0.772,8.455c-0.834,6.863-3.053,13.242-6.68,19.141c-8.078,13.139-21.276,34.8-18.163,49.983      c2.116,10.316,5.935,12.328,10.246,15.926c3.677,3.069,6.71,5.828,8.933,9.891c0.417,0.762,0.475,1.567,0.051,2.337      c-2.467,4.494-5.279,8.3-10.764,11.258c-5.71,3.079-14.435,1.879-19.202-2.222c-4.596-3.954-7.472-8.756-9.017-14.489      C91.271,274.875,113.442,239.249,131.309,217.381z"/>
				<path style="fill:#FC09B2;" d="M270.349,305.717c-0.298-1.356,0.022-2.43,0.882-3.366c9.748-10.619,23.609-8.609,27.421-28.111      c4.801-24.568-14.956-36.004-4.989-67.418c0.572-1.804,0.896-3.058,2.134-3.329c0.955,0.922,0.475,2.105,0.52,3.165      c0.531,12.413,6.811,22.934,11.98,33.875C340.412,308.511,277.35,337.564,270.349,305.717z"/>
				<path style="fill:#FC09B2;" d="M105.709,155.461c-6.668,12.597-25.655,38.018-10.719,49.561      c2.188,1.691,4.035,3.717,5.971,5.655c1.821,1.824,2.972,4.099,4.033,6.421c0.429,0.938,0.341,1.801-0.299,2.564      c-2.749,3.284-5.587,6.451-9.746,8.05c-15.442,5.937-31.927-13.337-19.076-47.404c5.852-15.513,12.77-25.669,21.718-37.219      c6.782-8.754,7.122-13.805,8.014-17.199c0.126-0.481,0.654-0.59,0.93-0.207C112.651,134.191,110.667,146.094,105.709,155.461z"/>
				<path style="fill:#FC09B2;" d="M245.074,359.794c0-0.863-0.088-2.192,0.023-3.504c0.328-3.902,7.715-2.345,12.665,12.02      c1.773,5.145,3.581,10.795,8.08,14.234c6.53,4.991,11.844,0.806,18.34-0.927c2.349-0.627,3.176-0.284,4.139,1.845      c1.571,3.473,2.675,7.056,1.738,10.926c-2.809,11.603-16.094,13.884-23.793,9.587c-5.875-3.279-16.073-16.474-19.705-31.678      C245.618,368.348,244.781,364.362,245.074,359.794z"/>
			</g>
			<path style="opacity:0.5;fill:#FD8A02;" d="M284.616,136.993c-12.366-0.015-23.985-3.919-30.157-13.357     c-8.917-13.637-12.451-29.202-11.859-36.62c0.93-11.664,3.61-14.706,9.408-18.689c1.789-1.229,15.139,0.827,18.711,20.8     c1.506,8.424-0.37,14.383,4.255,20.591c2.449,3.287,8.898,4.973,13.996,2.217c9.233-4.991,16.202-16.011,27.044-18.279     c6.184-1.293,12.928-0.415,14.553,5.984c1.865,7.346,0.44,16.176-4.735,21.832C317.388,130.698,300.394,137.012,284.616,136.993z     "/>
			<g style="opacity:0.75;">
				<path style="fill:#FFFFFF;" d="M229.287,79.292c-1.94,0.994-4.361,1.071-6.493,1.176c-20.314,0.998-60.402,12.729-87.276,30.926      c-4.265,2.888-12.782,11.054-17.321,3.754c-3.704-5.957,5.035-12.365,9.164-15.257c32.485-22.752,85.333-32.573,102.098-25.233      C232.194,75.855,231.877,77.964,229.287,79.292z"/>
				<path style="fill:#FFFFFF;" d="M315.547,81.554c2.003,5.02-3.833,9.92-9.195,4.372c-12.492-12.926-25.407-11.868-30.984-13.97      c-3.115-1.174-0.994-3.84,1.716-4.952C289.131,62.061,310.446,68.766,315.547,81.554z"/>
			</g>
			<g>
				<g>
					<path style="fill:#FC09B2;" d="M201.159,187.495c-0.546,13.642-26.842,18.575-37.06,5.273       c-5.805-7.559-1.291-15.95,8.327-18.977C183.928,170.172,201.725,173.354,201.159,187.495z"/>
				</g>
				<g>
					<path style="fill:#FC09B2;" d="M247.536,187.495c0.546,13.642,26.842,18.575,37.06,5.273c5.805-7.559,1.291-15.95-8.327-18.977       C264.766,170.172,246.97,173.354,247.536,187.495z"/>
				</g>
			</g>
		</g>
		<g>
			<path style="fill:#000E3F;" d="M255.095,61.878c1.763,0.285,3.363,0.132,5.022-0.594c13.747-6.007,32.932-7.926,46.407-2.497     c8.9,3.585,17.859,16.562,22.156,26.329c0.557,1.266,1.394,2.151,2.604,2.847c51.644,29.687,80.522,88.42,52.752,146.835     c-1.604,3.374-1.631,2.644-0.024,5.819c7.127,14.084,8.762,34.694,0.396,53.504c-0.396,0.891-0.33,1.727,0.045,2.64     c2.895,7.036,4.09,17.815,4.109,22.054c0.144,30.848-19.095,56.504-43.845,74.249c-8.206,5.883-16.894,10.961-26.031,15.239     c-19.16,8.971-39.631,15.062-60.553,18.176c-19.92,2.965-40.235,3.255-60.238,0.921c-18.718-2.185-37.209-6.656-54.753-13.56     c-15.857-6.241-31.044-14.492-44.396-25.127c-11.684-9.305-22.074-20.559-29.168-33.779c-6.495-12.104-9.933-25.753-9.067-39.516     c0.917-14.572,4.959-17.779,3.686-21.975c-3.445-11.359-10.56-28.046,0.645-52.676c2.215-4.869,1.259-1.409-3.925-14.861     c-6.824-17.703-8.76-35.861-5.292-55.388C69.894,90.198,173.999,48.782,255.095,61.878z M240.54,274.95     c6.072-70.621,49.842-36.319,35.783,3.839c-1.609,4.596-6.719,14.638-5.018,25.973c1.761,11.73,11.065,15.228,20.772,11.604     c22.212-8.293,34.915-39.195,12.695-80.432c-7.151-13.272-14.938-33.732-5.782-48.029c5.159-8.055,15.049-8.143,18.746,1.185     c4.424,11.164-2.742,22.609,4.888,39.009c7.603,16.341,25.101,19.91,37.38,9.093c7.57-6.669,11.08-16.817,12.216-26.591     c1.885-16.218-1.977-32.82-7.405-48.012c-1.244-3.481-2.595-6.924-4.036-10.328c-4.427-10.463-6.809-26.102-2.322-37.493     c0.346-0.879,0.335-1.525-0.393-2.169c-6.348-5.619-11.025-10.721-23.901-18.848c-0.798-0.504-1.446-1.438-2.603-1.205     c0.964,5.677,2.935,11.223,1.516,19.543c-4.435,25.988-64.767,38.232-80.224,13.407c-5.378-8.639-9.38-18.425-11.462-28.39     c-3.368-16.125,0.039-22.571,7.678-30.295c0.694-0.702,2.521-2.332,0.46-2.438c-20.47-1.06-36.06-4.038-72.876,4.189     c-32.075,7.168-55.469,19.13-76.633,35.851c-1.73,1.367,0.354,1.88,2.829,5.968c6.843,11.298,3.886,23.051-4.36,33.278     c-10.5,13.021-19.614,28.464-23.99,44.55c-3.044,11.191-3.872,24.738,3.507,33.579c6.285,7.531,15.605,7.318,21.817,1.553     c9.564-8.875,8.369-15.439,16.299-29.348c14.594-25.598,30.882-12.458,26.762,4.51c-2.267,9.337-8.825,17.237-14.76,24.662     c-13.497,16.887-26.355,37.648-29.322,59.439c-1.708,12.546,0.522,30.312,14.47,35.159c12.374,4.3,22.372-6.414,25.788-17.282     c4.551-14.478,0.183-30.384,1.972-45.262c8.574-71.319,80.779-50.191,61.069,11.697c-7.05,22.139-16.005,27.771-22.729,49.166     c-6.026,19.176-6.47,46.797,9.749,58.783c9.621,7.11,24.384,7.113,34.374-2.617c11.881-11.571,15.913-36.442,16.479-53.081     C240.199,312.66,239.665,285.132,240.54,274.95z M317.861,404.928c18.047-8.44,36.277-21.156,49.147-37.287     c13.312-16.685,21.569-39.81,16.665-61.202c-2.732-11.916-0.126-4.802-14.778,11.742c-14.888,16.81-35.141,29.299-55.619,37.613     c-22.392,9.092-35.368,10.41-36.873,11.272c-0.006,0.003,3.937,3.525,4.212,3.759c26.272,22.285,4.172,46.983-16.876,32.824     c-10.262-6.904-15.908-19.284-19.368-30.728c-0.492-1.626,0.047-1.412-11.201-1.225c-1.519,0.025-3.187-0.444-4.516,0.249     c-1.185,0.618-2.182,2.082-3.155,2.975c-11.033,10.132-24.94,10.366-35.105,4.906c-3.355-1.802-6.087-4.354-8.449-7.311     c-1.097-1.374-2.507-4.177-4.432-4.527c-26.684-4.848-54.467-15.288-76.058-30.752c-33.038-23.663-33.328-42.116-35.039-35.779     c-2.91,10.775-3.558,20.646-1.042,32.554C80.432,405.276,210.326,455.22,317.861,404.928z M258.53,348.176     c4.641,4.384,7.69,10.19,12.387,14.586c0.956,0.895,1.823,1.492,3.232,1.033c0.129-0.042,31.565-4.77,62.194-23.319     c47.996-29.067,58.68-70.204,44.762-97.83c-2.411-4.787-9.064,27.788-62.859,52.263c-1.207,0.549-1.964,1.29-2.469,2.492     c-8.24,19.614-32.964,32.115-44.376,16.986c-5.429-7.196,3.955-5.032-23.88-2.669c-4.105,0.349-3.267-0.31-4.136,4.005     c-0.141,0.699,0.124,3.863-0.581,11.558c-3.175,34.617-14.014,40.997-10.673,41.023c11.313,0.088,11.231,0.385,11.149-1.02     c-0.326-5.615-0.563-11.786,1.208-17.226C246.762,343.068,253.274,343.211,258.53,348.176z M250.264,70.915     c-2.669,2.107-4.321,4.749-5.304,7.96c-4.165,13.612,2.404,32.311,11.077,45.173c11.497,17.048,48.746,12.408,65.445,0.007     c6.572-4.88,10.168-11.712,8.033-24.29c-2.54-14.966-13.464-35.322-28.297-39.148C285.217,56.488,263.37,60.57,250.264,70.915z      M96.478,276.615c0.374-1.546-0.031-2.78-1.329-3.748c-3.521-2.628-6.447-5.895-9.561-8.959     c-17.333-17.053-16.096-25.807-18.408-20.071c-21.914,54.353,34.581,100.911,92.571,116.535c4.904,1.321,9.868,2.42,14.814,3.579     c1.534,0.36,1.798-0.001,1.302-1.571c-2.305-7.292-4.67-12.33-3.411-29.725c0.719-9.939,3.56-17.019,5.297-22.482     c0.333-1.048,0.211-1.226-0.856-1.417c-35.419-6.36-33.073-11.957-35.151-5.962c-1.981,5.716-5.34,10.49-9.867,14.441     C115.678,331.376,87.298,314.574,96.478,276.615z M353.709,244.825c-11.308,4.947-23.787,0.148-30.686-9.802     c-10.181-14.683-6.21-29.486-7.289-39.643c-1.958-18.427-18.065-9.817-17.336,8.602c0.419,10.568,4.309,20.937,9.352,30.329     c19.107,35.578,9.149,54.826,11.096,56.162c0.692,0.475,1.517-0.306,2.233-0.646c78.287-37.199,89.972-121.71,41.501-172.316     c-0.986-1.03-1.266-0.976-1.689,0.485c-2.141,7.407-1.539,12.337-1.078,16.584c1.627,15.011,7.136,19.668,12.168,39.853     C378.69,201.346,379.103,233.717,353.709,244.825z M201.506,238.221c-1.671-9.537-7.514-18.462-16.573-22.399     c-8.79-3.82-18.614-1.743-25.645,4.607c-11.257,10.168-14.446,27.059-15.274,41.476c-0.791,13.781,1.827,23.301,0.117,31.365     c-0.758,3.578,0.158,3.417,2.647,4.277c12.786,4.419,28.075,7.502,30.995,7.879c3.016,0.39,0.322,0.538,11.267-17.62     c3.403-5.645,6.103-11.76,8.408-17.913C201.046,260.288,203.312,248.533,201.506,238.221z M96.961,270.063     c2.286,1.874,0.523-4.971,14.101-28.173c12.701-21.704,24.025-28.947,28.239-43.216c2.393-8.102-1.288-18.303-8.838-15.088     c-3.3,1.405-6.42,4.734-8.518,7.647c-9.66,13.411-7.501,19.616-16.481,31.128c-17.277,22.148-52.607,0.589-28.216-51.413     c8.618-18.373,18.26-28.153,21.359-33.299c6.037-10.023,6.734-20.317-1.349-28.905c-0.912-0.969-1.279-0.948-2.292,0.004     C39.56,160.82,50.173,231.72,96.961,270.063z M255.675,239.872c-7.921,5.881-10.928,25.537-11.714,35.395     c-0.618,7.743-0.45,15.516-0.501,23.276c-0.014,2.082-1.092,10.245,2.339,9.929c23.847-2.197,22.062-2.095,21.864-4.594     c-0.487-6.136,0.122-13.685,4.586-24.005C281.976,257.386,268.937,230.026,255.675,239.872z M287.165,383.148     c-4.38-8.019-13.182-13.255-19.665-19.404c-2.717-2.577-5.286-5.328-7.457-8.387c-2.081-2.934-9.332-12.047-12.359-5.112     c-0.96,2.201-2.099,7.938-1.184,15.664c2.206,18.628,15.968,41.695,32.643,38.237C288.5,402.207,291.448,390.99,287.165,383.148z     "/>
			<g>
				<path style="fill:#000E3F;" d="M224.512,183.892c-3.282,0-6.55-0.937-9.637-2.81c-7.746-4.701-12.953-14.434-12.662-23.67      c0.037-1.199,1.117-2.144,2.236-2.101c1.2,0.038,2.139,1.039,2.102,2.237c-0.239,7.622,4.208,15.96,10.576,19.824      c3.26,1.975,8.415,3.619,14.457,0.224c6.566-3.686,9.869-12.945,10.771-20.382c0.144-1.189,1.206-2.03,2.415-1.893      c1.191,0.144,2.039,1.226,1.893,2.416c-1.03,8.492-4.973,19.164-12.953,23.643C230.726,183.056,227.612,183.892,224.512,183.892      z"/>
			</g>
			<path style="fill:#000E3F;" d="M267.25,164.318c-5.233-0.009-9.945-4.525-9.758-9.848c0.196-5.575,4.128-9.701,9.868-9.63     c5.714,0.07,9.656,4.085,9.79,9.731C277.273,159.791,272.683,164.185,267.25,164.318z"/>
			<path style="fill:#000E3F;" d="M181.243,144.822c5.458-0.06,9.922,4.174,9.88,9.602c-0.046,5.782-3.993,9.654-9.687,9.798     c-6.159,0.155-9.855-4.947-9.893-9.584C171.501,149.712,175.765,144.721,181.243,144.822z"/>
		</g>
	</g>
</g>















</svg>
