<?xml version="1.0" encoding="UTF-8"?>
<!-- Generator: Adobe Illustrator 25.2.1, SVG Export Plug-In . SVG Version: 6.00 Build 0)  -->
<svg xmlns="http://www.w3.org/2000/svg" xmlns:xlink="http://www.w3.org/1999/xlink" version="1.1" id="Capa_1" x="0px" y="0px" viewBox="0 0 512 512" style="enable-background:new 0 0 512 512;" xml:space="preserve" width="512" height="512">
<g>
	<g>
		<g>
			<g>
				<path style="fill:#00B0C4;" d="M253.179,334.056c-1.777-1.163-2.29-3.519-1.134-5.313l130.518-204.576l5.577-8.741      l51.135-80.146c1.149-1.811,3.563-2.326,5.347-1.147l6.69,4.361c1.79,1.197,2.281,3.6,1.102,5.384l-52.965,78.944      L270.279,315.419l-11.767,17.555C257.325,334.74,254.95,335.202,253.179,334.056z"/>
				<path style="fill:#FF8EDE;" d="M452.408,43.887l-45.414,67.717l-7.547,11.235l-11.31-7.4l7.273-11.415l43.859-68.735      c1.162-1.808,3.567-2.325,5.366-1.148l6.676,4.368C453.11,39.688,453.601,42.099,452.408,43.887z"/>
				<polygon style="fill:#FC09B2;" points="406.994,111.605 399.447,122.84 388.137,115.441 395.41,104.026     "/>
				<path style="opacity:0.25;fill:#000E3F;" d="M253.179,334.056c-1.777-1.163-2.29-3.519-1.134-5.313l130.518-204.576      c-0.402,7.755-2.831,19.032-11.45,31.907c-29.447,43.996-58.031,88.582-86.911,132.949      c-5.888,9.051-12.954,17.299-13.923,26.396l-11.767,17.555C257.325,334.74,254.95,335.202,253.179,334.056z"/>
				<path style="opacity:0.5;fill:#FFFFFF;" d="M441.019,51.803c-2.197,3.9-4.553,7.691-6.936,11.464      c-2.363,3.787-4.845,7.494-7.327,11.199c-2.512,3.686-5.038,7.363-7.673,10.965l-3.965,5.396      c-1.379,1.76-2.703,3.558-4.127,5.286c-0.643,0.781-1.797,0.892-2.577,0.249c-0.691-0.569-0.857-1.539-0.441-2.295      c1.078-1.964,2.256-3.86,3.38-5.792l3.543-5.682c2.369-3.783,4.848-7.491,7.341-11.19c2.522-3.679,5.045-7.358,7.686-10.956      c2.621-3.612,5.271-7.206,8.079-10.691c0.633-0.787,1.786-0.911,2.572-0.276C441.28,50.05,441.451,51.037,441.019,51.803z"/>
			</g>
			<path style="fill:#000E3F;" d="M452.811,40.378c0.42,1.123,0.313,2.425-0.405,3.502l-52.961,78.953L258.504,332.969     c-1.182,1.772-3.557,2.243-5.326,1.086c-0.715-0.469-1.226-1.133-1.505-1.878c-0.411-1.098-0.318-2.369,0.367-3.437     l136.094-213.307l51.132-80.15c1.163-1.808,3.567-2.325,5.366-1.148l6.676,4.368C452.024,38.972,452.533,39.636,452.811,40.378      M455.881,39.228L455.881,39.228c-0.535-1.43-1.495-2.629-2.778-3.468l-6.676-4.367c-1.605-1.051-3.522-1.41-5.397-1.01     c-1.877,0.4-3.483,1.511-4.522,3.128L385.37,113.67L249.276,326.977c-1.205,1.877-1.459,4.254-0.673,6.35     c0.536,1.432,1.497,2.633,2.78,3.472c3.266,2.136,7.684,1.234,9.848-2.01L402.168,124.66l52.961-78.953     C456.405,43.79,456.684,41.372,455.881,39.228L455.881,39.228z"/>
		</g>
		<g>
			<g>
				<path style="fill:#00B0C4;" d="M298.984,352.514c-2.079-0.432-3.418-2.438-2.998-4.531l46.694-238.13l1.996-10.174      l18.295-93.292c0.408-2.106,2.466-3.467,4.558-3.022l7.822,1.613c2.104,0.459,3.44,2.516,2.993,4.608l-20.438,92.843      l-49.819,226.486l-4.535,20.641C303.093,351.635,301.052,352.933,298.984,352.514z"/>
				<path style="fill:#FF8EDE;" d="M378.341,9.596l-17.514,79.633l-2.917,13.217l-13.232-2.752l2.596-13.284l15.695-80.012      c0.42-2.108,2.47-3.468,4.575-3.03l7.811,1.625C377.459,5.431,378.798,7.495,378.341,9.596z"/>
				<polygon style="fill:#FC09B2;" points="360.827,89.229 357.91,102.446 344.678,99.693 347.274,86.41     "/>
				<path style="opacity:0.25;fill:#000E3F;" d="M298.984,352.514c-2.079-0.432-3.418-2.438-2.998-4.531l46.694-238.13      c2.461,7.365,4.323,18.75,1.007,33.884c-11.324,51.716-21.63,103.666-32.29,155.519c-2.172,10.578-5.733,20.837-3.31,29.659      l-4.535,20.641C303.093,351.635,301.052,352.933,298.984,352.514z"/>
				<path style="opacity:0.5;fill:#FFFFFF;" d="M370.634,21.127c-0.619,4.433-1.426,8.823-2.265,13.206      c-0.814,4.389-1.77,8.746-2.726,13.103c-0.99,4.349-1.998,8.695-3.133,13.011l-1.717,6.472c-0.64,2.143-1.216,4.3-1.909,6.429      c-0.313,0.961-1.347,1.487-2.308,1.174c-0.851-0.277-1.36-1.119-1.25-1.974c0.286-2.223,0.689-4.418,1.029-6.627l1.221-6.584      c0.822-4.387,1.773-8.745,2.742-13.099c1.002-4.347,2.006-8.693,3.149-13.007c1.119-4.32,2.272-8.634,3.611-12.904      c0.302-0.964,1.329-1.5,2.293-1.198C370.236,19.4,370.756,20.256,370.634,21.127z"/>
			</g>
			<path style="fill:#000E3F;" d="M377.433,6.182c0.802,0.891,1.178,2.143,0.904,3.408l-20.431,92.85l-54.362,247.116     c-0.453,2.082-2.491,3.388-4.56,2.958c-0.837-0.174-1.555-0.606-2.088-1.198c-0.784-0.871-1.162-2.089-0.914-3.333     l48.692-248.296l18.291-93.294c0.421-2.109,2.47-3.469,4.575-3.031l7.81,1.625C376.187,5.161,376.903,5.593,377.433,6.182      M379.87,3.99L379.87,3.99c-1.021-1.135-2.353-1.9-3.853-2.213l-7.81-1.625c-1.878-0.391-3.794-0.024-5.393,1.034     c-1.601,1.058-2.689,2.68-3.065,4.565l-18.293,93.305l-48.692,248.296c-0.435,2.188,0.198,4.493,1.695,6.157     c1.022,1.137,2.356,1.904,3.857,2.215c3.821,0.794,7.603-1.66,8.431-5.472l54.361-247.108l20.432-92.85     C382.026,8.044,381.401,5.692,379.87,3.99L379.87,3.99z"/>
		</g>
	</g>
	<g>
		<g>
			<g>
				<path style="fill:#00B0C4;" d="M89.378,212.182c-8.909,5.001-16.106,11.907-22.225,20.006      C51.118,253.35,53.5,269.87,53.048,270.859c-0.61,1.357-0.672,2.997-1.845,4.09c-1.874-1.575-5.929-11.477-6.33-12.383      c-0.935-2.163-0.449-3.634,0.106-5.754c6.521-24.821,25.901-45.609,46.749-60.061c0.932-0.643,1.068-0.585,1.406,0.567      c0.962,3.169,1.926,6.338,2.852,9.512C96.678,209.243,95.81,208.576,89.378,212.182z"/>
				<path style="fill:#00B0C4;" d="M252.693,181.951c-0.714,1.406-1.76,0.319-4.509-1.207c-1.824-0.995-3.79-1.642-5.761-2.325      c-3.196-1.125-0.643-0.786-2.317-9.172c-0.843-4.174-2.309-5.082-6.302-3.948c-2.982,0.83-5.981,1.682-8.821,2.954      c-2.75,1.243,0.431-5.187-0.706-16.626c-0.254-2.758,3.567-2.863,5.482-3.109c8.577-1.146,17.185-1.414,25.818-1.613      c-2.63,2.568-10.187,5.354-9.829,16.409c0.163,4.934,2.556,8.868,6.669,11.682C255.872,177.373,256.051,175.316,252.693,181.951      z"/>
				<path style="fill:#00B0C4;" d="M183.628,169.545c0.032,0.271,0.011,0.714-0.158,0.825c-0.461,0.294-0.736-0.169-1.008-0.448      c-9.445-9.574-11.934-9.37-9.543-10.094c8.713-2.629,9.201-2.229,10.445-2.872C186.536,156.488,182.72,162.204,183.628,169.545z      "/>
				<path style="fill:#00B0C4;" d="M447.156,251.645c9.3,83.659-49.146,171.758-141.456,202.151      C183.483,494.009,40.515,406.45,41.76,271.886c0.023-1.653,0.177-3.304,0.33-4.955c0.025-0.406,0.348-0.775,0.827-0.758      c3.413,0.164,7.714,31.937,66.345,55.047c99.294,39.16,274.025,5.117,319.439-74.539c10.581-18.589,8.931-27.546,11.109-27.585      c0.256-0.012,0.666,0.196,0.745,0.407c0.515,1.241,1.03,2.501,1.348,3.785c0.327,1.208,3.256,14.306,3.897,17.55      C446.081,242.27,447.132,251.445,447.156,251.645z"/>
				<path style="fill:#00B0C4;" d="M272.796,508.731c-34.208,2.952-69.544-0.581-99.725-17.435c-3.984-2.225-6.48-5.521-7.664-10.05      c-2.3-8.797-1.148-19.038,0.512-28.008c1.034-5.585,0.282-1.481,29.24,5.754c38.889,9.716,77.431,7.957,116.117-5.734      c19.875-7.033,40.974-18.878,48.589-24.717c1.198-0.918,2.38-1.575,3.189-0.311c0.953,1.488,7.702,15.654,7.844,28.458      c0.056,5.072-1.976,8.993-5.634,12.262c-6.5,5.809-13.354,11.114-20.9,15.548c-20.574,12.09-44.037,19.794-62.703,22.735      C278.707,507.698,275.795,508.464,272.796,508.731z"/>
				<path style="fill:#91D728;" d="M221.079,169.161c-0.766,5.696-9.816,4.823-21.04,21.212c-0.291,0.426-0.502,0.909-0.809,1.322      c-0.58,0.779-1.444,0.739-2.068-0.08c-1.04-1.367-2.566-5.268-8.746-13.17c-1.802-2.304-2.568-4.906-2.463-7.811      c0.135-3.717-0.932-14.505,8.031-29.167c3.66-5.987,8.394-10.992,13.873-15.328c2.511-1.987,3.061-1.937,4.951,0.627      c3.61,4.896,5.984,10.354,7.445,16.248C222.65,152.689,222.356,159.664,221.079,169.161z"/>
				<path style="fill:#91D728;" d="M200.207,198.11c-0.865-1.986-1.369-2.93-0.273-4.992c5.123-9.641,16.355-18.457,26.89-23.04      c2.129-0.926,7.277-2.481,8.275-2.573c1.5-0.139,2.116,0.257,2.47,1.699c3.963,16.139-7.716,39.378-29.916,48.377      c-1.067,0.432-2.389,0.527-2.601-0.633C204.829,215.731,204.472,207.906,200.207,198.11z"/>
			</g>
			<g>
				<path style="fill:#FFFFFF;" d="M136.847,254.377c-6.236-3.222,2.91-2.551,7.02-11.426c1.548-3.341,0.092-7.102-2.609-9.356      c-4.549-3.797-10.416-2.887-15.891-2.682c-1.426,0.052-2.613,0.431-2.723-1.262c-0.168-2.575,0.86-4.987-0.362-7.499      c-2.314-4.753-8.177-3.268-11.891-1.47c-2.293,1.11-3.948,3.098-5.542,0.231c-12.927-23.263-18.792-60.381,4.012-73.463      c8.589-4.927,19.234-4.468,28.547-2.168c11.887,2.936,22.976,9.012,32.585,16.51c22.29,17.391,40.992,48.589,30.979,72.252      C189.835,260.362,161.775,267.256,136.847,254.377z"/>
				<path style="fill:#FFFFFF;" d="M406.341,159.091c-0.272,2.633,2.148,1.014,6.561,3.589c10.659,6.221,11.373,20.796,2.754,26.187      c-3.96,2.477,0.614,1.56,2.978,9.029c2.205,6.966-1.993,13.686-9.229,14.665c-0.919,0.124-1.855,0.134-2.785,0.168      c-2.355,0.087-1.043,0.579-1.43,5.708c-0.852,11.288-13.564,13.927-21.42,7.503c-2.963-2.423-2.758-1.63-5.342,1.569      c-6.951,8.608-20.461,6.423-25.736-7.233c-1.159-3.001-1.157-3.035-3.711-1.292c-10.121,6.908-20.072-4.988-13.935-19.04      c0.164-0.377,0.478-0.695,0.612-1.078c0.434-1.247,2.109-2.171,1.607-3.5c-0.427-1.129-2.168-0.984-3.227-1.625      c-2.323-1.406-4.642-2.874-5.836-5.417c-3.201-6.817-1.617-13.602,5.312-17.603c4.116-2.377,6.631-1.189,3.921-4.09      c-8.201-8.78,3.677-23.794,16.186-17.326c1.76,0.91,2.352,1.226,2.606-2.268c0.481-6.628,6.244-11.077,13.022-10.296      c8.237,0.95,11.321,7.086,12.683,8.553c1.078,1.161,1.589-0.113,4.653-2.071c7.459-4.767,16.918-1.458,19.221,7.847      C406.474,153.773,406.603,156.556,406.341,159.091z"/>
				<path style="fill:#FFFFFF;" d="M329.217,132.769c0.448,2.053,0.272,4.212-0.433,6.307c-1.13,3.361,0.924,1.092,6.469,4.306      c1.467,0.851,2.592,2.068,3.485,3.481c1.366,2.162-0.783,2.997-2.68,5.663c-2.891,4.061-3.365,8.347-1.028,12.843      c0.982,1.888,1.085,2.51-0.745,3.544c-0.54,0.305-1.129,0.53-1.653,0.859c-5.093,3.195-8.336,8.589-7.283,14.637      c0.581,3.335,1.187,1.177,1.789,10.679c0.693,10.928-8.938,18.895-22.036,11.623c-2.611-1.45-2.59-1.456-4.45,0.654      c-5.432,6.163-14.166,8.157-20.5,1.973c-3.918-3.825-4.71-7.588-5.346-9.304c-1.835-4.955-2.229,0.38-11.44-0.319      c-8.208-0.622-12.732-12.238-5.888-21.667c1.671-2.302,1.61-2.676-1.127-3.615c-10.994-3.775-11.391-21.007,1.509-25.381      c0.293-0.099,0.611-0.127,0.903-0.23c1.784-0.635,0.85-1.634-0.325-2.698c-6.308-5.711-2.099-16.889,8.473-18.582      c4.731-0.757,7.497,1.432,9.213,2.101c0.986,0.384,1.614,0.003,1.652-1.109c0.202-5.872,2.943-11.366,9.11-12.4      c6.352-1.066,11.861,1.474,15.146,7.291c3.642,6.45,2.277-1.726,15.06-2.054C322.856,121.223,329.139,125.882,329.217,132.769z"/>
			</g>
			<g>
				<path style="fill:#FFCF00;" d="M296.482,262.198c0.067-0.705-0.059-1.436-0.157-2.147c-0.219-1.574-0.222-1.552,1.176-2.444      c10.641-6.786,20.942-18.281,22.345-30.66c0.556-4.905-2.705-9.646-8.511-9.563c-5.184,0.074-11.211,4.75-14.184,8.642      c-5.523,7.23-2.565-2.598-10.358-4.607c-7.549-1.946-15.346,14.612-12.722,27.808c1.048,5.271-5.273,4.279-10.221,17.344      c-0.183,0.483-0.298,0.996-0.516,1.462c-0.417,0.895-1.337,1.052-2.01,0.302c-2.004-2.236-3.892-4.58-5.967-6.745      c-11.378-11.871-24.89-16.719-32.401-16.602c-8.262,0.129-17.352,8.969-13.062,18.226c1.104,2.382,1.721,2.888-0.459,4.035      c-8.428,4.436-8.911,15.7,2.589,23.136c5.353,3.461,11.498,8.283,14.225,13.995c1.903,3.984,0.477,7.823-2.821,9.23      c-3.468,1.48-7.072,1.338-10.698,0.88c-2.586-0.327-5.026-1.212-7.495-1.989c-1.708-0.537-1.445-1.712-2.835-4.909      c-12.664-29.137-38.423-36.647-28.958-6.43c0.5,1.597,1.281,2.871-1.002,3.358c-0.708,0.151-1.441,0.182-2.15,0.331      c-13.072,2.761-0.493,21.257,17.687,25.117c1.247,0.265,2.07,0.835,2.495,2.026c0.479,1.341,1.805,3.376-0.033,3.659      c-4.401,0.678-33.311-1.836-60.65-9.079c-0.746-0.198-1.841-0.236-1.931-1.27c-0.112-1.29,1.132-1.29,1.946-1.587      c47.528-17.301,42.846-46.493,21.573-46.608c-3.076-0.017-1.089-0.931-3.379-5.773c-2.035-4.302-5.615-6.346-10.194-6.381      c-5.848-0.045-10.869,1.964-14.863,6.507c-10.331,11.75-27.56,13.573-23.282-1.059c2.156-7.375,5.544-8.71,7.409-13.199      c0.892-2.149,2.562-1.665,7.042-1.482c13.618,0.555,15.622-4.04,19.671-1.575c9.302,5.662,21.074,8.88,32.674,7.781      c10.249-0.971,18.437-4.736,26.31-13.11c6.616-7.038,11.77-16.756,12.189-26.564c0.105-2.448,0.198-2.552,2.45-3.3      c12.238-4.07,24.386-14.972,30.102-31.029c2.117-5.947,0.805-8.147,3.681-7.398c3.652,0.951,6.956,2.629,9.966,4.911      c1.061,0.805,1.542,1.68,1.555,3.12c0.066,7.353,6.847,14.77,16.656,12.1c1.166-0.317,2.337-1.395,3.489-0.757      c1.095,0.607,1.119,2.134,1.615,3.256c5.956,13.449,18.338,13.95,26.222,5.999c3.309-3.337,0.989-1.883,9.205,1.002      c8.914,3.129,16.143-2.574,17.833-9.644c1.107-4.628,0.406-3.384,1.043-7.054c0.096-0.556,0.71-0.879,1.172-0.62      c6.827,3.829,5.664,2.703,3.866,6.758c-5.632,12.708,2.012,26.204,13.453,21.795c0.767-0.295,1.456-0.788,2.196-1.157      c2.407-1.201,1.489,1.406,5.379,6.572c5.909,7.849,16.701,10.256,24.391,1.887c2.731-2.972,2.383-2.32,5.286-0.656      c3.43,1.965,6.986,2.978,10.987,2.467c5.751-0.735,10.328-5.829,10.873-10.838c0.522-4.791-0.621-5.599,3.709-5.935      c5.115-0.397,11.07-5.869,10.304-13.353c-0.853-8.335-6.422-8.551-2.754-11.303c1.773-1.33,2.44-0.369,4.989,2.248      c5.596,5.747,10.267,12.168,14.162,19.181c1.169,2.104,1.466,4.171,1.122,6.538c-5.998,41.313-45.249,70.726-82.838,88.423      c-1.536,0.723-2.6,1.233-3.137,0.53c-0.595-0.78,0.168-1.915,0.994-3.049c7.221-9.915,13.455-23.051,14.345-35.575      c0.622-8.751-2.023-17.277-10.297-20.298c-4.775-1.743-8.929-0.482-12.555,2.95c-0.794,0.752-1.124,2.222-2.469,2.128      c-1.066-0.075-1.616-1.208-2.393-1.867c-2.395-2.031-5.22-3.072-8.273-3.127c-5.707-0.104-10.567,5.635-11.608,11.209      c-1.274,6.819-4.535,16.482-9.753,21.093c-4.345,3.839-10.293,2.13-12.676-8.62      C297.002,269.729,296.261,264.526,296.482,262.198z"/>
				<path style="fill:#FFCF00;" d="M184.692,213.001c-0.083,1.147-0.246,2.248-0.486,3.322c-6.87,30.842-50.299,21.778-59.097-9.718      c-2.393-8.576-1.224-16.345,2.37-22.238c6.061-9.982,19.038-14.547,33.145-8.353      C177.785,183.536,185.675,200.412,184.692,213.001z"/>
				<path style="fill:#FFCF00;" d="M55.834,263.935c3.749-23.637,21.757-44.605,39.773-52.268c2.687-1.143,2.892-1.066,3.965,1.481      c4.445,10.546,6.528,9.845,3.521,12.631c-2.893,2.679-5.696,5.432-7.619,8.935c-2.196,4.002-5.111,0.683-14.041,6.43      C59.418,255.313,57.299,270.571,55.834,263.935z"/>
			</g>
			<path style="opacity:0.75;fill:#FFFFFF;" d="M176.462,198.118c2.481,3.682-0.593,7.42-3.888,6.047     c-2.938-1.224-12.289-14.564-27.484-20.872c-1.523-0.632-6.166-3.074-3.491-4.819     C145.234,176.102,165.19,181.389,176.462,198.118z"/>
			<g style="opacity:0.45;">
				<path style="fill:#000E3F;" d="M447.983,264.678c0.51,19.335-2.95,35.375-2.963,35.509c-0.131,1.383-0.93,2.219-2.088,2.874      c-15.575,8.803-21.9,5.25-30.142,10.052c-7.587,4.42-5.743,8.666-11.308,18.361c-5.151,8.975-13.262,15.988-23.56,14.47      c-8.946-1.319-12.067-4.663-18.249-4.812c-11.085-0.266-12.895,8.001-17.635,15.822c-7.084,11.688-20.334,19.544-33.258,12.996      c-6.206-3.144-13.979-6.699-20.895-6.198c-11.913,0.863-9.407,12.236-22.222,20.182c-10.018,6.212-20.172,1.079-28.434-7.262      c-8.203-8.281-18.27-4.665-26.596,1.4c-5.68,4.137-12.426,12.799-26.928,7.874c-18.593-6.315-17.236-20.681-31.36-20.498      c-10.617,0.138-19.341,18.209-37.757,7.687c-5.527-3.158-9.599-7.796-13.254-12.871c-2.17-3.013-3.961-7.866-12.308-9.48      c-8.486-1.641-12.445,2.368-29.251-2.106c-1.643-0.437-2.643-1.327-3.33-2.909c-12.253-28.219-16.417-57.576-14.336-78.901      c0.024-0.243,0.332-0.548,0.582-0.658c0.862-0.379,1.411,0.742,1.99,1.973c45.707,97.184,282.201,87.442,366.259,1.132      c29.466-30.255,25.833-50.318,28.909-50.246c0.429,0.01,0.772,0.311,0.917,0.727c0.409,1.172,0.952,2.327,1.151,3.536      c0.822,5.006,2.381,9.841,3.273,14.843C448.108,254.565,447.782,257.058,447.983,264.678z"/>
				<path style="fill:#000E3F;" d="M43.1,260.623c4.137-24.711,24.628-47.996,44.924-62.556c1.177-0.844,2.309-1.758,3.526-2.539      c2.753-1.768,2.674,1.534,3.874,5.656c2.156,7.408,2.939,7.625,1.167,8.542c-5.124,2.653-12.328,5.355-22.43,15.851      c-12.931,13.436-19.379,29.398-19.915,41.42c-0.018,0.413-0.165,0.848-0.079,1.234c0.652,2.894-1.07,5.185-1.935,7.685      c-0.283,0.815-1.208,0.865-1.713,0.127C48.082,272.479,45.476,267.66,43.1,260.623z"/>
				<path style="fill:#000E3F;" d="M254.094,145.205c1.305-0.168,2.319,0.226,2.703,1.489c0.544,1.789-1.696,1.364-5.298,4.702      c-6.781,6.285-6.493,19.269,3.384,23.756c1.742,0.791,2.292,1.493,0.903,3.208c-2.591,3.199-1.595,7.058-4.798,5.301      c-0.68-0.373-5.552-3.57-9.235-4.305c-1.467-0.293-2.066-1.209-2.12-2.624c-0.036-0.93-0.267-1.874-0.165-2.784      c0.238-2.126-0.548-4.074-0.915-6.087c-0.262-1.441-0.922-1.805-2.478-1.711c-7.71,0.465-13.913,6.369-13.568,2.456      c0.173-1.956,0.435-3.903,0.625-5.857c1.595-16.321-5.28-13.839,9.347-15.626C246.384,145.424,247.411,146.064,254.094,145.205z      "/>
				<path style="fill:#000E3F;" d="M184.559,155.88c1.597-0.027,1.396,1.447,1.076,2.885c-1.572,7.064-0.817,11.027-1.072,12.615      c-0.11,0.682-0.878,1.062-1.398,0.665c-0.489-0.374-0.948-0.795-1.378-1.237c-7.697-7.904-9.386-8.267-11.021-9.969      c-1.696-1.766,3.658-2.559,5.64-3.189C178.565,156.963,182.756,155.91,184.559,155.88z"/>
			</g>
			<g style="opacity:0.65;">
				<path style="fill:#FD8A02;" d="M173.78,302.038c0.877,2.959-1.659,2.289-4.099,2.955c-3.802,1.038-5.572,4.15-4.37,7.877      c2.331,7.224,8.473,8.656,5.298,10.242c-13.608,6.798-15.342,5.979-18.144,7.201c-2.598,1.133-4.721,0.92-21.794-3.463      c-2.161-0.555-2.75-0.764-2.814-1.553c-0.104-1.284,1.138-1.286,1.954-1.582c13.238-4.817,30.686-13.832,35.753-26.89      c2.247-5.792,1.355-10.949-2.868-15.518c-2.163-2.34-0.982-1.433,5.399-5.211c9.459-5.599,18.105-14.175,22.56-24.465      c0.908-2.096,5.8-5.886,9.726-13.593c1.084-2.128,2.012-2.511,3.876-0.259c2.73,3.299,4.724,7.033,6.384,10.962      c1.68,3.976-3.301,5.25-1.527,12.461c0.753,3.059,3.206,4.514,0.597,5.917c-7.115,3.826-8.433,10.918-3.906,17.3      c2.185,3.08,2.418,2.25,0.264,6.229c-1.358,2.508-4.36,7.304-6.401,9.108c-0.356,0.314-0.837,0.298-1.119-0.027      c-1.967-2.264-7.812-12.78-16.87-16.973c-4.064-1.882-8.081-1.15-9.705,3.228c-0.469,1.265-0.78,2.58-0.702,3.949      C171.645,296.575,171.946,295.845,173.78,302.038z"/>
				<path style="fill:#FD8A02;" d="M273.966,248.357c1.045,2.362-0.242,4.266-2.482,6.315c-5.924,5.419-7.79,12.593-8.16,13.378      c-1.352,2.867-3.614-2.543-8.008-6.425c-7.395-6.533-6.962-18.951-26.547-37.38c-3.006-2.828-6.426-5.216-9.658-7.804      c-4.373-3.501-0.503-0.61,10.162-13.29c0.86-1.022,1.484-2.238,2.268-3.329c0.957-1.333,1.332-1.444,2.88-0.953      c11.089,3.522,28.441,14.72,39.98,29.918c1.127,1.484,1.356,2.756,0.81,4.54C273.774,238.013,273.079,242.815,273.966,248.357z"/>
				<path style="fill:#FD8A02;" d="M383.446,254.255c11.479,16.262,24.274,15.768,22.356,18.189c-0.337,0.425-6.361,5.724-9.238,7.8      c-7.608,5.492-8.574,7.016-16.725,11.767c-0.974,0.568-1.748,0.468-2.535-0.229c-2.073-1.835-7.102-5.943-11.208-11.122      c-0.769-0.97-1.02-1.942-0.613-3.16c1.47-4.398,2.821-13.3,0.762-20.164c-1.662-5.541-5.217-9.301-10.965-10.735      c-1.792-0.447-2.991-0.017-3.03-1.404c-0.128-4.54,1.123-10.012,3.585-14.601c1.106-2.061,2.11-0.331,4.273,0.965      c3.916,2.346,8.03,3.053,12.455,1.572c3.395-1.136,3.412-1.085,3.817,2.556C377.103,242.173,378.249,246.893,383.446,254.255z"/>
				<path style="fill:#FD8A02;" d="M296.507,262.113c0.052-0.406,0.144-0.887-0.012-1.228c-0.948-2.079,0.293-2.873,1.87-3.814      c9.244-5.519,20.218-18.156,21.491-30.199c0.51-4.826-2.732-9.618-8.59-9.488c-7.863,0.174-14.412,9.118-15.94,10.844      c-0.277,0.313-0.708,0.593-1.093,0.373c-0.693-0.397-0.62-0.87,2.223-5.738c4.881-8.356,7.437-9.935,10.105-12.472      c1.606-1.527,2.462-0.19,6.146,0.462c7.59,1.343,15.432-4.502,15.751-14.721c0.026-0.823,0.148-1.649,0.3-2.46      c0.129-0.689,0.799-0.993,1.437-0.644c3.987,2.183,5.208,2.639,4.499,4.615c-0.68,1.897-4.972,8.57-1.41,17.67      c0.626,1.599,1.764,2.784,2.793,4.073c1.099,1.377,1.168,1.699-0.146,2.817c-5.67,4.825-8.835,17.508-8.824,24.256      c0.002,1.147-0.464,1.956-1.429,2.57c-2.547,1.618-5.114,4.959-6.006,9.439c-4.734,23.789-17.976,30.738-22.381,12.591      C297.02,269.954,296.21,264.417,296.507,262.113z"/>
				<path style="fill:#FD8A02;" d="M422.308,251.109c-1.459-0.29-3.524-0.557-5.506-1.12c-12.903-3.663-20.194-11.635-22.02-17.493      c-0.566-1.817,1.056-1.959,2.153-2.271c10.928-3.111,8.15-13.511,11.319-10.646c4.153,3.754,9.179,4.864,14.587,5.197      c10.021,0.616,14.729-5.082,13.779-0.991c-2.421,10.42-8.184,22.007-11.798,26.476      C424.33,250.87,423.657,251.088,422.308,251.109z"/>
				<path style="fill:#FD8A02;" d="M100.503,272.23c-2.451-0.004,0.532-5.778,1.829-7.827c1.655-2.615,3.805-4.905,5.083-7.778      c0.621-1.395,1.868-1.091,7.358-0.912c7.177,0.234,13.734-1.645,14.072-1.826c2.815-1.513,4.916,0.13,7.044,1.592      c0.532,0.366,0.473,0.965,0.063,1.342c-7.176,6.586-15.749,11.034-24.192,13.432      C107.707,271.404,105.034,272.237,100.503,272.23z"/>
				<path style="fill:#FD8A02;" d="M184.692,213.001c-0.083,1.147-0.246,2.248-0.486,3.322c-6.87,30.842-50.299,21.778-59.097-9.718      c-2.393-8.576-1.224-16.345,2.37-22.238c5.307-0.575,15.333,0.143,18.632,12.959      C149.938,212.28,165.696,226.828,184.692,213.001z"/>
			</g>
			<g>
				<path style="fill:#FC09B2;" d="M147.675,275.199c-0.001,0.826-0.018,1.653,0.003,2.479c0.026,1.08,0.538,1.589,1.581,1.22      c1.523-0.539,3.065-0.582,4.583-0.402c6.255,0.743,10.366,4.543,11.41,10.551c0.551,3.171-0.154,6.377-1.722,9.31      c-1.628,3.045-3.682,5.76-6.19,8.113c-4.947,4.643-10.579,8.297-16.62,11.349c-5.104,2.578-10.503,4.375-15.934,6.098      c-1.547,0.49-3.01,0.364-4.556-0.117c-10.716-3.333-20.969-7.756-30.844-13.054c-8.426-4.521-16.274-9.923-23.383-16.315      c-4.232-3.805-8.098-7.993-11.59-12.523c-1.353-1.755-1.651-3.402-0.951-5.46c1.344-3.953,3.292-7.59,5.481-11.117      c4.47-7.205,10.178-13.303,16.759-18.597c3.315-2.667,6.852-5.013,10.77-6.734c3.284-1.443,6.68-2.163,10.278-1.654      c4.783,0.676,8.332,2.978,10.056,7.66c0.97,2.636,0.775,5.307,0.062,7.947c-0.738,2.729-1.968,5.23-3.814,7.399      c-1.904,2.238-3.247,4.789-4.251,7.537c-0.683,1.867-1.085,3.807-1.101,5.774c-0.025,3.067,1.811,6.161,4.99,7.105      c2.575,0.764,5.111,0.49,7.627-0.34c5.46-1.802,9.943-5.096,13.745-9.293c3.328-3.673,7.433-5.517,12.272-5.866      c2.747-0.198,5.316,0.291,7.605,2.06C146.232,270.1,147.463,272.331,147.675,275.199z"/>
				<path style="fill:#FC09B2;" d="M250.012,334.182c-2.032,0.241-6.036,1.014-10.056,1.113c-4.446,0.109-8.848,0.815-13.31,0.673      c-2.676-0.085-5.367,0.205-8.054,0.285c-7.24,0.216-14.471,0.079-21.707-0.005c-1.91-0.022-3.076-0.791-4.062-2.297      c-2.786-4.251-2.548-10.343,0.213-14.38c0.93-1.36,1.91-2.718,3.328-3.656c3.28-2.17,6.672-3.052,10.577-1.581      c4.422,1.666,9.033,2.246,13.742,1.378c1.013-0.187,2.043-0.398,2.995-0.773c3.279-1.292,4.916-4.08,4.625-7.601      c-0.158-1.909-0.831-3.625-1.81-5.234c-1.299-2.135-2.964-3.96-4.707-5.752c-2.917-2.999-6.471-5.137-9.783-7.604      c-1.75-1.303-3.433-2.657-4.765-4.417c-1.614-2.132-2.53-4.516-2.648-7.174c-0.169-3.797,1.488-6.6,4.867-8.31      c1.098-0.555,2.326-0.849,3.484-1.292c0.809-0.31,1.038-1.104,0.504-1.739c-0.331-0.395-0.774-0.699-1.087-1.105      c-2.561-3.322-3.18-6.899-1.289-10.749c2.031-4.134,5.545-6.293,9.897-7.261c2.794-0.622,5.576-0.344,8.299,0.409      c5.427,1.502,10.513,3.74,15.176,6.955c10.109,6.969,17.69,16.111,23.395,26.898c9.26,17.509,11.306,37.17,8.439,48.308      c-0.302,1.173-1.358,1.282-2.493,1.467C266.535,331.92,259.34,333.449,250.012,334.182z"/>
				<path style="fill:#FC09B2;" d="M295.034,261.764c0.04,0.672,0.147,1.198,0.089,1.704c-0.425,3.66,1.016,10.721,4.051,15.335      c3.905,5.937,11.297,5.989,17.224-6.252c1.173-2.422,1.747-4.928,3.521-3.58c2.204,1.674,4.652,2.666,7.388,3.003      c1.978,0.243,3.933-0.004,5.877-0.289c5.021-0.738,10.366,2.4,12.548,4.911c4.716,5.427,8.871,7.038,13.249,7.038      c0.414,0,0.83-0.055,1.242-0.029c2.084,0.132,1.023,2.267,0.072,4.311c-3.383,7.27-7.691,13.948-12.807,20.121      c-0.911,1.1-2.028,1.739-3.284,2.24c-16.619,6.625-28.252,10.773-52.614,16.62c-8.256,1.981-13.611,3.749-13.581,1.167      c0.029-2.514,4.702-26.145-12.496-53.632c-0.329-0.526-0.631-1.071-0.957-1.6c-0.516-0.838-0.66-1.729-0.408-2.682      c2.032-7.698,5.939-14.066,12.923-18.262c2.091-1.257,4.36-1.911,6.783-1.993c4.123-0.139,7.162,1.713,9.183,5.238      C294.439,257.583,294.826,259.097,295.034,261.764z"/>
				<path style="fill:#FC09B2;" d="M364.62,275.931c-0.894,3.728-1.062,5.997-4.674,6.365c-3.744,0.381-7.46-0.525-12.694-5.97      c-3.411-3.548-8.839-6.81-13.722-5.916c-9.186,1.682-14.903-2.682-14.079-5.538c0.917-3.178,1.325-6.498,2.587-9.577      c2.987-7.288,11.984-9.283,18.05-2.759c0.716,0.77,1.896,3.373,3.082,1.347C350.578,241.223,371.46,247.409,364.62,275.931z"/>
				<path style="fill:#FC09B2;" d="M282.573,151.65c-3.845,4.37-5.618,9.564-6.228,15.264c-0.865,8.09,1.811,12.381,4.507,16.997      c0.597,1.022-0.244,1.568-1.12,1.445c-2.449-0.343-8.813-6.9-8.966-16.63c-0.234-14.823,7.232-24.668,17.366-28.016      c16.612-5.489,35.285,12.218,29.872,35.433c-1.453,6.23-8.284,12.635-14.476,12.8c-16.605,3.815-28.199-22.625-9.247-30.583      c11.973-5.028,19.344,14.63,7.165,17.012c-1.491,0.292-2.718-0.324-3.173-1.36c-1.508-3.438,4.279-3.59,3.316-6.903      c-0.781-2.687-2.598-4.506-5.156-3.406c-3.87,1.666-6.498,4.898-6.136,9.808c1.007,13.637,23.64,14.828,22.762-6.469      C312.357,150.019,293.589,139.129,282.573,151.65z"/>
				<path style="fill:#FC09B2;" d="M349.036,186.194c-2.147-25.886,32.393-36.969,45.315-14.198      c5.384,9.488,5.264,23.996-5.419,29.946c-8.753,4.876-17.689,0.903-22.192-5.628c-4.768-6.916-2.359-17.936,6.372-21.415      c5.488-2.187,10.401,1.205,11.943,5.727c1.704,4.996-2.841,12.725-6.856,9.514c-3.476-2.781,3.197-5.001,0.358-8.55      c-3.393-4.241-10.817,3.382-8.162,10.225c1.586,4.086,4.567,6.386,8.918,6.608c11.131,0.568,14.962-13.354,11.081-21.691      c-3.887-8.35-14.152-15.154-23.301-10.856c-10.178,4.782-13.587,12.608-13.043,18.922c0.674,7.815,2.491,10.079,4.571,15.045      c0.56,1.338-1.515,2.794-4.81-1.818C351.23,194.413,349.839,190.323,349.036,186.194z"/>
			</g>
			<g>
				<path style="fill:#FF8EDE;" d="M276.876,326.318c-0.138,1.404-0.782,2.332-2.273,2.498c-2.267,0.253-4.374,1.251-6.679,1.372      c-17.67,0.927-31.449-5.813-39.47-15.163c-1.102-1.284-1.738-2.419-0.709-4.145c1.141-1.914,0.608-4.027,0.054-6.045      c-0.314-1.142-1.305-2.308-0.607-2.863c0.486-0.387,1.683,0.151,2.652,0.481c11.37,3.878,25.093,1.126,34.701-4.547      c6.642-3.922,7.615-6.867,8.671-3.989C277.064,304.41,277.932,315.567,276.876,326.318z"/>
				<path style="fill:#FF8EDE;" d="M318.242,224.923c1.511,9.507-9.126,22.351-16.764,28.366c-5.238,4.125-5.656,4.19-7.489,0.912      c-2.18-3.898-7.381-7.01-13.698-5.031c-2.942,0.922-4.497,2.345-4.953,0.084c-0.204-1.013-0.389-2.048-0.408-3.076      c-0.397-21.05,10.656-27.494,15.272-21.022c3.091,4.334,1.944,6.588,3.301,6.841c0.691,0.129,0.822-0.4,3.048-3.318      c3.67-4.811,10.51-11,16.265-9.888c3.255,0.629,4.871,2.218,5.353,5.526C318.214,224.624,318.243,224.934,318.242,224.923z"/>
				<path style="fill:#FF8EDE;" d="M112.219,283.228c0.26-1.797,0.969-3.07,2.678-3.83c3.181-1.415,6.937-5.083,7.728-5.68      c0.545-0.411,1.409-0.089,1.394,0.57c-0.282,11.901,14.967,10.544,16.327,23.714c0.543,5.249,2.801,9.704,7.155,12.921      c1.961,1.449,1.786,1.869,0.252,2.883c-5.303,3.507-11.073,6.046-17.028,8.199c-1.54,0.557-2.759,0.172-3.927-0.986      c-6.375-6.327-11.062-13.662-13.403-22.379C112.625,295.775,111.527,288.003,112.219,283.228z"/>
				<path style="fill:#FF8EDE;" d="M94.363,256.593c2.308,1.231,4.291,2.879,6.209,4.61c2.753,2.484-1.753,3.451-2.838,12.603      c-0.128,1.08-0.666,1.394-1.725,1.231c-13.397-2.067-25.679,1.837-35.75,12.109c-0.44,0.449-0.985,0.425-1.381,0.029      c-1.977-1.982-3.757-4.149-5.191-6.541c-2.779-4.635,7.332-18.655,10.671-22.895c2.169-2.754,4.766-4.512,8.344-4.621      C75.155,253.043,84.147,251.147,94.363,256.593z"/>
				<path style="fill:#FF8EDE;" d="M302.377,281.927c6.255,2.554,8.467-3.226,9.263-0.144c0.603,2.338-0.091,7.322,7.494,19.836      c6.887,11.364,13.433,12.927,11.02,13.947c-5.339,2.257-14.812,4.808-20.464,6.093c-11.03,2.509-12.27,5.979-13.781,1.729      C289.067,304.147,298.297,280.261,302.377,281.927z"/>
				<path style="fill:#FF8EDE;" d="M174.198,305.835c3.799,0.137,1.821-0.118-0.861-9.763c-0.871-3.132-1.201-7.442,0.109-10.367      c1.372-3.062,5.179-3.017,7.85-1.75c8.555,4.057,16.604,15.803,20.091,24.544c1.276,3.198,1.267,3.174-1.892,4.352      c-5.283,1.97-8.459,5.785-9.65,11.257c-0.64,2.939,0.222,4.758-1.819,4.528c-4.72-0.533-13.395-4.734-18.639-11.029      c-3.994-4.795-4.84-10.348,1.411-11.59C171.101,305.956,173.273,305.802,174.198,305.835z"/>
				<path style="fill:#FF8EDE;" d="M139.554,233.923c5.278,3.096,4.49,9.037-0.265,13.201c-7.033,6.159-19.632,8.41-28.744,7.188      c-1.533-0.206-1.985-0.628-1.877-2.215c0.43-6.338-1.976-11.734-7.935-14.006c-2.572-0.981-4.881-1.039-4.127-2.713      c1.193-2.652,9.37-12.658,17.731-14.788c4.952-1.262,7.589,0.946,7.327,6.093c-0.244,4.805-3.182,6.783,2.44,5.892      C124.716,232.478,135.143,231.335,139.554,233.923z"/>
				<path style="fill:#FF8EDE;" d="M225.607,298.798c-1.664,0.169-1.648-0.236-7.993-6.25c-2.207-2.091,5.867-1.476,7.083-10.005      c0.821-5.757,3.61-10.901,8.943-13.201c13.122-5.658,10.242-16.504,14.556-12.678c9.245,8.199,11.249,11.484,11.685,11.941      c1.004,1.052,0.943,2.152,0.35,3.403c-5.403,11.402-16.122,21.169-28.23,25.067C229.846,297.769,227.625,298.26,225.607,298.798      z"/>
				<path style="fill:#FF8EDE;" d="M350.22,300.881c-7.554-0.727-14.472-3.137-20.792-7.425c-7.268-4.932-12.687-11.937-14.5-16.213      c-0.519-1.224-0.245-1.655,2.859-7.644c1.491-2.878,2.433,1.281,9.046,2.305c5.921,0.917,10.557-3.279,18.962,4.785      c3.531,3.388,6.435,6.96,13.275,6.945c0.895-0.002,2.682-0.202,2.349,1.157c-0.926,3.765-5.362,11.311-7.477,14.577      C353.158,300.575,352.408,301.092,350.22,300.881z"/>
				<path style="fill:#FF8EDE;" d="M97.387,278.015c0.496-0.05,0.904,0.101,1.139,0.453c4.312,6.439,11.184,1.87,9.739,4.822      c-1.291,2.638-5.715,8.388-6.701,21.4c-0.73,9.638,2.841,13.466-2.003,11.172c-13.14-6.224-18.583-10.059-24.165-13.928      c-1.304-0.904-1.595-1.241-0.712-3.131c3.748-8.023,11.374-16.223,20.967-20.272C96.218,278.291,96.838,278.175,97.387,278.015z      "/>
				<path style="fill:#FF8EDE;" d="M299.354,279.404c-0.114,0.291-0.134,0.553-0.27,0.648c-0.42,0.294-0.859,0.596-1.336,0.769      c-7.669,2.784-15.404,10.754-18.865,18.05c-0.309,0.652-0.635,1.299-0.997,1.922c-0.275,0.473-1.003,0.373-1.249-0.152      c-1.053-2.245-0.248-3.944-5.472-15.797c-3.289-7.461-5.111-7.507-2.472-9.475c6.388-4.765,12.771-6.747,20.441-7.32      c6.43-0.48,6.529,1.143,6.956,3.457c0.459,2.491,1.55,4.698,2.761,6.872C299.049,278.732,299.21,279.107,299.354,279.404z"/>
				<path style="fill:#FF8EDE;" d="M228.941,336.026c-2.331-0.281-5.204,0.213-8.093,0.284c-1.079,0.027-10.376,0.159-11.455,0.059      c-1.051-0.097-1.59-0.968-1.648-1.94c-0.517-8.727,0.862-12.21,2.982-16.515c0.783-1.59,1.988-2.209,3.794-1.938      c2.696,0.404,5.355-0.115,8.005-0.598c1.633-0.298,1.688-0.254,1.912,1.485c0.277,2.154,0.416,4.335,1.102,6.411      c1.269,3.839,2.712,7.59,5.387,10.737c0.844,0.992,0.528,1.623-0.802,1.873C229.922,335.922,229.715,335.934,228.941,336.026z"/>
				<path style="fill:#FF8EDE;" d="M230.683,263.302c-3.347-1.698-6.858-2.876-10.542-3.569c-3.124-0.588-4.259-2.812-2.399-4.667      c5.805-5.79,22.93-1.012,19.944,6.088C236.433,264.131,233.54,264.752,230.683,263.302z"/>
				<path style="fill:#FF8EDE;" d="M152.376,302.212c-3.61,3.198-8.395-0.962-6.449-4.2c3.172-5.277,5.668-10.516,6.585-11.579      c1.77-2.051,4.587-1.37,5.258,1.256C158.662,291.179,157.167,297.968,152.376,302.212z"/>
				<path style="fill:#FF8EDE;" d="M352.576,272.786c-2.49-1.239-1.508-4.017-1.076-5.827c1.855-7.783-0.22-8.304,1.159-11.015      c1.314-2.584,4.451-0.685,5.546,1.921C362.141,267.241,356.755,274.865,352.576,272.786z"/>
			</g>
			<g>
				<path style="fill:#FC09B2;" d="M310.273,230.873c-0.95,4.315-2.876,8.185-5.474,11.731c-8.702,11.878-14.767,5.877-12.951,2.339      c1.26-2.456,4.398-4.009,6.915-6.62c4.993-5.18,8.014-12.626,10.373-11.825C310.742,227.044,310.637,229.223,310.273,230.873z"/>
				<path style="fill:#FC09B2;" d="M114.164,242.542c0.404-0.312,0.866-0.623,1.348-0.745c5.291-1.338,14.861-3.104,16.717-3.303      c3.734-0.4,4.613,2.394,0.204,5.004c-3.805,2.253-8.123,4.084-12.623,3.985C115.68,247.392,110.448,245.41,114.164,242.542z"/>
				<path style="fill:#FC09B2;" d="M191.892,310.772c-1.749,2.281-4.744,0.287-5.56-1.793c-2.446-6.234-8.208-16.507-6.441-17.811      C184.97,287.421,194.855,306.906,191.892,310.772z"/>
				<path style="fill:#FC09B2;" d="M285.681,228.046c2.676,0.978,1.017,13.106,0.881,15.598c-0.217,3.971-7.112,5.707-7.049-1.724      C279.527,240.09,281.525,226.536,285.681,228.046z"/>
				<path style="fill:#FC09B2;" d="M172.197,311.776c0.869-1.464,1.876-0.781,12.65,3.169c3.642,1.335,3.341,4.249,0.618,5.045      C182.251,320.929,169.548,316.24,172.197,311.776z"/>
				<path style="fill:#FC09B2;" d="M114.238,224.322c1.839-0.137,2.974,1.167,0.974,3.849c-4.424,5.932-5.263,6.977-6.288,7.62      c-1.593,1-3.667-0.663-3.293-2.259c0.791-3.378,4.325-6.783,7.183-8.616C113.319,224.591,113.939,224.443,114.238,224.322z"/>
			</g>
			<g style="opacity:0.25;">
				<path style="fill:#000E3F;" d="M446.82,249.202c0.995,4.85,1.044,10.154,1.162,15.413      c2.603,116.254-115.663,222.672-246.969,194.413c-27.379-5.892-51.97-17.472-58.019-21.508c-0.631-0.421-0.63-1.021-0.035-1.551      c7.471-6.66,21.424-10.322,30.125-9.371c7.716,0.843,15.429,1.687,22.954,3.767c4.679,1.293,30.996,5.185,32.465,5.377      c40.846,5.328,82.359,0.506,111.479-29.052c31.035-31.502,34.975-53.381,32.382-93.803c-0.892-13.898-1.436-13.961,0.314-15.022      c16.668-10.11,10.249-6.026,19.799-12.823c41.939-29.851,45.415-62.314,46.577-65.501c0.08-0.22,0.479-0.437,0.739-0.446      c0.257-0.009,0.674,0.186,0.759,0.396c1.525,3.777,1.328,3.494,2.867,10.435c0.805,3.631,1.703,7.245,2.375,10.9      C446.279,243.471,446.46,246.171,446.82,249.202z"/>
				<path style="fill:#000E3F;" d="M224.044,507.778c-28.178-4.156-51.573-14.75-55.879-20.505      c-0.998-1.334-0.985-2.107,0.202-3.268c18.645-18.235,33.604-0.833,89.251-2.987c25.8-0.999,47.688-2.876,59.413-26.283      c3.23-6.45-0.719-2.666,14.409-9.914c27.408-13.131,29.801-19.364,31.504-16.731c1.309,2.024,5.055,10.453,7.236,20.094      c0.824,3.644,0.935,7.376,0.56,11.12c-0.387,3.857-2.391,6.82-5.13,9.309C331.058,499.994,275.632,515.386,224.044,507.778z"/>
				<path style="fill:#000E3F;" d="M392.67,170.526c-1.29-6.188-2.433-12.402-1.355-18.771c0.624-3.684,2.482-8.058,3.403-9.271      c0.77-1.013,1.522-1.304,2.71-0.908c4.727,1.575,7.897,5.876,8.638,10.843c0.32,2.148,0.582,4.299,0.282,6.494      c-0.384,2.809,2.034,1.236,6.393,3.686c10.593,5.953,11.686,20.581,3.072,26.172c-3.027,1.965-1.695,1.437,0.669,4.814      c5.205,7.436,2.776,16.745-6.28,18.845c-1.193,0.277-2.465,0.224-3.703,0.286c-2.173,0.108-0.922,0.49-1.328,6.15      c-0.702,9.789-12.49,13.864-21.009,7.392c-2.957-2.246-3.038-2.259-5.404,0.866c-6.487,8.569-20.322,7.575-26.006-6.657      c-0.268-0.671-0.434-1.384-0.728-2.041c-0.246-0.549-1.09-0.784-1.62-0.46c-1.208,0.737-3.503,3.046-7.307,3.038      c-1.743-0.003-2.299-0.647-1.921-2.288c1.383-5.989,7.353-10.236,13.44-11.508c9.129-1.908,17.889-0.057,28.267-3.453      c2.644-0.865,7.084-3.306,8.152-5.814c0.931-2.186,4.735-3.923,4.428-11.866C395.405,184.529,392.801,171.152,392.67,170.526z"/>
				<path style="fill:#000E3F;" d="M140.828,303.51c4.667,3.179,2.859,4.861,7.088,8.498c0.711,0.612,0.628,1.217-0.181,1.775      c-6.737,4.648-15.546,7.879-23.227,10.209c-1.338,0.406-2.627,0.327-3.962-0.088c-11.014-3.422-21.553-7.964-31.683-13.457      c-0.141-0.076-14.457-8.882-19.043-12.738c-5.73-4.818-10.958-10.089-15.55-16.008c-1.199-1.546-1.509-3.037-0.913-4.896      c4.785-14.938,20.932-31.77,33.354-36.892c3.529-1.455,10.513-3.294,11.512,0.394c1.657,6.111-0.556,8.845-4.023,13.267      c-5.386,6.87-12.206,11.461-16.667,19.567c-3.669,6.666-3.455,15.017,2.654,20.496c9.279,8.322,16.763,9.68,27.217,10.408      C115.641,304.619,131.85,297.393,140.828,303.51z"/>
				<path style="fill:#000E3F;" d="M312.021,310.517c24.228-3.557,30.717-21.747,39.51-27.411c2.344-1.51,2.375,0.856,8.758,0.525      c1.963-0.102,0.928,2.282,0.107,4.066c-3.402,7.383-7.779,14.142-12.958,20.404c-0.991,1.198-2.253,1.806-3.597,2.325      c-12.586,4.858-24.16,9.426-42.406,14.087c-22.401,5.722-23.587,5.957-23.38,2.819c0.87-13.19,0.945-8.624-0.181-19.189      c-1.235-11.585-6.626-25.144-12.474-33.802c-1.365-2.021-1.485-3.87-0.731-6.128c2.24-6.706,5.891-12.301,11.999-16.078      c0.963-0.595,2.036-1.015,3.064-1.503c1.665-0.79,3.056-0.284,4.156,1.037c8.741,10.501-0.846,26.134,4.636,43.276      c3.043,9.514,10.05,16.32,20.409,15.928C309.965,310.833,310.991,310.639,312.021,310.517z"/>
				<path style="fill:#000E3F;" d="M329.22,132.751c0.462,2.193,0.153,4.323-0.445,6.448c-0.927,3.29,0.606,0.903,6.317,4.084      c1.393,0.776,2.462,1.896,3.375,3.163c1.002,1.392,0.926,2.184-0.316,3.541c-4.075,4.452-6.107,9.238-3.359,14.952      c1.377,2.863,1.382,2.854-1.455,4.451c-4.598,2.589-7.58,6.335-8.119,11.752c-0.48,4.824,3.504,10.807,1.308,18.993      c-2.499,9.313-11.135,11.573-19.906,7.386c-0.654-0.312-1.324-0.622-1.908-1.042c-3.201-2.306-1.887-0.504-6.89,3.522      c-4.97,3.999-13.664,5.232-19.629-2.856c-4.394-5.958-2.928-10.932-6.516-8.855c-2.514,1.456-5.382,1.519-8.161,1.439      c-2.468-0.072-4.519-1.397-6.217-3.181c-0.851-0.894-0.856-1.425-0.131-2.457c9.575-13.629,31.521,4.105,50.314-8.874      c7.291-5.035,11.285-11.926,11.567-20.885c0.339-10.768-3.216-27.553,6.649-34.921c1.124-0.839,2.238-1.574,2.842-0.305      C329.087,130.262,329.02,131.533,329.22,132.751z"/>
				<path style="fill:#000E3F;" d="M243.18,315.682c-0.942,7.353-6.242,14.741-13.174,15.329c-4.477,0.379-8.693,1.811-12.985,2.934      c-3.994,1.046-3.694,2.604-7.854,2.526c-4.131-0.077-8.261-0.247-12.392-0.231c-7.234,0.028-9.401-17.368,2.682-21.952      c6.867-2.606,10.367,3.822,22.816,1.126c2.992-0.648,5.015-2.398,5.835-5.372c1.351-4.9-2.593-9.872-6.133-13.506      c-4.967-5.1-11.783-7.99-14.934-12.484c-3.049-4.347-2.892-8.811-1.535-11.419c1.007-1.934,1.421-2.051,3.654-1.541      C233.629,276.683,245.262,299.423,243.18,315.682z"/>
				<path style="fill:#000E3F;" d="M137.287,254.604c-7.825-3.969,4.667-2.681,7.228-13.851c0.116-0.507,0.083-2.034,1.19-1.798      c2.745,0.585,9.338,4.081,20.885-0.574c14.095-5.683,17.927-17.661,29.639-21.512c2.056-0.676,4.663-1.13,6.7-0.42      c0.93,1.597,0.773,3.382,0.731,5.093c-0.424,17.48-17.027,37.11-33.916,38.382C169.021,259.978,154.996,263.587,137.287,254.604      z"/>
				<path style="fill:#000E3F;" d="M98.204,158.501c0.467-0.8,0.772-0.878,1.509-0.432c16.326,9.876,4.112,42.329,32.178,70.334      c0.437,0.436,0.85,0.911,1.197,1.42c1.032,1.517-5.17,0.291-8.314,1.296c-3.22,1.029-1.838-2.866-1.829-5.361      c0.019-5.602-3.883-7.575-8.409-6.616c-7,1.484-7.505,5.726-9.674,1.787C95.275,203.521,88.188,175.647,98.204,158.501z"/>
				<path style="fill:#000E3F;" d="M221.055,169.257c-0.639,4.588-4.589,3.312-13.972,12.616      c-10.997,10.904-6.596,15.437-14.147,2.717c-0.475-0.801,0.168-1.333,2.41-5.206c7.085-12.24,11.152-29.548,12.629-43.556      c0.896-8.494-0.431-9.175,1.212-10.572c1.436-1.222,2.46-0.066,3.653,1.56c3.601,4.908,5.965,10.37,7.434,16.27      C222.657,152.656,222.343,160.021,221.055,169.257z"/>
				<path style="fill:#000E3F;" d="M202.574,204.583c-0.647-2.221,0.327-2.395,3.355-4.405c9.244-6.138,17.113-13.703,23.504-22.775      c5.219-7.41,5.207-10.184,7.077-9.739c0.693,0.165,0.9,0.798,1.046,1.413c3.808,16.102-7.529,39.452-29.249,48.234      c-1.523,0.616-3.056,1.043-3.324-0.579C204.796,215.611,205.14,213.392,202.574,204.583z"/>
				<path style="fill:#000E3F;" d="M161.129,163.356c3.398,2.857,1.472,7.297-2.073,6.884c-3.161-0.368-15.822-10.619-32.168-12.502      c-1.638-0.189-6.773-1.258-4.683-3.672C125.048,150.785,145.688,150.375,161.129,163.356z"/>
			</g>
			<path style="opacity:0.5;fill:#FFFFFF;" d="M76.852,321.816c7.104,3.634,8.977,23.373,34.519,48.881     c24.97,24.935,47.658,27.662,40.195,42.099c-1.402,2.711-4.052,3.717-7.139,2.958c-23.977-5.893-54.365-29.969-66.417-64.25     C75.216,343.556,68.982,317.79,76.852,321.816z"/>
		</g>
		<g>
			<path style="fill:#000E3F;" d="M422.708,188.106c-1.298-1.35-1.338-1.382-0.58-2.884c4.812-9.687-0.184-22.43-11.893-26.195     c-1.391-0.441-1.398-0.495-1.354-1.985c0.505-15.689-13.811-23.492-25.197-14.786c-0.504,0.39-0.941,0.258-1.312-0.229     c-9.139-11.48-23.516-9.592-27.602,0.963c-0.294,0.768-0.509,1.583-0.803,2.352c-0.926,2.402-2.524-1.022-9.036,0.209     c-1.111,0.224-2.264,0.709-3.325,0.578c-1.6-0.195-3.453-4.836-9.105-6.551c-0.838-0.267-1.176-0.795-0.967-1.664     c0.551-2.157,0.313-4.311,0.056-6.482c-1.06-8.789-11.147-16.195-23.433-10.445c-6.186,2.899-1.114,2.059-9.724-4.661     c-6.305-4.902-15.218-3.496-19.345,1.763c-4.845,6.17-2.208,9.067-4.768,8.05c-9.519-3.861-22.451,3.25-21.08,15.12     c0.187,1.574,0.168,1.576-3.286,1.839c-21.835,1.636-11.861,0.985-24.431,2.329c-2.992,0.3-2.24-1.257-3.964-6.664     c-1.768-5.477-4.4-10.503-8.049-14.967c-1.802-2.207-2.829-2.361-5.248-0.79c-7.666,4.963-16.937,15.565-21.361,27.59     c-1.377,3.703-2.868,1.954-15.947,6.128c-4.842,1.545-7.035-3.045-18.277-8.424c-6.619-3.167-13.684-5.572-20.966-6.6     c-12.32-1.739-25.19,1.139-32.989,11.487c-7.559,10.031-8.432,22.773-7.292,35.02c0.361,3.974,1.236,3.613-2.941,6.603     c-25.952,18.578-49.133,46.604-49.218,78.054c-0.233,84.02,52.667,146.641,123.53,176.828c1.411,0.603,1.051,1.746,0.752,3.249     c-2.77,13.608-4.404,32.769,7.517,39.866c58.439,34.779,154.504,19.662,197.787-24.158c8.909-9.017,2.678-27.52-2.448-39.037     c-1.675-3.764-1.964-2.793,3.507-6.927c60.051-45.349,86.898-115.761,79.603-172.161     C445.589,220.024,440.886,206.971,422.708,188.106z M435.755,210.882c1.15,2.12,1.343,4.206,0.982,6.578     c-8.31,55.354-80.701,87.125-83.403,87.226c0.078-0.266,0.056-0.612,0.217-0.797c8.048-10.088,17.216-30.528,14.339-44.733     c-2.459-12.071-15.137-19.06-24.715-9.34c-1.146,1.163-1.175,1.222-2.447,0.089c-9.387-8.315-20.563-1.394-22.029,7.895     c-1.59,9.948-9.486,27.815-16.479,20.976c-5.167-5.055-4.733-16.241-4.814-18.78c-0.077-2.504,8.12-4.687,15.86-15.363     c4.351-6.001,8.79-14.194,7.234-21.439c-0.59-2.809-2.195-4.894-4.895-6.004c-10.938-4.536-19.921,9.737-21.295,10.211     c-0.494-0.913-0.985-1.809-1.512-2.7c-6.279-10.866-20.434-1.392-20.382,20.852c0.016,3.997,1.423,5.352,0.081,6.557     c-10.446,9.364-8.925,17.237-11.277,14.416c-9.058-10.793-20.07-19.814-34.136-22.273c-7.063-1.235-12.913,1.092-17.096,6.962     c-2.844,4.006-3.427,8.368-0.878,12.853c0.507,0.875,1.139,1.717,0.192,2.087c-6.093,2.447-8.683,9.523-6.315,15.258     c4.131,10.094,12.023,9.818,20.069,19.815c3.549,4.403,4.353,10.563-1.283,11.763c-5.224,1.114-9.541,0.747-14.379-0.918     c-5.145-1.775-2.607-7.908-14.374-21.591c-2.596-3.012-5.703-5.395-8.911-7.693c-1.282-0.912-2.774-1.432-4.27-1.822     c-7.895-2.072-11.189,6.5-9.133,14.547c0.524,2.102,1.21,4.166,1.805,6.242c0.717,2.483-1.107,0.718-5.145,3.013     c-2.839,1.583-4.037,4.789-3.218,7.975c2.284,8.9,16.077,17.244,22.309,17.972c1.917,0.231,2.906,1.306,3.547,2.991     c0.326,0.897,0.195,1.188-0.694,1.11c-19.545-1.478-38.155-3.417-58.828-9.146c-0.266-0.078-0.708-0.245-0.747-0.425     c-0.13-0.627,0.486-0.535,0.804-0.646c27.167-9.258,46.65-30.424,33.135-43.844c-3.22-3.177-7.038-5.053-11.738-4.625     c-1.415,0.131-1.642-0.08-1.859-1.448c-2.149-13.943-18.87-12.638-27.034-4.919c-4.996,4.738-10.691,9.926-17.76,10.012     c-3.611,0.025-5.312-2.874-5.147-5.663c0.383-6.355,4.329-10.822,6.866-14.333c0.706-1.001,0.807-2.627,2.009-3.009     c1.111-0.37,2.452-0.052,3.685-0.014c14.869,0.4,17.113-3.718,20.728-1.542c7.406,4.441,17.755,8.184,27.415,7.973     c11.199-0.228,21.928-1.941,32.524-13.432c6.24-6.775,12.533-17.279,12.568-26.419c0.019-5.871,7.28-1.561,21.225-16.219     c6.133-6.433,10.857-15.008,12.785-24.115c0.291-1.41,0.568-1.552,1.923-1.108c2.879,0.923,5.621,2.085,8.059,3.923     c1.833,1.379,1.758,2.139,1.924,4.303c0.363,4.763,3.843,10.128,10.393,11.846c2.422,0.63,6.622,0.003,9.164-0.83     c1.413-0.461,1.265,1.079,3.03,4.519c5.404,10.457,17.571,14.058,27.746,3.496c1.437-1.492,1.726,0.327,7.309,2.086     c9.07,2.85,18.233-1.851,19.923-13.277c0.512-3.417-0.246-4.245,2.052-2.959c2.809,1.574,2.73,1.529,1.379,4.203     c-3.057,6.085-3.167,14.28,1.772,20.205c2.822,3.371,8.762,5.509,13.521,2.798c2.614-1.466,2.15-1.043,3.708,2.037     c5.085,9.925,18.014,15.326,27.691,5.813c1.891-1.838,1.53-2.566,3.401-1.632c2.495,1.244,5.152,3.535,11.439,3.339     c7.677-0.232,12.252-6.351,13.144-13.372c0.209-1.639,0.715-3.093,2.547-3.421c10.371-1.799,14.241-13.392,9.545-20.814     c-0.543-0.871-1.123-1.738-1.668-2.627c-0.725-1.161,0.697-2.32,1.801-1.516C421.511,191.312,429.948,200.271,435.755,210.882z      M278.867,306.274c-1.735-9.681-4.673-20.062-12.014-31.702c-2.119-3.326-2.078-3.752-0.649-7.48     c6.307-16.578,21.3-20.539,26.061-11.015c1.061,2.13,1.756,4.286,1.708,6.823c-0.331,15.3,8.597,24.844,16.143,19.344     c4.545-3.29,5.695-6.417,8.426-11.693c1.254-2.423,2.848,4.211,14.569,2.362c6.337-1.008,10.08,2.712,14.12,6.763     c7.305,7.314,13.886,3.563,12.608,6.557c-3.529,8.288-7.715,14.287-12.716,20.53c-0.863,1.074-1.852,1.87-3.144,2.409     c-34.459,14.139-59.71,17.904-63.778,19.176C277.335,329.237,281.612,321.54,278.867,306.274z M177.436,304.31     c-1.188-2.904-8.209-22.194,0.94-20.069c9.432,2.202,18.99,16.439,22.178,25.38c0.407,1.107,0.223,1.569-0.733,2.013     c-0.365,0.171-0.776,0.257-1.162,0.413c-6.588,2.598-9.507,7.53-10.225,14.621c-0.101,1.003-1.003,0.816-1.992,0.53     c-17.395-5.311-23.554-19.199-15.446-19.959c0.418-0.032,0.814-0.097,1.23-0.146c-0.002-0.019-0.007-0.055,0.008-0.093     C174.968,307.006,178.734,307.513,177.436,304.31z M200.69,315.088c6.127-1.387,4.845,2.03,17.37,2.159     c7.638,0.066,13.324-5.506,10.999-12.275c-1.984-5.744-6.538-9.184-8.154-10.753c-0.831-0.819-0.828-1.26,0.129-1.997     c10.108-7.729,3.301-15.781,14.615-21.69c6.048-3.139,9.695-7.497,11.371-11.456c0.328-0.79,0.79-0.919,1.451-0.447     c1.005,0.742,2.01,1.486,2.919,2.332c3.259,3.043,6.186,6.383,8.866,9.954c14.342,19.155,18.26,57.448,14.043,58.389     c-24.482,5.453-52.612,5.984-76.78,5.897C189.572,335.172,189.701,317.547,200.69,315.088z M214.304,265.177     c-0.224-0.34-0.549-0.613-0.841-0.909c-7.307-7.938,3.347-26.371,29.556-9.852c1.447,0.91,1.554,1.191,1.085,2.806     c-0.236,0.798-0.508,1.601-0.96,2.278c-4.565,6.98-6.138,5.772-12.172,10.267c-8.512,6.329-3.987,13.551-11.544,19.584     c-2.563,2.046-3.703,1.099-8.957-3.138c-5.556-4.477-7.109-13.391-0.566-16.368c1.115-0.499,2.319-0.863,3.452-1.363     C214.786,267.853,215.188,266.448,214.304,265.177z M279.991,228.221c2.191-3.946,6.613-6.562,9.468-2.297     c1.316,1.972,2.167,5.118,2.545,5.99c0.654,1.5,2.185,1.722,3.19,0.447c3.053-3.793,5.072-7.499,10.569-10.792     c4.794-2.879,10.622-2.306,11.526,2.998c1.487,8.665-8.639,21.807-16.251,27.681c-1.226,0.952-2.517,1.821-3.81,2.671     c-1.277,0.831-1.85-0.752-2.702-1.899c-3.815-5.105-9.355-6.814-15.399-4.721c-1.64,0.561-2.439,1.243-2.712-0.284     C275.4,242.1,276.316,234.819,279.991,228.221z M322.244,257.84c1.884-7.468,9.695-10.578,15.343-6.112     c1.336,1.052,2.752,2.938,3.206,3.362c0.925,0.844,2.182,0.769,3.017-0.23c0.403-0.469,0.646-1.048,1.006-1.568     c7.15-10.239,26.115-3.758,18.047,24.878c-0.684,2.429-1.054,2.712-4.517,3.049c-1.729,0.114-4.103-0.413-6.164-2.02     c-5.277-4.125-6.237-6.34-10.945-8.607c-8.013-3.837-12.604,1.679-19.193-2.988C319.923,266.113,320.206,266.024,322.244,257.84z      M121.796,234.2c4.756-0.418,9.039-1.421,13.858-0.379c11.483,2.472,6.908,13.396-6.298,17.421     c-6.619,2.033-11.488,2.114-17.457,2.052c-1.671-0.021-2.298-0.662-2.093-2.337c0.874-6.854-4.403-12.997-10.219-14.398     c-1.189-0.281-2.049-0.729-1.324-1.732c4.306-6.069,10.037-11.72,17.206-13.451c2.57-0.599,5.417,0.826,5.166,4.432     c-0.134,1.96-0.548,3.881-1.076,5.777C119.066,233.46,119.89,234.371,121.796,234.2z M106.004,247.666     c1.695,8.713-4.222,11.873-7.762,19.612c-3.187,6.999-1.769,14.774,5.698,15.869c1.25,0.182,2.482-0.111,4.335-0.257     c2.943-0.093,5.94-1.732,8.843-3.544c3.877-2.422,4.586-4.322,5.51-1.02c1.476,5.328,5.19,7.253,8.755,10.095     c8.307,6.627,5.035,7.345,7.147,14.322c1.979,6.479,6.157,8.919,7.324,10.1c0.645,0.639-0.677,1.254-1.639,1.808     c-6.21,3.617-12.86,6.167-19.746,8.121c-1.471,0.431-2.795,0.405-4.227-0.068c-24.58-8.2-49.516-20.797-65.134-41.745     c-0.895-1.214-1.153-2.303-0.679-3.716c5.559-16.691,21.883-32.165,33.441-36.635     C95.428,237.676,104.444,239.615,106.004,247.666z M151.339,279.597c6.535-1.032,14.275,4.525,12.761,13.876     c-1.076,6.694-7.59,12.713-12.993,16.802c-0.755,0.585-1.48,0.506-2.294,0.144c-10.848-4.858-3.908-14.853-13.075-22.699     c-6.162-5.248-9.77-5.518-10.439-13.62c-0.104-1.345,0.399-2.358,1.529-3.189c3.23-2.31,6.758-3.333,10.718-3.51     c5.161-0.245,9.363,3.934,9.169,9.111c-0.017,0.314-0.109,0.618-0.128,0.932C146.454,280.324,148.186,280.082,151.339,279.597z      M201.057,193.23c9.782-17.118,34.068-27.171,35.276-23.481c0.306,0.881,0.778,1.761,0.792,2.658     c0.095,4.979-0.258,9.881-1.87,14.695c-4.997,14.936-17.631,26.414-28.258,29.454c-2.128,0.62-0.869-8.72-6.099-19.564     C200.239,195.62,200.311,194.529,201.057,193.23z M353.085,150.27c0.275,0.151,0.534,0.322,0.806,0.455     c1.914,0.983,3.297,0.269,3.329-1.936c0.124-9.626,8.265-12.903,15.538-10.042c9.425,3.688,6.693,11.587,12.663,6.551     c4.57-3.843,11.48-4.663,15.828-0.171c5.562,5.76,3.908,12.065,3.929,14.41c0.011,2.878,2.999,2.396,5.284,3.262     c10.296,3.914,13.726,18.604,5.011,24.921c-0.422,0.306-0.914,0.494-1.336,0.801c-4.707,3.456,6.807,5.888,3.3,16.685     c-1.034,3.186-3.35,5.167-6.639,5.887c-0.911,0.199-1.843,0.236-2.784,0.348c0.002,0.019,0.002,0.019,0.004,0.036     c-0.71,0.047-1.442,0.061-2.163,0.165c-3.12,0.444-1.641,2.872-1.717,5.633c-0.255,11.458-11.893,13.388-19.019,8.364     c-0.601-0.424-1.135-0.911-1.735-1.335c-2.783-1.963-3.134-0.747-5.898,2.7c-4.06,5.048-11.37,5.898-16.779,2.21     c-5.628-3.845-6.699-9-7.617-11.019c-0.82-1.811-2.26-2.043-3.466-1.074c-7.77,6.241-15.963,1.196-15.199-10.615     c0.298-4.75,2.453-7.463,3.572-9.467c2.002-3.539-2.108-2.923-5.846-5.837c-6.343-4.915-5.872-14.088,0.467-18.637     c2.603-1.868,4.613-2.089,5.367-2.38c2.155-0.842,2.452-1.905,0.872-3.625C330.434,157.395,342.257,144.345,353.085,150.27z      M260.521,146.813c-0.271-0.426-0.628-0.806-1.016-1.145c-3.995-3.525-4.158-10.31,1.488-14.52     c7.328-5.492,13.947-0.719,15.41-0.141c0.903,0.351,2-0.146,2.255-1.093c0.617-2.219-0.021-6.362,3.2-9.826     c5.717-6.09,15.171-3.395,19.652,4.548c1.811,3.198,2.3,3.304,5.137,1.243c10.759-7.806,22.632-1.566,21.71,9.366     c-0.093,1.222-0.427,2.436-0.705,3.642c-1.032,4.598,2.043,2.528,6.72,5.311c7.304,4.361,1.051,4.993-1.167,11.2     c-3.07,8.6,2.883,11.158,0.86,12.353c-0.721,0.415-1.489,0.744-2.169,1.192c-4.287,2.672-6.997,6.424-7.625,11.488     c-0.286,2.381,0.228,4.706,0.871,7.032c4.364,15.917-5.818,26.572-19.595,18.209c-3.144-1.92-3.155-1.863-5.522,0.765     c-7.875,8.767-19.23,7.362-23.793-5.432c-1.714-4.859-1.731-4.857-6.402-3.093c-11.602,4.403-19.584-8.609-11.396-19.375     c0.319-0.405,0.656-0.811,0.916-1.246c0.701-1.202,0.436-2.509-0.787-3.227c-1.816-1.087-7.547-1.618-8.945-9.229     c-2.197-12.029,9.011-14.807,10.193-15.351C260.801,149.018,261.125,147.732,260.521,146.813z M224.278,151.626     c-0.254-2.758,3.567-2.863,5.482-3.109c8.577-1.146,17.185-1.414,25.818-1.613c-2.63,2.568-10.187,5.354-9.829,16.409     c0.163,4.934,2.556,8.868,6.669,11.682c3.454,2.378,3.633,0.321,0.274,6.956c-0.714,1.406-1.76,0.319-4.509-1.207     c-1.824-0.995-3.79-1.642-5.761-2.325c-3.196-1.125-0.643-0.786-2.317-9.172c-0.843-4.174-2.309-5.082-6.302-3.948     c-2.982,0.83-5.981,1.682-8.821,2.954C222.234,169.496,225.415,163.066,224.278,151.626z M208.86,126.802     c1.317-0.963,1.764-0.906,2.852,0.377c8.952,10.53,10.104,26.884,8.516,40.555c-0.246,2.102-1.098,3.579-2.958,4.753     c-7.316,4.517-13.493,10.277-18.251,17.481c-1.278,1.912-1.269-0.18-3.904-3.995c-6.455-9.414-7.304-9.313-7.725-12.547     C185.105,156.18,194.235,137.58,208.86,126.802z M172.918,159.827c8.713-2.629,9.201-2.229,10.445-2.872     c3.173-0.468-0.643,5.249,0.265,12.589c0.032,0.271,0.011,0.714-0.158,0.825c-0.461,0.294-0.736-0.169-1.008-0.448     C173.017,160.348,170.528,160.552,172.918,159.827z M149.536,150.587c35.222,16.109,67.929,59.738,45.611,91.641     c-14.147,20.222-38.072,21.722-58.138,11.06c-2.193-1.17,1.632-2.174,4.704-5.198c8.182-8.033,3.378-18.836-12.131-18.61     c-5.493,0.083-5.929,1.51-5.546-2.057c0.899-8.196-5.737-12.802-15.629-6.969c-1.68,0.988-2.083,1.146-3.228-1.084     C79.479,169.094,101.552,128.635,149.536,150.587z M98.375,213.188c3.37,8.625,6.061,9.809,4.36,11.406     c-3.409,3.266-5.934,5.638-8.081,9.341c-0.532,0.926-1.2,1.628-2.35,1.838c-18.212,3.114-32.329,24.36-34.902,27.252     c-0.086-0.265-0.237-0.449-0.222-0.635c0.293-4.18,3.341-14.208,10.577-25.265c7.644-11.637,20.014-21.322,28.854-24.59     C97.504,212.19,98.039,212.365,98.375,213.188z M44.98,256.812c6.521-24.821,25.901-45.609,46.749-60.061     c0.932-0.643,1.068-0.585,1.406,0.567c0.962,3.169,1.926,6.338,2.852,9.512c0.69,2.412-0.178,1.745-6.61,5.352     c-8.909,5.001-16.106,11.907-22.225,20.006C51.118,253.35,53.5,269.87,53.048,270.859c-0.61,1.357-0.672,2.997-1.845,4.09     c-1.874-1.575-5.929-11.477-6.33-12.383C43.939,260.402,44.425,258.931,44.98,256.812z M369.719,454.273     c0.318,5.154-0.146,9.133-4.75,13.458c-32.112,30.205-92.568,49.097-150.48,37.312c-25.148-5.107-36.096-12.356-40.752-14.647     c-4.598-2.261-6.86-6.175-7.62-11.038c-1.07-6.861-1.454-12.722,0.704-24.993c0.481-2.753,0.621-2.806,3.155-1.859     c63.099,23.662,126.889,15.416,179.782-16.207c12.931-7.734,11.804-8.884,13.36-5.51     C366.444,437.951,369.225,446.389,369.719,454.273z M124.531,425.044c-47.516-32.535-74.12-81.932-79.387-120.762     c-0.266-1.932-4.225-35.617-1.883-35.674c0.165-0.002,0.401,0.136,0.474,0.292c52.091,102.814,296.672,84.699,372.982-4.18     c23.578-27.468,21.381-43.203,23.275-43.171c1.47,0.027,9.479,38.166,5.669,67.746     C427.547,429.474,257.274,515.944,124.531,425.044z"/>
			<path style="fill:#000E3F;" d="M312.741,403.574c-7.417,4.937-17.803-0.028-18.904-8.789     c-1.323-10.526,11.687-17.528,19.751-10.716C319.62,389.164,319.377,399.157,312.741,403.574z"/>
			<path style="fill:#000E3F;" d="M220.745,414.486c-7.417,4.937-17.803-0.028-18.904-8.789     c-1.323-10.526,11.687-17.528,19.751-10.716C227.624,400.076,227.381,410.069,220.745,414.486z"/>
			<path style="fill:#000E3F;" d="M283.432,399.716c-0.296-1.092-1.422-1.753-2.508-1.451c-0.53,0.141-0.971,0.479-1.247,0.952     c-0.275,0.474-0.347,1.027-0.208,1.555c1.528,5.728,0.47,11.624-2.976,16.603c-3.308,4.78-8.303,7.956-13.442,8.565     c-0.147,0.017-0.292,0.033-0.439,0.046c-5.175,0.515-10.765-1.509-14.958-5.414c-4.328-4.033-6.618-9.45-6.45-15.252     c0.016-0.547-0.182-1.067-0.559-1.465c-0.375-0.399-0.884-0.626-1.43-0.642c-0.553-0.016-1.071,0.18-1.469,0.556     c-0.396,0.376-0.624,0.885-0.64,1.434c-0.2,6.997,2.553,13.52,7.753,18.365c5.042,4.697,11.831,7.126,18.168,6.495l0.368-0.04     c6.363-0.756,12.519-4.612,16.469-10.316C284.006,413.725,285.272,406.625,283.432,399.716z"/>
		</g>
	</g>
	<g>
		<path style="fill:#FD8A02;" d="M74.605,152.955c-13.671-1.358-41.805-7.549-54.911-15.478c-6.299-3.811-8.316-12.006-4.505-18.305    c3.489-5.768,10.657-7.943,16.677-5.343c14.143,6.09,35.64,25.564,44.507,35.692C77.613,150.938,76.473,153.134,74.605,152.955z"/>
		<path style="fill:#FD8A02;" d="M90.001,131.344c-8.835-6.447-25.647-22.047-31.444-32.777c-2.786-5.157-0.864-11.595,4.293-14.381    c4.722-2.551,10.519-1.152,13.602,3.061C83.702,97.132,90.6,119.171,92.6,129.7C92.88,131.173,91.211,132.22,90.001,131.344z"/>
		<path style="fill:#FD8A02;" d="M65.118,177.592c-10.412-3.349-32.919-7.762-45.005-6.134c-5.809,0.783-9.884,6.125-9.101,11.934    c0.716,5.319,5.259,9.183,10.479,9.196c12.259,0.045,34.137-7.348,43.826-11.927C66.674,180.02,66.538,178.055,65.118,177.592z"/>
		<path style="fill:#FD8A02;" d="M431.893,390.204c12.918,4.674,38.67,17.586,49.427,28.492c5.17,5.241,5.112,13.681-0.129,18.851    c-4.799,4.733-12.282,5.082-17.479,1.083c-12.214-9.377-28.269-33.535-34.376-45.531    C428.481,391.421,430.126,389.572,431.893,390.204z"/>
		<path style="fill:#FD8A02;" d="M412.85,413.531c6.98,8.42,19.446,27.672,22.43,39.496c1.434,5.683-2.011,11.452-7.694,12.886    c-5.204,1.313-10.48-1.467-12.433-6.308c-4.6-11.363-5.873-34.422-5.226-45.119C410.017,412.99,411.892,412.384,412.85,413.531z"/>
		<path style="fill:#FD8A02;" d="M447.141,368.652c9.27,5.804,30.004,15.609,42.119,17c5.823,0.669,11.085-3.51,11.753-9.333    c0.612-5.332-2.842-10.193-7.899-11.488c-11.873-3.055-34.897-1.262-45.413,0.797    C446.229,365.916,445.878,367.854,447.141,368.652z"/>
	</g>
</g>















</svg>
