<?xml version="1.0" encoding="UTF-8"?>
<!-- Generator: Adobe Illustrator 25.2.1, SVG Export Plug-In . SVG Version: 6.00 Build 0)  -->
<svg xmlns="http://www.w3.org/2000/svg" xmlns:xlink="http://www.w3.org/1999/xlink" version="1.1" id="Capa_1" x="0px" y="0px" viewBox="0 0 512 512" style="enable-background:new 0 0 512 512;" xml:space="preserve" width="512" height="512">
<g>
	<g>
		<g>
			<path style="fill:#00B0C4;" d="M20.198,249.883c-2.988-12.776-1.07-3.012-5.173-24.308c-0.191-0.99,0.011-1.89,0.928-1.737     c1.753,0.292,5.946,2.691,25.44,3.97c48.068,3.155,93.822-8.194,134.885-30.046c25.023-13.316,25.927-19.652,26.852-17.143     c5.178,14.046,14.18,59.373,14.443,65.215c0.122,2.717,1.462,3.857-0.191,5.417c-12.535,11.824-37.313,23.392-53.39,29.785     c-45.546,18.112-95.403,21.047-130.099,13.269c-2.472-0.554-1.968-3.32-3.983-8.458C28.879,283.221,19.52,250.046,20.198,249.883     z"/>
			<g>
				<path style="fill:#FF8EDE;" d="M13.331,172.419c0.345-0.874,0.911-1.088,1.712-0.671c8.365,4.358,32.12,4.101,41.621,3.681      c15.124-0.669,26.754-2.688,39.762-5.084c2.267-0.418,4.643-0.431,6.789-1.286c3.352-1.336,36.298-8.482,66.618-27.643      c11.199-7.077,9.636-9.977,12.102-7.915c4.646,3.885,9.01,13.357,11.485,18.869c0.538,1.198,0.015,1.846-0.705,1.734      c-1.137-0.178-5.887-1.676-10.866-0.327c-5.768,1.562-9.962,6.264-10.61,12.215c-1.574,14.473-11.08,19.057-17.681,16.049      c-9.135-4.164-16.624-8.424-24.525-1.084c-1.815,1.687-3.449,3.517-4.424,5.875c-0.754,1.824-5.799,9.021-10.92,13.188      c-2.853,2.321-6.063,3.041-9.637,2.311c-13.716-2.802-17.41-11.202-26.919-11.001c-7.422,0.157-11.852,5.706-16.548,12.052      c-3.154,4.262-8.986,5.427-13.752,2.934c-9.599-5.023-8.467-10.089-14.023-13.374c-6.51-3.849-13.71-2.11-18.659,2.111      c-0.915,0.78-2.305,2.186-2.751,0.527C11.143,194.634,10.239,180.248,13.331,172.419z"/>
				<path style="fill:#FF8EDE;" d="M76.763,268.533c3.776-6.865,14.397-9.625,21.573-7.452c7.104,2.151,8.604,10.277-0.288,15.276      C85.869,283.205,71.865,277.439,76.763,268.533z"/>
				<path style="fill:#FF8EDE;" d="M167.343,247.351c-6.429-4.479-17.172-2.242-22.641,2.888      c-5.413,5.078-3.154,13.027,7.032,13.564C165.688,264.539,175.682,253.161,167.343,247.351z"/>
			</g>
			<g>
				<path style="fill:#FC09B2;" d="M44.128,320.468c-5.095-6.367-7.372-12.768-10.686-23.553c-0.07-0.227-0.198-0.438-0.257-0.667      c-0.13-0.511,0.282-0.932,0.844-0.844c2.119,0.331,6.611,2.149,19.796,3.227c45.505,3.723,94.724-5.615,139.816-30.18      c24.723-13.469,24.37-19.31,25.315-13.827c2.577,14.947,2.81,25.968-5.298,39.457C185.862,340.32,78.144,362.975,44.128,320.468      z"/>
				<path style="fill:#FC09B2;" d="M102.372,222.986c-20.39,4.021-55.093,5.929-76.804,2.123c-2.745-0.481-5.445-1.214-8.162-1.848      c-0.385-0.09-0.741-0.303-1.124-0.401c-1.346-0.343-1.938-1.256-2.11-2.579c-0.402-3.075-0.848-6.145-1.273-9.217      c-1.225-8.848-0.554-6.224-1.214-9.952c-0.249-1.405,0.174-2.514,1.11-3.486c7.622-7.916,17.279-7.277,22.485-1.154      c1.952,2.296,2.825,5.114,8.095,9.018c5.359,3.97,12.832,4.914,17.89-1.454c2.734-3.443,5.145-6.636,7.596-8.572      c5.79-4.573,12.246-3.812,18.153,0.182c5.653,3.821,13.79,8.83,20.92,7.812c17.314-2.471,15.455-29.87,35.12-24.83      c7.964,2.041,12.875,8.41,20.393,3.759c8.823-5.458,8.286-16.864,9.895-20.416c2.156-4.759,7.269-7.616,12.03-7.72      c2.881-0.063,9,0.372,10,3.079c0.035,0.094,4.409,10.999,5.836,16.666c0.4,1.588,2.299,3.563-0.21,5.863      c-16.78,15.375-48.045,28.771-69.647,35.889C125.44,217.695,102.479,222.965,102.372,222.986z"/>
			</g>
			<g style="opacity:0.45;">
				<path style="fill:#000E3F;" d="M133.542,197.286c0.796,3.405,4.202,5.52,7.607,4.724c3.405-0.796,5.52-4.202,4.724-7.607      c-0.796-3.405-4.202-5.52-7.607-4.724C134.86,190.475,132.745,193.881,133.542,197.286z"/>
				<path style="fill:#000E3F;" d="M82.787,326.076c0.796,3.405,4.202,5.52,7.607,4.724c3.405-0.796,5.52-4.202,4.724-7.607      c-0.796-3.405-4.202-5.52-7.607-4.724C84.106,319.265,81.991,322.671,82.787,326.076z"/>
				<path style="fill:#000E3F;" d="M124.785,323.709c0.796,3.405,4.202,5.52,7.607,4.724c3.405-0.796,5.52-4.202,4.724-7.607      c-0.796-3.405-4.202-5.52-7.607-4.724C126.103,316.898,123.988,320.304,124.785,323.709z"/>
				<path style="fill:#000E3F;" d="M170.663,294.025c0.797,3.405,4.202,5.52,7.608,4.724c3.405-0.796,5.52-4.202,4.724-7.607      c-0.796-3.405-4.202-5.52-7.607-4.724C171.981,287.214,169.866,290.62,170.663,294.025z"/>
				<path style="fill:#000E3F;" d="M22.008,210.985c0.796,3.405,4.202,5.52,7.607,4.724c3.405-0.796,5.52-4.202,4.724-7.607      c-0.796-3.405-4.202-5.52-7.607-4.724C23.327,204.174,21.212,207.58,22.008,210.985z"/>
				<path style="fill:#000E3F;" d="M70.971,210.361c0.612,2.617,3.23,4.243,5.847,3.631c2.617-0.612,4.243-3.23,3.631-5.847      c-0.612-2.617-3.23-4.243-5.847-3.631C71.984,205.127,70.359,207.744,70.971,210.361z"/>
				<path style="fill:#000E3F;" d="M56.983,313.508c0.612,2.617,3.23,4.242,5.847,3.63c2.617-0.612,4.243-3.23,3.631-5.847      c-0.612-2.617-3.23-4.242-5.847-3.631C57.996,308.274,56.371,310.891,56.983,313.508z"/>
				<path style="fill:#000E3F;" d="M180.597,178.214c0.612,2.617,3.23,4.243,5.847,3.631c2.617-0.612,4.243-3.23,3.631-5.847      c-0.612-2.617-3.23-4.243-5.847-3.63C181.61,172.979,179.985,175.597,180.597,178.214z"/>
				<path style="fill:#000E3F;" d="M200.526,281.72c0.612,2.617,3.23,4.242,5.847,3.63c2.617-0.612,4.243-3.23,3.63-5.847      c-0.612-2.617-3.23-4.242-5.847-3.63C201.539,276.485,199.914,279.103,200.526,281.72z"/>
				<path style="fill:#000E3F;" d="M142.256,300.669c0.612,2.617,3.23,4.243,5.847,3.631c2.617-0.612,4.243-3.23,3.631-5.847      c-0.612-2.617-3.23-4.243-5.847-3.63C143.269,295.434,141.644,298.051,142.256,300.669z"/>
				<path style="fill:#000E3F;" d="M162.821,191.944c0.455,1.946,2.401,3.154,4.347,2.699c1.946-0.455,3.154-2.402,2.699-4.347      c-0.455-1.946-2.401-3.154-4.347-2.699C163.574,188.051,162.365,189.998,162.821,191.944z"/>
				<path style="fill:#000E3F;" d="M98.394,213.634c0.455,1.946,2.401,3.155,4.347,2.7c1.946-0.455,3.154-2.401,2.7-4.347      c-0.455-1.946-2.402-3.154-4.347-2.699C99.147,209.742,97.939,211.688,98.394,213.634z"/>
				<path style="fill:#000E3F;" d="M47.792,218.474c0.455,1.946,2.401,3.154,4.347,2.699c1.946-0.455,3.154-2.402,2.7-4.347      c-0.455-1.946-2.402-3.155-4.347-2.699C48.545,214.582,47.336,216.529,47.792,218.474z"/>
				<path style="fill:#000E3F;" d="M106.183,310.386c0.455,1.946,2.401,3.155,4.347,2.699c1.946-0.455,3.154-2.401,2.699-4.347      c-0.455-1.946-2.401-3.155-4.347-2.699C106.937,306.494,105.729,308.44,106.183,310.386z"/>
				<path style="fill:#000E3F;" d="M164.734,318.753c0.455,1.946,2.402,3.154,4.347,2.699c1.946-0.455,3.155-2.401,2.699-4.347      c-0.455-1.946-2.401-3.154-4.347-2.699C165.488,314.861,164.279,316.807,164.734,318.753z"/>
			</g>
			<path style="fill:#FFCF00;" d="M110.67,88.113c5.215-0.495,10.207-2.648,39.997-2.277c28.704,0.358,44.819,36.45,22.56,52.127     c-11.703,8.242-32.254,18.733-58.235,26.598c-36.453,11.036-78.146,11.809-93.753,8.238c-8.031-1.837-14.104-6.315-17.055-14.208     c-6.805-18.206,2.486-35.446,15.319-41.838c18.634-9.282,18.071-10.003,44.559-18.196     C70.635,96.521,101.479,88.986,110.67,88.113z"/>
			<g>
				<path style="fill:#FD8A02;" d="M7.906,133.042c0.509-1.962,1.943-2.17,3.992-1.81c12.905,2.269,38.362,1.764,52.571-0.084      c34.669-4.509,71.076-15.314,99.833-35.584c1.52-1.071,2.789-1.643,4.021-0.37c0.645,0.667,0.729,1.371,0.17,2.332      c-3.594,6.182-11.839,10.765-17.62,14.506C114.701,135.44,75.329,145.6,28.367,139.862c-3.803-0.465-19.815-2.514-20.481-6.288      C7.854,133.397,7.86,133.215,7.906,133.042z"/>
				<path style="fill:#FD8A02;" d="M101.931,157.47c0.821,3.183-1.857,6.316-4.777,4.451c-3.374-2.155-4.139-12.233-4.578-16.836      c-0.126-1.317,0.329-3.525,1.739-4.023C98.767,139.49,101.21,154.673,101.931,157.47z"/>
				<path style="fill:#FD8A02;" d="M57.749,163.065c0.222,5.826-6.948,7.128-7.582-0.725c-0.25-3.101-0.71-11.438,0.635-14.229      C52.438,144.717,57.137,147.025,57.749,163.065z"/>
				<path style="fill:#FD8A02;" d="M79.127,156.203c0.509,2.174,1.326,4.906,0.694,7.124c-0.546,1.915-2.592,3.135-4.496,2.332      c-2.339-0.986-2.674-3.946-3.044-6.13c-0.841-4.976-3.105-15.131,1.967-14.293C77.077,145.703,77.982,151.309,79.127,156.203z"/>
				<path style="fill:#FD8A02;" d="M17.633,162.134c-1.354,2.651-4.205,1.964-5.456-0.35c-1.842-3.406-2.033-13.332-0.34-17.344      c1.373-3.253,4.19-1.463,4.836,1.165C17.737,149.929,18.975,159.506,17.633,162.134z"/>
				<path style="fill:#FD8A02;" d="M37.676,163.413c-0.102,2.73-3.259,4.559-5.241,2.268c-1.626-1.879-1.665-4.817-1.756-7.151      c-0.149-3.812-0.227-8.531,1.424-12.06c0.8-1.685,2.842-1.878,3.66-0.001C37.495,150.443,37.837,159.088,37.676,163.413z"/>
				<path style="fill:#FD8A02;" d="M136.479,144.654c2.385,5.321,9.388,3.307,6.474-4.012c-1.151-2.891-4.435-10.566-6.879-12.472      C133.103,125.853,129.914,130.005,136.479,144.654z"/>
				<path style="fill:#FD8A02;" d="M114.274,147.983c0.508,2.174,0.987,4.985,2.537,6.693c1.338,1.474,3.713,1.661,5.064,0.097      c1.659-1.921,0.647-4.723,0.01-6.844c-1.453-4.833-3.928-14.939-8.102-11.939C111.456,137.663,113.131,143.089,114.274,147.983z      "/>
				<path style="fill:#FD8A02;" d="M172.022,126.029c2.39,1.775,4.64-0.104,4.735-2.733c0.14-3.87-4.09-12.851-7.387-15.696      c-2.673-2.307-4.404,0.547-3.818,3.189C166.516,115.136,169.653,124.269,172.022,126.029z"/>
				<path style="fill:#FD8A02;" d="M154.625,136.064c1.302,2.402,4.942,2.641,5.703-0.291c0.624-2.405-0.644-5.055-1.598-7.188      c-1.557-3.483-3.58-7.747-6.624-10.178c-1.464-1.155-3.38-0.423-3.281,1.623C149.035,124.359,152.562,132.259,154.625,136.064z"/>
			</g>
			<g style="opacity:0.45;">
				<g>
					<path style="fill:#000E3F;" d="M184.714,201.047c1.768-1.427,4.901-3.897,7.016-2.186c4.308,3.485,1.352,24.309-11.117,35.566       c-1.332,1.203-4.65,5.003-6.398,2.942C170.432,232.908,175.158,208.756,184.714,201.047z"/>
					<path style="fill:#000E3F;" d="M185.366,250.86c0.522-7.608,8.186-18.235,14.189-21.548c4.049-2.234,8.616-0.615,8.541,4.246       C207.943,243.453,185.054,255.421,185.366,250.86z"/>
				</g>
				<g>
					<path style="fill:#000E3F;" d="M40.55,234.761c-2.218-0.494-6.121-1.319-7.258,1.153c-2.316,5.034,9.569,22.387,25.736,26.948       c1.728,0.487,6.386,2.422,7.039-0.201C67.479,256.984,52.533,237.433,40.55,234.761z"/>
					<path style="fill:#000E3F;" d="M62.055,279.697c-3.842-6.587-15.423-12.714-22.273-13.021c-4.62-0.207-7.995,3.27-5.772,7.593       C38.535,283.07,64.357,283.646,62.055,279.697z"/>
				</g>
			</g>
			<path style="opacity:0.5;fill:#FD8A02;" d="M21.134,172.803c-4.405-0.751-9.446-3.979-10.829-5.341     c-0.803-0.79-1.084-1.419-0.226-2.066c21.229-16.005,48.71,2.842,99.343-13.521c12.37-3.997,46.57-16.93,45.079-34.045     c-0.845-9.712-16.788-22.096-12.402-31.151c0.891-1.841,10.628-0.982,12.382-0.766c24.726,3.04,40.959,36.385,18.706,52.079     C133.551,165.945,64.678,180.231,21.134,172.803z"/>
			<path style="opacity:0.75;fill:#FFFFFF;" d="M52.132,118.064c-6.366,3.008-13.854,8.878-20.897,10.035     c-4.106,0.674-6.96-4.23-2.146-7.948c28.166-21.752,88.667-26.606,79.128-19.574C100.782,106.058,82.307,103.807,52.132,118.064z     "/>
			<g style="opacity:0.25;">
				<path style="fill:#000E3F;" d="M57.328,331.894c-1.922-1.205-1.918-1.516,0.016-2.716      c27.127-16.822,74.266-1.046,110.611-19.686c15.364-7.879,24.072-22.162,25.674-39.212c0.136-1.45,0.82-2.26,2.033-2.953      c17.288-9.877,19.457-13.079,21.59-14.511c1.183-0.793,1.591,0.547,1.741,1.964c1.027,9.718,4.699,22.212-4.918,38.619      C188.241,337.474,96.859,356.672,57.328,331.894z"/>
				<path style="fill:#000E3F;" d="M217.579,245.905c0.148,3.739,2.352,3.344-2.2,7.151c-8.399,7.022-20.225,13.599-21.148,13.831      c-0.821,0.206-1.04-0.637-1.096-1.472c-2.743-40.549-6.804-59.965-7.69-71.386c-0.079-1.02,0.281-1.618,1.101-2.159      c17.036-11.249,13.541-10.467,15.707-11.625c0.315-0.168,0.688-0.046,0.81,0.268      C206.341,188.934,217.131,234.587,217.579,245.905z"/>
				<path style="fill:#000E3F;" d="M184.373,184.866c0.368-20.455,7.647-32.855,10.609-28.306      c1.359,2.087,5.907,16.149,7.041,19.493c0.418,1.232,0.36,2.345-0.596,3.314c-4.471,4.533-8.932,7.526-14.966,11.406      c-0.756,0.485-1.49,0.882-1.758,0.04C184.655,190.662,184.355,185.884,184.373,184.866z"/>
			</g>
		</g>
		<g>
			<g>
				<path style="fill:#000E3F;" d="M123.147,263.576c-3.236,0.757-6.51,0.251-9.545-1.488c-4.287-2.456-7.6-7.169-8.647-12.299      c-0.162-0.779,0.404-1.553,1.122-1.698c0.78-0.159,1.54,0.343,1.699,1.122c0.887,4.344,3.668,8.32,7.257,10.377      c1.886,1.081,4.868,2.122,8.496,0.884c6.908-2.358,8.999-10.373,7.459-16.718c-0.188-0.772,0.286-1.551,1.059-1.738      c0.003-0.001,0.007-0.002,0.011-0.003c0.769-0.18,1.54,0.293,1.726,1.063c1.842,7.583-0.802,17.213-9.325,20.122      C124.024,263.348,123.585,263.473,123.147,263.576z"/>
			</g>
			<g>
				<path style="fill:#000E3F;" d="M149.454,240.318c-1.801,0.421-3.648,0.135-5.387-0.843c-2.788-1.569-5.068-4.893-5.81-8.468      c-0.16-0.778,0.321-1.54,1.117-1.702c0.78-0.162,1.541,0.339,1.702,1.117c0.571,2.753,2.34,5.383,4.401,6.544      c1.272,0.715,2.547,0.85,3.823,0.401c3.507-1.246,4.428-5.936,3.515-9.716c-0.187-0.773,0.288-1.55,1.061-1.737      c0.003-0.001,0.007-0.002,0.01-0.003c0.77-0.18,1.541,0.294,1.727,1.064c1.21,5.002-0.255,11.295-5.349,13.106      C149.995,240.175,149.725,240.254,149.454,240.318z"/>
			</g>
			<g>
				<path style="fill:#000E3F;" d="M89.69,254.294c-0.271,0.063-0.548,0.112-0.831,0.145c-5.369,0.636-9.472-4.355-10.606-9.374      c-0.175-0.772,0.306-1.539,1.076-1.719c0.003-0.001,0.007-0.002,0.01-0.002c0.776-0.176,1.546,0.311,1.722,1.087      c0.857,3.793,3.763,7.587,7.459,7.149c1.328-0.159,2.425-0.849,3.247-2.053c1.334-1.954,1.754-5.096,1.044-7.818      c-0.201-0.769,0.261-1.556,1.03-1.756c0.775-0.208,1.555,0.262,1.756,1.03c0.921,3.534,0.35,7.526-1.453,10.167      C93.02,252.798,91.491,253.873,89.69,254.294z"/>
			</g>
			<path style="fill:#000E3F;" d="M9.736,179.647c0.858-8.589,3.411-7.606,0.774-9.744c-6.206-5.03-9.402-11.256-10.086-18.308     c-0.34-3.508-1.31-7.911,1.681-17.202c3.112-9.667,12.243-16.366,20.643-21.248c11.233-6.529,23.624-11.029,36.008-14.824     c11.949-3.662,24.116-6.596,36.352-9.128c21.06-4.358,58.793-10.185,76.428,2.032c11.912,8.252,17.618,25.582,11.243,38.804     c-1.213,2.517,1.886,1.063,8.136,12.898c14.607,27.66,24.684,76.27,29.324,108.719c1.891,13.229,5.782,26.645-6.172,45.028     c-4.735,7.282-10.978,13.505-17.824,18.807c-7.594,5.882-15.996,10.692-24.733,14.658c-9.277,4.211-18.979,7.484-28.876,9.89     c-9.917,2.411-20.058,3.959-30.251,4.504c-9.63,0.514-19.347,0.144-28.859-1.502c-8.559-1.48-17.025-4.006-24.7-8.126     c-6.967-3.74-13.231-8.854-17.774-15.369c-1.558-2.233-2.906-4.612-4.023-7.095C30.041,296.929,5.94,217.666,9.736,179.647z      M202.889,182.206c-0.714-3.173-0.668,3.113-29.005,17.786c-12.23,6.333-25.949,12.009-34.841,15.053     c-36.362,12.448-76.324,16.443-107.343,12.656c-13.39-1.635-15.005-3.3-15.694-2.191c-0.659,1.062,0.292,3.285,2.31,12.249     c2.605,11.575,4.599,19.922,8.23,33.231c5.905,21.641,5.713,22.05,7.734,22.551c29.633,7.345,80.827,4.629,121.35-10.244     c13.885-5.096,27.513-11.149,40.408-18.407c6.916-3.893,13.733-8.156,19.767-13.339c2.41-2.07,1.202-3.069,0.076-11.56     C213.114,219.133,202.921,182.35,202.889,182.206z M3.996,155.305c4.203,16.131,17.674,17.638,33.171,18.327     c50.771,2.258,105.661-14.903,136.781-37.238c14.688-10.542,9.645-32.647-3.977-42.989c-20.4-15.487-77.582-1.308-101.229,4.732     c-17.702,4.519-42.595,13.335-56.266,25.69C3.617,131.833,1.017,143.872,3.996,155.305z M219.108,262.023     c-1.046-6.673-1.032-8.351-1.289-8.424c-0.17-0.048-0.465,0.084-0.607,0.23c-5.118,5.253-20.627,14.315-30.683,19.278     c-40.753,20.111-83.245,29.583-130.917,26.471c-17.389-1.135-21.853-4.335-21.201-2.255c2.115,6.746,3.524,10.35,4.243,12.161     c7.041,17.735,24.94,27.152,43.64,30.679C135.467,350.193,227.981,318.61,219.108,262.023z M182.026,192.394     c6.333-3.854,12.06-8.35,18.012-12.732c2.17-1.773,1.819-2.198-5.233-21.647c-1.579-4.355-19.467-5.57-21.603,7.383     c-0.812,4.921-1.193,8.825-5.456,14.322c-3.038,3.918-8.867,6.76-14.73,4.037c-4.706-2.185-7.676-3.747-11.032-4.541     c-6.554-1.551-12.216,2.028-15.197,7.327c-19.244,34.214-35.527,8.267-47.834,6.769c-7.683-0.935-12.13,4.69-16.874,11.039     c-6.134,8.21-16.75,5.816-23.684-2.366c-3.586-4.231-5.703-9.659-13.419-9.318c-4.558,0.201-8.449,2.139-11.563,5.534     c-1.118,1.219-0.697,4.396-0.472,6.406c1.534,13.708,1.989,16.92,3.615,17.444c5.963,1.918,12.336,2.628,18.551,3.151     c8.129,0.683,16.303,0.838,24.457,0.72C107.421,225.229,152.835,210.159,182.026,192.394z M150.582,179.703     c3.917,1.831,7.065,3.782,11.511,1.318c7.785-4.314,7.873-14.242,8.794-17.468c1.724-6.044,5.936-9.501,11.858-10.906     c4.152-0.985,7.165,0.102,8.995,0.412c0.715,0.121,0.878-0.466,0.576-1.119c-2.773-6.006-6.339-13.502-10.739-17.687     c-1.63-1.551-1.305,1.095-6.812,4.922c-23.811,16.547-62.424,30.021-83.884,33.126c-16.715,2.419-25.3,4.166-45.843,4.218     c-29.087,0.074-30.139-5.685-31.074-3.366c-2.465,6.113-2.225,19.677-1.748,21.283c0.278,0.938,1.026,0.131,1.861-0.493     c6.589-4.92,14.605-5.578,20.723-0.503c4.113,3.412,4.49,7.794,11.69,11.766c4.182,2.307,8.963,2.368,12.516-1.35     c4.614-4.827,12.746-21.304,30.28-8.911c3.657,2.585,7.735,4.401,12.009,5.814c5.869,1.94,11.216-0.321,15.35-4.591     c4.19-4.328,6.412-10.142,10.447-14.47C134.382,173.879,141.072,175.259,150.582,179.703z"/>
		</g>
	</g>
	<g>
		<g>
			<path style="fill:#DB5E43;" d="M334.073,421.791c-5.771-1.258-11.391-3.089-16.99-4.899     c-38.63-12.487-78.784-36.362-78.877-77.153c-0.007-2.945-0.283-5.899,0.158-8.833c4.99-33.232,17.587-44.586,24.833-64.522     c7.332-20.172-0.973-26.651-3.755-40.003c-1.806-8.664-1.363-17.108,0.396-23.689c19.823-74.151,190.843-62.901,240.504,19.529     c9.96,16.532,11.441,32.095,8.78,41.784c-1.416,5.152-2.148,11.608-10.346,21.808c-6.435,8.008-10.732,9.499-15.446,15.285     c-18.451,22.648,2.265,60.888-23.698,100.114c-8.598,12.991-22.389,21.395-37.528,25.545c-30.905,8.473-64.668-0.233-72.669-1.39     C344.929,424.716,338.821,422.826,334.073,421.791z M323.797,217.679c-11.478,1.84-21.386,11.703-25.028,21.184     c-4.359,11.345-1.6,24.524,4.46,34.641c3.82,6.378,3.905,11.498,2.127,15.973c-1.59,4.001-4.065,7.369-7.475,10.041     c-16.928,13.264-27.736,28.214-16.865,46.587c9.061,15.314,30.035,21.829,52.991,10.936c2.703-1.282,5.599-1.816,8.604-1.67     c1.45,0.07,2.801,0.616,4.21,0.869c3.766,0.677,7.025,3.43,9.755,6.164c16.789,16.81,33.999,20.533,47.925,16.972     c7.855-2.009,12.624-6.834,14.643-13.066c3.293-10.163-2.136-18.271-3.178-21.146c-1.595-4.402-1.463-8.768,0.715-12.938     c3.391-6.493,9.5-6.171,17.06-11.669c13.25-9.636,19.31-27.595,6.873-42.28c-4.365-5.154-8.729-5.827-10.444-13.241     c-2.136-9.235,6.089-15.67,7.292-30.795c2.666-33.516-42.664-52.19-58.6-19.44c-0.697,1.431-1.4,2.876-2.269,4.204     c-4.207,6.43-10.856,7.07-18.353,5.407C354.548,223.595,340.088,215.069,323.797,217.679z M460.448,232.007     c-7.754-11.813-20.296-7.218-16.702,4.781c3.599,12.014-8.632,22.61-0.215,34.173c4.627,6.357,13.012,5.53,18.282-0.059     C465.272,267.235,466.344,240.991,460.448,232.007z M333.527,188.115c-12.241,1.492-16.857,12.823-10.54,17.538     c1.585,1.183,3.284,1.887,5.296,1.845c4.44-0.092,14.855-3.314,22.838,3.413c9.546,8.043,20.424,5.357,21.21-2.574     C373.443,197.114,360.036,184.882,333.527,188.115z M358.151,386.408c3.57-3.65,3.8-7.296,2.33-11.92     c-2.577-8.106-8.941-12.079-13.268-12.207c-9.58-0.283-9.28,5.693-15.316,4.687c-2.793-0.465-6.604-2.578-10.979-0.91     c-5.191,1.979-6.445,8.06,1.395,14.903C331.177,388.699,349.89,394.853,358.151,386.408z"/>
			<path style="opacity:0.5;fill:#FFFFFF;" d="M257.958,349.714c-5.348-15.018,2.178-33.817,10.312-47.618     c6.011-10.199,12.16-29.401,12.902-44.408c0.892-18.04-4.483-26.339-3.335-41.349c4.907-64.167,154.112-58.32,202.346,10.759     c8.07,11.557,12.791,26.555,7.474,39.286c-3.669,8.785-9.662,16.323-15.359,23.853c-12.851,16.987-18.769,40.282-18.333,61.396     c0.269,13.046-1.633,29.062-9.306,39.594c-9.341,12.823-29.341,17.97-45.066,19.375     C338.189,416.089,269.995,383.516,257.958,349.714z"/>
			<g>
				<path style="fill:#FC09B2;" d="M353.898,223.905c7.849,3.582,17.827,3.674,23.23-3.892c3.499-4.9,3.216-8.343,9.131-13.903      c6.15-5.781,13.387-8.485,21.892-7.143c1.178,0.186,2.388,0.1,3.542,0.503c22.06,7.698,29.125,26.003,22.541,45.565      c-2.409,7.156-9.073,15.297-2.945,25.285c3.019,4.921,13.671,9.214,15.004,22.738c0.398,4.035-0.16,7.941-1.702,11.704      c-4.832,11.798-10.928,15.397-21.294,20.302c-10.335,4.89-11.226,15.478-7.028,23.217c5.728,10.562,2.701,24.419-8.37,28.909      c-13.624,5.526-33.29,2.202-50.124-15.034c-6.8-6.962-12.424-8.404-18.674-7.588c-6.655,0.868-10.936,5.733-24.285,6.774      c-25.101,1.957-40.14-18.574-36.674-34.395c2.288-10.445,11.067-19.526,19.6-26.039c7.183-5.483,11.766-14.054,8.723-22.714      c-2.254-6.414-5.96-9.044-8.168-20.317c-0.773-3.947-0.893-7.909-0.186-11.882c0.223-1.252,0.181-2.538,0.572-3.773      c3.862-12.176,13.964-22.308,26.701-23.768c3.499-0.401,6.986-0.294,10.492,0.114      C342.056,219.288,348.307,221.354,353.898,223.905z"/>
				<path style="fill:#FC09B2;" d="M443.299,252.61c0.055-0.55,0.13-1.149,0.388-1.62c0.908-1.656,1.004-3.485,1.328-5.281      c0.591-3.277,0.451-6.488-0.402-9.704c-1.772-6.68,1.954-10.514,6.184-9.873c4.385,0.664,8.388,4.75,10.158,8.686      c4.289,9.538,6.923,22.919,2.485,31.957c-5.626,11.457-20.501,9.412-21.739-2.921      C441.046,257.321,443.062,254.984,443.299,252.61z"/>
				<path style="fill:#FC09B2;" d="M362.241,193.337c10.137,5.757,12.132,18.057,4.563,20.78c-0.963,0.346-2.024,0.651-3.025,0.61      c-9.793-0.4-10.203-4.926-18.378-8.236c-1.802-0.729-3.752-0.705-5.649-0.812c-7.88-0.448-8.806,1.98-14.427,0.094      c-5.592-1.876-5.404-9.476,0.941-14.063c3.375-2.44,7.249-3.214,11.199-3.711C345.493,186.988,354.055,188.688,362.241,193.337z      "/>
				<path style="fill:#FC09B2;" d="M329.076,367.246c3.383,1.486,6.641,1.179,9.37-1.254c7.114-6.342,20.08-1.385,21.791,12.048      c0.482,3.783-1.202,6.656-4.12,8.838c-5.901,4.412-13.281,1.808-16.106,1.734c-0.47-0.012-0.958-0.112-1.403-0.27      c-6.786-2.406-15.567-5.669-19.73-12.949c-2.267-3.965-0.854-7.378,2.69-8.547C323.609,366.173,327.304,366.469,329.076,367.246      z"/>
				<path style="fill:#FC09B2;" d="M429.442,333.614c3.77-4.248,8.224-7.88,13.478-5.732c5.055,2.067,4.921,9.308-0.295,12.264      c-4.955,2.807-3.78,8.209-3.894,11.7c-0.123,3.767-3.643,6.009-6.812,4.895c-1.938-0.682-3.491-1.859-4.598-3.611      C423.198,346.602,425.176,338.42,429.442,333.614z"/>
				<path style="fill:#FC09B2;" d="M290.823,295.313c-9.494,4.689-13.689-4.859-6.782-7.72c6.599-2.734,4.77-5.577,6.588-8.585      c2.285-3.782,6.398-0.944,7.246,2.657C299.042,286.624,295.681,292.914,290.823,295.313z"/>
			</g>
			<g style="opacity:0.25;">
				<path style="fill:#000E3F;" d="M339.266,354.543c-6.929,0.848-11.091,5.852-24.763,6.827      c-24.805,1.77-39.803-18.592-36.397-34.269c2.309-10.625,11.112-19.659,19.701-26.246c7.165-5.494,11.632-14.057,8.705-22.518      c-2.285-6.606-7.364-11.284-8.711-23.861c-1.396-13.045,4.614-25.495,18.095-33.218c1.114-0.638,2.275-1.148,3.539-1.398      c0.355-0.07,0.657,0.263,0.512,0.567c-0.822,1.717-3.002,4.053-5.437,10.877c-6.408,17.956,2.459,25.041,5.827,37.271      c7.811,28.359-25.934,43.527-22.237,63.577c1.748,9.48,11.86,12.767,21.494,11.189c3.47-0.569,6.846-1.545,10.186-2.618      c20.978-6.739,31.681-7.859,48.447,7.78c7.348,6.854,13.628,14.61,24.133,16.897c4.785,1.042,9.346,0.437,13.52-2.342      c0.88-0.586,1.623-1.589,2.91-1.32c0.262,1.071-0.289,2.015-0.479,3.014c-0.711,3.741-2.569,6.839-5.388,9.357      c-5.353,4.782-15.014,6.183-22.694,5.263C360.414,375.803,358.444,352.196,339.266,354.543z"/>
				<path style="fill:#000E3F;" d="M330.468,375.324c4.718,0.558,8.266,5.317,14.87,4.202c3.693-0.624,3.064-6.322,2.822-10.097      c-0.112-1.736,0.799-3.045,1.776-4.313c0.488-0.634,0.932-0.683,1.686-0.365c3.535,1.488,8.035,6.417,8.665,13.997      c0.49,5.884-5.371,10.248-11.04,10.65c-2.874,0.204-9.96-0.817-10.651-1.06c-7.312-2.566-13.708-5.012-18.855-11.546      c-0.611-0.776-0.423-1.293,0.562-1.561C323.153,374.456,325.587,373.895,330.468,375.324z"/>
				<path style="fill:#000E3F;" d="M351.269,201.834c15.071,8.155,16.834-1.325,17.728-1.485c0.538-0.096,0.598,0.418,0.78,0.742      c3.723,6.636,0.991,14.252-7.461,13.625c-6.456-0.479-9.512-4.284-14.563-7.174c-4.533-2.594-12.88-2.03-16.385-1.221      c-2.733,0.63-7.296-0.076-9.268-3.019c-0.461-0.689-0.376-1.162,0.288-1.628C330.812,195.768,342.221,196.938,351.269,201.834z"/>
				<path style="fill:#000E3F;" d="M443.306,252.562c0.422-3.216,1.402-1.334,2.041-10.225c0.386-5.369-1.82-7.339-0.872-9.367      c1.341-0.257,1.982,0.762,2.72,1.54c7,7.376,0.007,21.601,3.574,27.931c2.387,4.235,6.54-0.477,10.896-1.331      c3.609-0.707,3.79,0.075,2.823,3.051c-4.645,14.293-21.168,12.857-22.774-0.118      C440.974,258.059,442.947,255.303,443.306,252.562z"/>
				<path style="fill:#000E3F;" d="M433.182,340.895c-0.503,2.154-0.06,3.861,1.978,5.144c0.638,0.402,3.196,2.24,3.511,3.151      c0.874,2.527-0.469,5.974-2.8,7.252c-7.271,3.987-17.152-11.943-5.277-24.167c1.158-1.192,7.936-7.305,7.154-2.117      C437.02,334.994,434.055,337.154,433.182,340.895z"/>
				<path style="fill:#000E3F;" d="M297.124,280.513c0.786-0.088,0.968,2.42,0.992,3.211c0.144,4.799-3.962,11.764-10.907,12.667      c-7.319,0.952-7.8-5.974-5.187-6.553c3.12-0.691,6.946,1.516,9.973-0.074C294.254,288.577,295.718,280.711,297.124,280.513z"/>
			</g>
			<g style="opacity:0.5;">
				<path style="fill:#FFFFFF;" d="M418.378,258.64c-4.376,7.988-11.941,3.802-7.693-3.297c8.915-14.898,9.404-29.33,4.512-40.563      c-0.679-1.558,0.822-3.017,2.316-2.183C425.148,216.857,430.212,237.04,418.378,258.64z"/>
				<path style="fill:#FFFFFF;" d="M419.083,316.255c-3.221,0.994-6.436-0.756-4.984-4.18c1.261-2.973,3.398-2.143,8.019-7.346      c10.227-11.517,5.261-21.28,10.212-19.324c2.405,0.95,3.067,5.862,3.024,8.025C435.176,302.38,427.7,313.596,419.083,316.255z"/>
				<path style="fill:#FFFFFF;" d="M334.344,195.365c-2.313-4.447,9.749-6.71,21.54-1.113c1.16,0.551,5.251,3.189,2.552,4.481      c-1.392,0.667-3.312-0.586-4.623-0.986C339.275,193.312,336.108,198.762,334.344,195.365z"/>
				<path style="fill:#FFFFFF;" d="M456.026,255.47c-0.394-0.903-0.348-1.87-0.351-2.817c-0.043-13.286-4.746-17.976-3.109-19.232      c2.345-1.798,9.337,9.393,8.521,20.175C460.784,257.607,457.104,257.939,456.026,255.47z"/>
				<path style="fill:#FFFFFF;" d="M335.21,375.881c-3.175-1.69-1.326-4.953,1.452-5.525c5.368-1.106,4.219-1.963,6.981-3.359      c1.561-0.789,2.934,0.133,2.861,1.866C346.326,373.083,338.996,377.896,335.21,375.881z"/>
				<path style="fill:#FFFFFF;" d="M290.551,284.612c0.74-0.796,1.343-1.527,1.669-2.594c0.193-0.633,0.285-2.712,1.404-2.482      c1.206,0.248,1.106,5.198-0.959,6.891C291.041,287.757,289.145,286.125,290.551,284.612z"/>
				<path style="fill:#FFFFFF;" d="M438.752,333.223c-2.469,3.955,0.301,5.771,1.822,3.754c0.72-0.954,3.421-5.034,1.892-5.969      C441.406,330.359,439.469,332.075,438.752,333.223z"/>
			</g>
			<g>
				<path style="fill:#FF8EDE;" d="M326.234,285.746c5.628-3.763,14.872-1.653,19.511,2.869c4.592,4.477,2.509,11.305-6.299,11.602      C327.381,300.622,318.934,290.627,326.234,285.746z"/>
				<path style="fill:#FF8EDE;" d="M404.134,305.542c-3.149-5.993-12.278-8.552-18.513-6.794c-6.173,1.741-7.602,8.736-0.004,13.201      C396.025,318.066,408.218,313.316,404.134,305.542z"/>
			</g>
			<path style="fill:#FFFFFF;" d="M378.086,286.068c2.434,1.275,3.194,3.314,2.693,5.524c-2.691,11.853-21.237,11.366-26.263,1.54     c-1.799-3.517-2.751-11.127,2.697-11.985C360.086,280.694,370.153,281.911,378.086,286.068z"/>
			<g style="opacity:0.45;">
				<path style="fill:#000E3F;" d="M359.204,241.965c-0.861,3.389,1.188,6.835,4.577,7.696c3.389,0.861,6.835-1.188,7.696-4.577      c0.861-3.389-1.188-6.835-4.577-7.696C363.511,236.526,360.065,238.575,359.204,241.965z"/>
				<path style="fill:#000E3F;" d="M289.201,330.764c-0.861,3.389,1.188,6.835,4.578,7.696c3.389,0.861,6.835-1.188,7.696-4.577      c0.862-3.389-1.188-6.835-4.577-7.696C293.508,325.325,290.062,327.374,289.201,330.764z"/>
				<path style="fill:#000E3F;" d="M393.019,343.372c-0.861,3.389,1.188,6.835,4.577,7.696c3.389,0.861,6.835-1.188,7.696-4.577      c0.861-3.389-1.188-6.835-4.577-7.696C397.326,337.934,393.88,339.983,393.019,343.372z"/>
				<path style="fill:#000E3F;" d="M350.379,338.315c-0.861,3.389,1.188,6.835,4.577,7.696c3.389,0.861,6.835-1.188,7.696-4.577      c0.861-3.389-1.188-6.835-4.577-7.696C354.686,332.876,351.241,334.926,350.379,338.315z"/>
				<path style="fill:#000E3F;" d="M310.281,259.376c-0.861,3.389,1.188,6.835,4.577,7.696c3.39,0.861,6.835-1.188,7.696-4.577      c0.861-3.389-1.188-6.835-4.577-7.696C314.588,253.938,311.142,255.987,310.281,259.376z"/>
				<path style="fill:#000E3F;" d="M321.168,233.499c-0.662,2.605,0.913,5.253,3.518,5.915c2.605,0.662,5.253-0.913,5.915-3.518      c0.662-2.605-0.913-5.253-3.518-5.915C324.479,229.319,321.83,230.894,321.168,233.499z"/>
				<path style="fill:#000E3F;" d="M307.928,311.501c-0.662,2.605,0.913,5.253,3.518,5.915c2.605,0.662,5.253-0.913,5.915-3.518      c0.662-2.605-0.913-5.253-3.518-5.915C311.238,307.321,308.59,308.896,307.928,311.501z"/>
				<path style="fill:#000E3F;" d="M393.964,239.723c-0.662,2.605,0.913,5.253,3.518,5.915c2.605,0.662,5.253-0.913,5.915-3.518      c0.662-2.605-0.913-5.253-3.518-5.915C397.274,235.543,394.625,237.118,393.964,239.723z"/>
				<path style="fill:#000E3F;" d="M371.537,358.878c-0.662,2.605,0.913,5.253,3.518,5.915c2.605,0.662,5.253-0.913,5.915-3.518      c0.662-2.605-0.913-5.253-3.518-5.915C374.848,354.698,372.199,356.273,371.537,358.878z"/>
				<path style="fill:#000E3F;" d="M311.803,343.698c-0.662,2.605,0.913,5.253,3.518,5.915c2.605,0.662,5.253-0.913,5.915-3.518      c0.662-2.605-0.913-5.253-3.518-5.915C315.114,339.518,312.465,341.093,311.803,343.698z"/>
				<path style="fill:#000E3F;" d="M355.972,316.307c-0.662,2.605,0.913,5.253,3.518,5.915c2.605,0.662,5.253-0.913,5.915-3.518      c0.662-2.605-0.913-5.253-3.518-5.915C359.283,312.127,356.634,313.702,355.972,316.307z"/>
				<path style="fill:#000E3F;" d="M378.415,266.424c-0.492,1.937,0.679,3.906,2.616,4.398c1.937,0.492,3.906-0.679,4.398-2.616      c0.492-1.937-0.679-3.906-2.616-4.398C380.876,263.316,378.907,264.487,378.415,266.424z"/>
				<path style="fill:#000E3F;" d="M336.002,253.541c-0.492,1.937,0.679,3.906,2.616,4.398c1.937,0.492,3.906-0.679,4.398-2.616      c0.492-1.937-0.679-3.906-2.616-4.398C338.464,250.433,336.494,251.604,336.002,253.541z"/>
				<path style="fill:#000E3F;" d="M392.358,216.657c-0.492,1.937,0.679,3.906,2.616,4.398c1.937,0.492,3.906-0.679,4.398-2.616      s-0.679-3.906-2.616-4.398C394.82,213.549,392.851,214.72,392.358,216.657z"/>
				<path style="fill:#000E3F;" d="M328.486,325.456c-0.492,1.937,0.679,3.906,2.616,4.398c1.937,0.492,3.906-0.679,4.398-2.616      c0.492-1.937-0.679-3.906-2.616-4.398C330.947,322.349,328.978,323.52,328.486,325.456z"/>
				<path style="fill:#000E3F;" d="M395.848,363.768c-0.492,1.937,0.679,3.906,2.616,4.398c1.937,0.492,3.906-0.679,4.398-2.616      c0.492-1.937-0.679-3.906-2.616-4.398C398.31,360.66,396.341,361.831,395.848,363.768z"/>
				<path style="fill:#000E3F;" d="M412.93,278.335c-0.492,1.937,0.679,3.906,2.616,4.398c1.937,0.492,3.906-0.679,4.398-2.616      c0.492-1.937-0.679-3.906-2.616-4.398C415.391,275.227,413.422,276.398,412.93,278.335z"/>
				<path style="fill:#000E3F;" d="M377.695,331.319c-0.492,1.937,0.679,3.906,2.616,4.398c1.937,0.492,3.906-0.679,4.398-2.616      c0.492-1.937-0.679-3.906-2.616-4.398C380.157,328.211,378.188,329.382,377.695,331.319z"/>
			</g>
		</g>
		<g>
			<g>
				<path style="fill:#000E3F;" d="M342.309,269.442c3.303,0.074,6.559,2.551,7.064,6.433c0.888,6.831-7.885,9.717-12.151,4.52      C333.79,276.213,336.662,269.315,342.309,269.442z"/>
			</g>
			<path style="fill:#000E3F;" d="M397.772,283.536c-2.938-1.512-6.981-0.89-9.278,2.28c-4.042,5.578,2.289,12.303,8.519,9.773     C402.026,293.553,402.796,286.121,397.772,283.536z"/>
			<path style="fill:#000E3F;" d="M298.427,411.943c-44.945-19.017-72.767-50.544-58.608-97.664     c8.986-29.905,32.062-52.748,22.372-73.933c-21.457-46.908,17.984-90.438,95.701-89.187     c61.884,0.997,116.346,31.467,139.603,63.634c19.984,27.64,17.895,54.148,2.398,72.48c-10.914,12.91-19.966,12.458-22.869,35.35     c-3.065,24.162,9.212,97.787-67.411,108.508C376.251,435.797,328.184,424.533,298.427,411.943z M458.837,400.869     c28.144-41.188,1.02-82.742,29.563-105.987c18.066-14.713,23.686-33.218,19.76-51.294c-5.098-23.466-23.777-42.529-43.696-56.293     c-62.673-43.31-163.863-45.671-196.459-0.021c-7.131,9.988-10.558,23.104-8.131,36.837c2.723,15.409,10.002,19.477,5.954,36.645     c-4.353,18.458-25.139,43.311-26.703,71.143c-0.54,9.616,0.154,19.36,3.881,28.435c11.546,28.112,40.874,44.362,69.529,54.06     C360.717,430.699,430.126,442.888,458.837,400.869z"/>
			<path style="fill:#000E3F;" d="M381.667,208.605c21.072-28.112,67.331-2.059,54.635,36.192     c-2.943,8.868-7.891,13.982-4.678,22.246c1.418,3.648,2.859,4.306,6.463,7.495c15.247,13.489,12.791,33.574-3.309,46.278     c-8.531,6.731-18.141,5.656-18.951,17.698c-0.185,2.751,0.292,5.38,1.577,7.871c15.094,29.24-19.137,47.377-50.954,25.553     c-7.314-5.017-10.532-9.908-15.32-12.953c-5.412-3.442-11.131-3.7-16.889-1.126c-24.899,11.129-44.523,4.046-54.093-11.593     c-9.931-16.228-1.922-30.735,12.248-43.322c3.305-2.936,7.484-5.279,10.378-10.133c4.37-7.33,3.202-13.026-0.527-19.355     c-11.532-19.576-6.771-39.602,7.514-50.256c3.848-2.87,7.984-5.204,12.727-6.181c15.582-3.209,31.645,5.778,38.478,6.981     C375.617,226.58,376.235,215.851,381.667,208.605z M432.652,217.889c-3.761-7.86-10.82-13.995-19.047-16.812     c-4.793-1.641-10.084-2.178-15.032-0.916c-20.657,5.269-15.246,24.783-31.717,26.774c-11.444,1.383-18.633-7.779-36.489-7.913     c-4.159-0.032-8.303,0.376-12.161,2.106c-5.339,2.393-9.734,6-13.32,10.621c-7.618,9.818-9.514,24.455,0.396,41.784     c6.126,10.713,2.435,20.645-7.294,28.237c-8.535,6.661-16.924,15.391-19.094,26.042c-3.751,18.408,19.019,44.037,54.746,27.421     c5.639-2.622,11.311-2.188,16.886,0.338c3.262,1.478,5.78,3.971,8.278,6.415c17.538,17.153,36.532,19.676,48.924,14.34     c4.871-2.098,8.479-6.251,9.89-11.361c3.321-12.022-5.281-17.47-4.503-27.066c0.301-3.713,1.843-7.252,4.465-9.913     c4.47-4.537,6.528-3.26,13.764-8.019c8.607-5.661,15.63-16.646,14.078-27.299c-2.479-17.019-16.067-15.863-17.361-29.194     c-0.372-3.831,0.531-7.469,2.098-10.913C435.308,241.248,437.998,229.06,432.652,217.889z"/>
			<path style="fill:#000E3F;" d="M373.074,208.662c-0.455,5.453-5.793,8.191-10.8,7.928c-5.911-0.31-9.965-4.138-14.736-7.064     c-4.155-2.549-11.657-2.31-15.867-1.454c-5.373,1.092-11.559-1.127-12.199-7.232c-0.951-9.062,9.889-13.571,17.161-14.528     C351.896,184.305,374.317,193.759,373.074,208.662z M342.902,188.6c-19.051-0.653-24.743,11.702-18.425,15.874     c3.534,2.333,5.883,0.619,13.088,0.328c5.703-0.23,10.85,1.267,15.234,5.08c3.138,2.729,8.149,4.318,11.221,4.012     C377.611,212.537,370.135,189.534,342.902,188.6z"/>
			<path style="fill:#000E3F;" d="M443.525,240.479c-0.119-2.613-4.08-12.194,3.277-15.598c5.325-2.464,11.007,1.814,13.917,6.049     c3.112,4.529,4.829,10.121,5.862,15.467c5.978,30.925-18.837,36.931-25.469,21.965c-2.611-5.893-0.89-11.949,0.787-17.838     C442.829,247.253,443.681,243.909,443.525,240.479z M442.957,265.929c1.207,4.174,4.526,7.582,9.076,7.55     c8.28-0.059,12.183-7.395,12.733-15.701c0.533-8.05-1.385-15.677-4.758-22.932c-3.605-7.755-12.819-10.367-14.764-5.083     c-1.418,3.854,0.793,7.301,0.988,11.186C446.645,249.16,440.696,258.115,442.957,265.929z"/>
			<path style="fill:#000E3F;" d="M334.208,366.088c3.067-0.834,5.015-4.05,10.43-4.578c8.752-0.853,15.6,6.433,17.313,15.257     c1.475,7.598-4.568,13.603-12.376,14.417c-7.701,0.802-20.443-2.68-28.815-10.526c-10.106-9.471-2.728-18.54,7.846-15.524     C330.524,365.68,332.151,366.647,334.208,366.088z M343.225,388.357c12.314,1.702,17.363-5.14,16.008-11.357     c-2.711-12.436-13.414-15.448-19.516-10.861c-5.306,3.988-7.569,2.959-12.768,1.483c-2.41-0.684-6.543-0.571-7.707,2.069     C315.597,377.953,333.081,386.956,343.225,388.357z"/>
			<path style="fill:#000E3F;" d="M423.991,349.818c-1.547-5.666,0.01-11.839,3.497-16.475c0.442-0.588,0.915-1.153,1.414-1.694     c14.361-15.558,26.091,1.878,15.026,9.638c-3.757,2.635-3.509,2.836-3.436,10.316c0.028,2.936-1.803,5.699-4.596,6.681     C430.551,360.163,425.441,355.127,423.991,349.818z M432.069,355.786c1.505,0.402,3.054,0.357,4.305-0.685     c2.53-2.105,1.404-6.533,1.601-9.437c0.21-3.108,2.423-4.916,4.831-6.618c3.05-2.156,4.034-6.935,1.125-9.66     c-4.972-4.659-14.105,2.765-16.904,9.924C423.874,347.376,428,355.082,432.069,355.786z"/>
			<path style="fill:#000E3F;" d="M283.252,286.167c4.628-1.802,4.413-3.729,5.502-7.131c2.241-6.997,12.158-2.948,10.998,6.025     c-0.947,7.327-8.332,15.095-16.308,12.81c-2.394-0.686-4.286-2.873-4.556-5.36C278.588,289.746,280.71,287.156,283.252,286.167z      M296.696,280.078c-0.822-1.211-2.86-2.927-4.431-2.041c-1.803,1.016-0.79,7.704-8.33,10.522     c-1.482,0.554-2.786,1.964-2.789,3.603c-0.007,3.868,4.845,4.2,7.545,3.328C294.391,293.648,300.447,285.602,296.696,280.078z"/>
		</g>
	</g>
	<g>
		<path style="fill:#FD8A02;" d="M68.51,373.678c-1.539,2.375-4.952,5.521-7.077,14.691c-0.19,0.822-0.394,1.652-0.711,2.43    c-0.441,1.083-1.656,1.31-2.463,0.432c-1.824-1.983-2.374-5.448-8.286-10.778c-3.47-3.127-6.539-3.848-4.312-6.316    c5.552-6.151,6.642-14.412,7.501-16.673c0.371-0.976,1.529-1.203,2.276-0.486c0.8,0.769,1.293,1.764,1.839,2.716    c4.041,7.05,8.698,9.898,10.635,11.327C68.397,371.379,69.04,372.861,68.51,373.678z"/>
		<path style="fill:#FD8A02;" d="M146.107,405.619c-1.773,2.733-5.7,6.345-8.151,16.92c-0.219,0.947-0.454,1.904-0.818,2.799    c-0.507,1.247-1.908,1.508-2.837,0.498c-2.103-2.286-2.734-6.275-9.543-12.413c-3.996-3.602-7.531-4.433-4.966-7.275    c6.395-7.085,7.65-16.599,8.639-19.203c0.427-1.124,1.762-1.386,2.621-0.56c0.921,0.885,1.489,2.031,2.118,3.128    c4.663,8.135,10.044,11.42,12.249,13.046C145.977,402.972,146.718,404.678,146.107,405.619z"/>
		<path style="fill:#FD8A02;" d="M335.493,114.348c-0.416,0.538-0.838,1.076-1.306,1.566c-6.611,6.907-7.866,14.59-9.262,17.345    c-0.608,1.201-2.025,1.346-2.868,0.262c-0.587-0.755-1.048-1.64-1.424-2.527c-5.857-13.846-15.584-14.373-11.41-18.292    c6.958-6.532,8.995-15.91,10.197-18.424c0.519-1.085,1.87-1.235,2.659-0.341c0.845,0.958,1.316,2.147,1.852,3.293    c3.975,8.493,9.067,12.21,11.129,14.013C335.583,111.698,336.182,113.458,335.493,114.348z"/>
		<path style="fill:#FD8A02;" d="M407.428,98.42c-1.8,2.183-5.551,4.918-8.711,13.785c-0.283,0.795-0.581,1.596-0.984,2.332    c-0.562,1.025-1.795,1.112-2.496,0.148c-1.586-2.179-1.735-5.684-6.999-11.655c-3.089-3.503-6.055-4.571-3.561-6.768    c6.219-5.476,8.247-13.557,9.36-15.705c0.48-0.927,1.657-1.02,2.316-0.223c0.707,0.855,1.082,1.9,1.516,2.909    c3.207,7.466,7.508,10.828,9.269,12.469C407.58,96.124,408.049,97.669,407.428,98.42z"/>
		<path style="fill:#FD8A02;" d="M209.303,361.785c-1.539,2.375-4.952,5.521-7.077,14.691c-0.19,0.822-0.394,1.652-0.711,2.43    c-0.441,1.083-1.656,1.31-2.463,0.432c-1.824-1.983-2.374-5.449-8.286-10.778c-3.47-3.127-6.539-3.849-4.312-6.316    c5.552-6.151,6.642-14.412,7.501-16.673c0.371-0.976,1.529-1.203,2.276-0.486c0.8,0.769,1.293,1.764,1.839,2.716    c4.041,7.05,8.698,9.898,10.635,11.327C209.191,359.487,209.834,360.968,209.303,361.785z"/>
		<path style="fill:#FD8A02;" d="M469.979,139.605c-2.435,2.165-7.18,4.605-12.349,14.15c-0.463,0.854-0.943,1.715-1.532,2.481    c-0.82,1.068-2.24,0.948-2.867-0.273c-1.421-2.763-0.97-6.776-5.907-14.501c-2.897-4.533-6.085-6.272-2.858-8.332    c8.046-5.134,11.781-13.974,13.426-16.222c0.71-0.971,2.066-0.868,2.676,0.156c0.653,1.098,0.897,2.354,1.212,3.578    c2.337,9.081,6.654,13.676,8.348,15.828C470.557,137.018,470.818,138.859,469.979,139.605z"/>
	</g>
</g>















</svg>
